<?xml version="1.0" encoding="utf-8"?>
<!-- Generator: Adobe Illustrator 21.0.2, SVG Export Plug-In . SVG Version: 6.00 Build 0)  -->
<svg version="1.1" id="Layer_1" xmlns="http://www.w3.org/2000/svg" xmlns:xlink="http://www.w3.org/1999/xlink" x="0px" y="0px"
	 viewBox="0 0 818 818" style="enable-background:new 0 0 818 818;" xml:space="preserve">
<style type="text/css">
	.st0{fill:#EFEFEF;}
</style>
<g>
	<g>
		<path class="st0" d="M1141.1,114c29.9,22.7,55.6,51.4,75.1,85.2c19.2,33.3,31.4,69.6,36.2,107.9c0.4,2.9,3,4.9,5.8,4.5
			c2.9-0.4,4.9-3,4.5-5.8c-5-39.6-17.6-77.3-37.5-111.8c-20.2-35.1-46.9-64.9-77.8-88.3c-2.3-1.7-5.6-1.3-7.3,1
			C1138.4,109,1138.8,112.3,1141.1,114"/>
		<polygon class="st0" points="1231,380.5 1231,380.5 1231,380.5 		"/>
		<path class="st0" d="M1222.9,417.6c-0.8,2.8,0.8,5.7,3.5,6.5c2.8,0.8,5.7-0.8,6.5-3.5c3.7-12.6,6.6-25.5,8.5-38.6
			c0.4-2.8-1.6-5.5-4.4-5.9c-2.9-0.4-5.5,1.6-5.9,4.4C1229.2,393.1,1226.4,405.5,1222.9,417.6"/>
		<path class="st0" d="M1031.4,84.4c69.1,16.9,129.8,61.3,166.8,125.3c17.8,30.9,29.1,64.5,33.6,100c2,16.2,2.5,32.2,1.6,48
			c-0.2,2.9,2,5.3,4.9,5.5c2.9,0.2,5.3-2,5.5-4.9c0.9-16.4,0.4-33-1.7-49.9c-4.6-36.9-16.4-71.9-34.9-103.9
			c-38.4-66.6-101.5-112.7-173.3-130.2c-2.8-0.7-5.6,1-6.3,3.8C1026.9,80.8,1028.6,83.7,1031.4,84.4"/>
		<path class="st0" d="M918.2,142.8c8.2-0.3,16.4-1,24.7-2c81.3-10.1,160.1,29.2,201.1,100.1c13.6,23.6,22.3,49.3,25.7,76.5
			c8.6,69.3-19,135-67.9,178c-2.2,1.9-2.4,5.2-0.5,7.4c1.9,2.2,5.2,2.4,7.4,0.5c51.4-45.2,80.3-114.2,71.3-187.1
			c-3.6-28.5-12.7-55.6-27-80.4c-43-74.5-126-115.8-211.4-105.2c-7.9,1-15.9,1.6-23.8,1.9c-2.9,0.1-5.1,2.5-5,5.4
			C912.9,140.7,915.4,142.9,918.2,142.8"/>
		<path class="st0" d="M799.5,144.3c9.3,3.5,18.7,6.5,28.4,9.1c38.6,10.3,78.2,13.1,117.6,8.2c72.9-9,143.7,26.2,180.5,89.8
			c12.2,21.2,20,44.3,23,68.7c2.2,18,1.7,35.7-1.1,52.7c-0.5,2.8,1.4,5.5,4.3,6c2.8,0.5,5.5-1.4,6-4.3c3-18,3.5-36.7,1.2-55.7
			c-3.2-25.7-11.4-50.2-24.3-72.6c-38.8-67.2-113.7-104.5-190.8-95c-38.1,4.7-76.3,2.1-113.6-7.9c-9.3-2.5-18.5-5.4-27.5-8.8
			c-2.7-1-5.7,0.4-6.7,3.1C795.4,140.3,796.8,143.3,799.5,144.3"/>
		<path class="st0" d="M1138.6,321.3c-2.5-20.4-8.6-39.8-18-57.9c-1.3-2.6-4.5-3.6-7-2.2c-2.6,1.3-3.6,4.5-2.2,7
			c8.8,17,14.5,35.2,16.9,54.4c8.2,66.4-25.3,128.5-79.8,160c-18.1,10.4-38.5,17.5-60.6,20.3c-16.3,2-32.5,3.4-48.8,4.2
			c-2.9,0.1-5.1,2.6-5,5.5c0.1,2.9,2.6,5.1,5.5,5c16.5-0.8,33-2.2,49.5-4.3c23.4-2.9,45.2-10.5,64.5-21.6
			C1111.8,458.1,1147.4,392,1138.6,321.3"/>
		<path class="st0" d="M775.1,156.9L775.1,156.9c15.2,6.7,31,12.2,47.4,16.6c41.2,11,83.5,14,125.6,8.7
			c59.5-7.4,117.4,18.5,151.6,66.7c1.7,2.3,4.9,2.9,7.3,1.2c2.3-1.7,2.9-4.9,1.2-7.3c-36.4-51.2-98.1-78.8-161.3-71
			c-40.8,5.1-81.7,2.2-121.6-8.5c-15.8-4.2-31.1-9.6-45.9-16.1c-2.6-1.2-5.7,0-6.9,2.7C771.3,152.6,772.5,155.7,775.1,156.9"/>
		<path class="st0" d="M731.4,181.9L731.4,181.9c25.3,13.6,52.1,24.3,80.3,31.9c46.4,12.4,94.1,15.8,141.5,9.8
			c9.7-1.2,19.3-1.2,28.6-0.1c2.9,0.3,5.4-1.7,5.8-4.6c0.3-2.9-1.7-5.4-4.6-5.8c-10.2-1.2-20.6-1.2-31.1,0.1
			c-46.1,5.7-92.4,2.5-137.5-9.6c-27.4-7.3-53.5-17.7-78-31c-2.5-1.4-5.7-0.4-7.1,2.1C727.9,177.4,728.9,180.5,731.4,181.9"/>
		<path class="st0" d="M976.3,409.8c9.2-1.2,17.8-4.1,25.4-8.5c22.9-13.2,36.9-39.2,33.5-67c-1.1-9-4-17.7-8.6-25.5
			c-13.6-23.6-40-36.8-67-33.4c-54.2,6.7-108.5,2.9-161.4-11.3c-42.4-11.4-82.1-28.9-118.6-52.3c-2.4-1.6-5.6-0.8-7.2,1.6
			c-1.6,2.4-0.8,5.6,1.6,7.2c37.4,24,78.1,41.9,121.5,53.5c54.2,14.5,109.9,18.4,165.4,11.5c22.9-2.8,45.1,8.2,56.7,28.2
			c3.9,6.7,6.3,13.9,7.2,21.6c2.9,23.5-9,45.6-28.3,56.7c-6.4,3.7-13.7,6.2-21.5,7.2c-70.2,8.7-140.6,3.8-209.2-14.6
			C701.1,367.6,641,339.1,587,300.1c-2.3-1.7-5.6-1.2-7.3,1.2c-1.7,2.3-1.2,5.6,1.2,7.3c55,39.7,116.3,68.8,182.2,86.4
			C833,413.7,904.7,418.7,976.3,409.8"/>
		<path class="st0" d="M768.5,374.8c67.3,18,136.3,22.9,205.2,14.3c6.4-0.8,12.3-2.9,17.6-5.9c15.8-9.1,25.5-27.1,23.2-46.4
			c-0.8-6.3-2.8-12.2-5.9-17.7c-9.4-16.4-27.7-25.4-46.4-23.1c-56.9,7-113.8,3.1-169.4-11.8c-46.8-12.5-90.6-32.3-130.5-58.8
			c-2.4-1.6-5.6-0.9-7.2,1.5c-1.6,2.4-0.9,5.6,1.5,7.2l0,0c40.9,27.2,85.7,47.4,133.6,60.2c56.8,15.2,115.2,19.3,173.4,12.1
			c14.6-1.8,28.7,5.2,36.1,18c2.4,4.3,4,8.8,4.6,13.7c1.9,15-5.7,29-18,36.1c-4.1,2.4-8.7,4-13.7,4.6c-67.5,8.4-135.2,3.7-201.2-14
			c-61.7-16.5-119.1-43.6-170.7-80.7c-2.3-1.7-5.6-1.1-7.3,1.2c-1.7,2.3-1.1,5.6,1.2,7.3C647.1,330.3,705.6,358,768.5,374.8"/>
		<path class="st0" d="M638.7,296.9c2.5,1.5,5.7,0.7,7.2-1.7c1.5-2.5,0.7-5.7-1.7-7.2c-10-6.1-19.8-12.5-29.3-19.3
			c-2.4-1.7-5.6-1.1-7.3,1.2c-1.7,2.3-1.1,5.6,1.2,7.3C618.6,284.1,628.5,290.7,638.7,296.9"/>
		<path class="st0" d="M776.6,344.6c-39-10.4-76.7-25.5-112.3-45c-2.5-1.4-5.7-0.5-7.1,2.1c-1.4,2.5-0.5,5.7,2.1,7.1
			c36.3,19.9,74.9,35.3,114.6,45.9c63.7,17.1,130.7,22,197.2,13.7c3.6-0.4,6.9-1.6,9.8-3.3c8.8-5.1,14.2-15.1,12.8-25.8
			c-0.4-3.6-1.6-6.9-3.3-9.8c-5.1-8.8-15.1-14.2-25.8-12.8c-18.6,2.3-37.3,3.5-55.9,3.5c-2.9,0-5.2,2.3-5.2,5.2
			c0,2.9,2.3,5.2,5.2,5.2c19,0,38.1-1.2,57.2-3.6c6.4-0.8,12.4,2.4,15.5,7.7c1,1.8,1.7,3.7,2,5.9c0.8,6.4-2.4,12.4-7.7,15.5
			c-1.8,1-3.7,1.7-5.9,2C904.7,366.2,839.1,361.4,776.6,344.6"/>
		<path class="st0" d="M639.8,248c44.4,30.3,93.5,52.7,144.9,66.4c32.8,8.8,66.5,14.1,100.5,15.7c2.9,0.1,5.3-2.1,5.5-5
			c0.1-2.9-2.1-5.3-5-5.4c-33.3-1.6-66.3-6.8-98.3-15.4c-50.3-13.5-98.2-35.3-141.7-64.9c-2.4-1.6-5.6-1-7.2,1.4
			C636.9,243.2,637.5,246.4,639.8,248"/>
		<path class="st0" d="M623.9,262.4c47.5,33.1,100.1,57.4,155.4,72.2c61.2,16.4,125.5,21.1,189.3,13.2c2.9-0.4,4.9-3,4.5-5.8
			c-0.4-2.9-3-4.9-5.8-4.5l0,0c-62.5,7.8-125.4,3.1-185.3-12.9c-54.1-14.5-105.6-38.3-152.1-70.7c-2.4-1.6-5.6-1.1-7.3,1.3
			C621,257.5,621.6,260.7,623.9,262.4"/>
		<path class="st0" d="M751.8,697.8c-1.2-12.4-2.1-24.7-2.5-37.1c-0.1-2.9-2.5-5.1-5.4-5c-2.9,0.1-5.1,2.5-5,5.4l0,0
			c0.5,12.6,1.3,25.2,2.6,37.7c0.3,2.9,2.8,5,5.7,4.7C750,703.3,752.1,700.7,751.8,697.8"/>
		<path class="st0" d="M713.9,489.3c18.9,32.7,28.3,70.8,25.8,109.9c-0.8,12.8-1.2,25.7-1.2,38.6c0,2.9,2.3,5.2,5.2,5.2
			c2.9,0,5.2-2.3,5.2-5.2c0-12.7,0.4-25.3,1.2-37.9c2.6-41.2-7.3-81.4-27.2-115.8c-19.9-34.4-49.6-63.1-86.7-81.5
			c-29.2-14.5-57.3-31.3-84-50.5c-2.3-1.7-5.6-1.1-7.3,1.2c-1.7,2.3-1.1,5.6,1.2,7.3c27.2,19.5,55.7,36.6,85.4,51.3
			C666.8,429.4,695,456.6,713.9,489.3"/>
		<path class="st0" d="M562.3,597L562.3,597c0.2-3,0.3-6,0.5-9c0.2-3.5-0.5-7.1-2.3-10.2c-1.8-3.1-4.5-5.5-7.7-7.1
			c-2.7-1.3-5.3-2.7-8-4c-2.6-1.3-5.7-0.3-7,2.3c-1.3,2.6-0.3,5.7,2.3,7c2.7,1.4,5.4,2.7,8.1,4.1c1.6,0.8,2.7,1.8,3.3,2.9
			c0.7,1.1,1,2.6,0.9,4.3c-0.2,3-0.4,6.1-0.5,9.1c-0.2,2.9,2.1,5.3,4.9,5.5C559.7,602.1,562.2,599.8,562.3,597"/>
		<path class="st0" d="M582.3,622.9L582.3,622.9c0.2-11.2,0.7-22.5,1.4-33.7c0.5-7.7-1.2-15.3-5-21.9c-3.8-6.6-9.5-11.9-16.5-15.3
			c-10-5-20-10.2-29.8-15.6c-2.5-1.4-5.7-0.5-7.1,2c-1.4,2.5-0.5,5.7,2,7.1c10,5.5,20,10.8,30.2,15.8c5.2,2.6,9.3,6.5,12.1,11.2
			c2.7,4.8,4,10.3,3.7,16c-0.7,11.3-1.2,22.7-1.4,34.1c-0.1,2.9,2.2,5.3,5.1,5.3C579.8,628.1,582.2,625.8,582.3,622.9"/>
		<path class="st0" d="M554.8,530.8c1.4-2.5,0.4-5.7-2.2-7l0,0c-9.3-4.9-18.5-10.1-27.6-15.4c-2.5-1.5-5.7-0.6-7.1,1.9
			c-1.5,2.5-0.6,5.7,1.9,7.1c9.2,5.4,18.6,10.6,28,15.7C550.3,534.3,553.4,533.3,554.8,530.8"/>
		<path class="st0" d="M603,643.4c-0.1-17.7,0.4-35.3,1.5-52.9c0.8-11.8-1.9-23.5-7.8-33.6c-5.4-9.4-13.4-17.1-23-22.4
			c-2.5-1.4-5.7-0.5-7.1,2.1c-1.4,2.5-0.5,5.7,2.1,7.1c8,4.4,14.6,10.7,19,18.5c4.8,8.3,7,17.9,6.4,27.8
			c-1.1,17.8-1.6,35.7-1.5,53.6c0,2.9,2.4,5.2,5.2,5.2C600.7,648.7,603,646.3,603,643.4"/>
		<path class="st0" d="M624.1,659.5c-0.6-22.6-0.3-45.1,1.2-67.6c1-16-2.6-31.7-10.5-45.4c-7.9-13.7-19.7-24.7-34.1-31.8
			c-20.1-10-39.8-20.9-59.1-32.8c-2.5-1.5-5.7-0.7-7.2,1.7c-1.5,2.5-0.8,5.7,1.7,7.2c19.5,12,39.5,23.1,59.9,33.2
			c12.6,6.2,22.8,15.8,29.7,27.7c6.9,11.9,10,25.6,9.2,39.5c-1.4,22.8-1.8,45.7-1.2,68.5c0.1,2.9,2.5,5.1,5.4,5.1
			C621.9,664.8,624.2,662.4,624.1,659.5"/>
		<path class="st0" d="M645.5,672c-1.2-26.3-1-52.6,0.6-78.8c1.3-20.1-3.3-39.9-13.3-57.1C622.8,518.8,608,505,590,496
			c-23.4-11.6-46.3-24.6-68.5-38.8c-2.4-1.6-5.7-0.9-7.2,1.6c-1.6,2.4-0.9,5.6,1.6,7.2c22.5,14.4,45.7,27.6,69.5,39.4
			c16.2,8,29.5,20.5,38.4,36c8.9,15.5,13.1,33.2,11.9,51.3c-1.7,26.5-1.9,53.2-0.6,79.9c0.1,2.9,2.6,5.1,5.5,5
			C643.4,677.3,645.6,674.9,645.5,672"/>
		<path class="st0" d="M641.8,530.9c7.2,12.5,11.9,26.3,13.9,40.5c0.4,2.9,3,4.8,5.9,4.5c2.9-0.4,4.8-3,4.5-5.9
			c-2.1-15.6-7.2-30.6-15.2-44.3c-12-20.9-29.9-37.6-51.6-48.3c-25.9-12.8-51.1-27.4-75.3-43.5c-2.4-1.6-5.6-0.9-7.2,1.5
			c-1.6,2.4-0.9,5.6,1.5,7.2c24.6,16.3,50.2,31.1,76.5,44.2C614.5,496.5,630.8,511.8,641.8,530.9"/>
		<path class="st0" d="M666.9,681.5c-1.8-29-1.8-58.1,0-87c0.2-2.9-2-5.4-4.9-5.5c-2.9-0.2-5.3,2-5.5,4.9c-1.9,29.3-1.9,58.9,0,88.3
			c0.2,2.9,2.7,5.1,5.5,4.9C664.9,686.9,667.1,684.4,666.9,681.5"/>
		<path class="st0" d="M688.3,688.6L688.3,688.6c-2.3-30.9-2.5-62-0.6-92.7c1.8-28.3-4.7-56.2-18.8-80.6c-14.1-24.4-35-44-60.4-56.6
			c-27.5-13.6-54.3-29.3-80-46.8c-2.4-1.6-5.6-1-7.2,1.4c-1.6,2.4-1,5.6,1.4,7.2c26.1,17.8,53.3,33.7,81.2,47.6
			c23.6,11.7,42.9,29.8,56,52.5c13.1,22.6,19.1,48.5,17.4,74.7c-2,31.2-1.8,62.8,0.6,94.1c0.2,2.9,2.7,5,5.6,4.8
			C686.3,693.9,688.5,691.4,688.3,688.6"/>
		<path class="st0" d="M709.6,693.5L709.6,693.5c-2.7-32-3.1-64.3-1.1-96.3c2.1-32.4-5.4-64.4-21.5-92.4
			c-16.2-28-40.1-50.4-69.2-64.9c-28.6-14.2-56.4-30.6-82.8-49c-2.4-1.6-5.6-1.1-7.3,1.3c-1.6,2.4-1.1,5.6,1.3,7.3
			c26.9,18.7,55.1,35.4,84.1,49.8c27.3,13.5,49.7,34.5,64.8,60.7c15.1,26.2,22.1,56.1,20.2,86.5c-2.1,32.5-1.7,65.2,1.1,97.8
			c0.2,2.9,2.8,5,5.6,4.8C707.7,698.8,709.8,696.3,709.6,693.5"/>
		<path class="st0" d="M730.8,696.5c-3-32.6-3.5-65.5-1.4-97.9c2.4-37.2-6.5-73.3-24.3-104.1c-17.8-30.9-44.6-56.5-78-73.1
			c-2.2-1.1-4.3-2.1-6.4-3.2c-2.6-1.3-5.7-0.3-7,2.3c-1.3,2.6-0.3,5.7,2.3,7c2.2,1.1,4.4,2.2,6.5,3.3c31.6,15.7,56.8,39.9,73.6,69
			c16.8,29.1,25.2,63.1,22.9,98.2c-2.1,33-1.6,66.4,1.5,99.6c0.3,2.9,2.8,5,5.7,4.7C728.9,701.9,731,699.3,730.8,696.5"/>
		<path class="st0" d="M594.7,416c2.5,1.4,5.7,0.5,7.1-2c1.4-2.5,0.5-5.7-2-7.1c-19.5-10.9-38.5-22.9-56.9-35.9
			c-2.3-1.7-5.6-1.1-7.3,1.3c-1.7,2.3-1.1,5.6,1.2,7.3l0,0C555.5,392.8,574.8,405,594.7,416"/>
		<path class="st0" d="M854.7,453.5c2.9,0.3,5.4-1.9,5.7-4.7c0.3-2.9-1.9-5.4-4.7-5.7c-33.8-3-67.4-9-100.6-17.9
			c-69.6-18.7-134.1-49.3-192.2-91.2c-2.3-1.7-5.6-1.2-7.3,1.2c-1.7,2.3-1.2,5.6,1.2,7.3c59.1,42.6,124.8,73.8,195.6,92.8
			C786.1,444.3,820.3,450.4,854.7,453.5"/>
		<path class="st0" d="M752.8,408.4c0.8-2.8-0.8-5.7-3.6-6.5c-63.1-18.3-121.7-46.9-174.7-85.2c-2.3-1.7-5.6-1.2-7.3,1.2
			c-1.7,2.3-1.2,5.6,1.2,7.3c54,39,113.7,68.2,177.9,86.8C749.1,412.7,751.9,411.2,752.8,408.4"/>
		<path class="st0" d="M771.5,407.9c-2.8-0.7-5.6,1-6.3,3.8c-0.7,2.8,1,5.6,3.8,6.3c68.9,17,139.5,21.2,209.9,12.5
			c12.1-1.5,23.3-5.4,33.3-11.1c6.1-3.5,11.7-7.8,16.8-12.6c2.1-2,2.2-5.3,0.2-7.4c-2-2.1-5.3-2.2-7.4-0.2c-4.5,4.2-9.4,8-14.8,11.1
			c-8.8,5.1-18.7,8.5-29.3,9.8C908.4,428.8,839.2,424.6,771.5,407.9"/>
		<path class="st0" d="M1055.9,331.7c-1.5-11.8-5.3-23.1-11.2-33.4c-17.8-30.9-52.3-48-87.7-43.6c-43.1,5.3-86.2,3.7-128.7-4.9
			c-2.8-0.6-5.6,1.2-6.1,4.1c-0.6,2.8,1.2,5.6,4.1,6.1c43.5,8.8,87.8,10.5,132,5c31.2-3.9,61.6,11.2,77.3,38.5
			c5.2,9.1,8.6,19,9.9,29.5c2.2,17.6-1.7,34.6-10.1,48.9c-1.5,2.5-0.6,5.7,1.9,7.1c2.5,1.4,5.7,0.6,7.1-1.9
			C1053.9,371,1058.4,351.7,1055.9,331.7"/>
		<path class="st0" d="M691.9,207.2L691.9,207.2c33.7,20.7,70.3,36.4,109,46.8c0.8,0.2,1.5,0.4,2.2,0.6c2.8,0.7,5.6-0.9,6.4-3.7
			c0.7-2.8-0.9-5.6-3.7-6.4c-0.7-0.2-1.5-0.4-2.2-0.6c-37.8-10.1-73.3-25.4-106.2-45.6c-2.5-1.5-5.7-0.7-7.2,1.7
			C688.7,202.5,689.4,205.7,691.9,207.2"/>
		<path class="st0" d="M1038.3,604.4c-0.7-2.8-3.5-4.5-6.3-3.8c-10.2,2.5-20.6,4.5-31.2,5.8c-18.9,2.3-37.8,3.9-56.6,4.9
			c-2.7,0.1-5.2,0.8-7.5,1.9c-2.6,1.3-3.6,4.4-2.4,7c1.3,2.6,4.4,3.6,7,2.4c1-0.5,2.1-0.8,3.4-0.9c19.1-0.9,38.3-2.6,57.4-4.9
			c11-1.4,21.9-3.4,32.4-6C1037.3,610,1039,607.2,1038.3,604.4"/>
		<path class="st0" d="M896.2,673.2L896.2,673.2c-1.3-17.2-1.6-34.5-1-51.6c0.3-7.6,2.6-14.4,6.4-20.3c3.8-5.9,9.1-10.9,15.4-14.6
			c6.7-3.9,14.5-6.2,22.7-6.6c19.1-0.8,38.1-2.5,57.2-4.8c31.9-4,61.6-14.3,87.9-29.5c79.2-45.7,127.8-135.9,115.9-232.3
			c-3.9-31.3-13.9-61-29.6-88.3c-47.2-81.8-138.3-127.1-232-115.5c-25.8,3.2-51.7,2.5-77.2-2.2c-2.8-0.5-5.5,1.4-6.1,4.2
			c-0.5,2.8,1.4,5.6,4.2,6.1c26.5,4.9,53.5,5.6,80.3,2.3c89.6-11.1,176.6,32.2,221.7,110.4c15,26.1,24.5,54.4,28.3,84.3
			c11.4,92.1-35.1,178.3-110.7,222c-25.1,14.5-53.5,24.3-84,28.1c-18.8,2.3-37.6,3.9-56.4,4.8c-9.9,0.4-19.3,3.3-27.4,8
			c-7.7,4.4-14.2,10.5-19,18c-4.8,7.4-7.7,16.1-8,25.6c-0.6,17.5-0.3,35.2,1,52.8c0.2,2.9,2.7,5,5.6,4.8
			C894.3,678.6,896.4,676.1,896.2,673.2"/>
		<path class="st0" d="M984,471.9c17.7-2.2,34.3-7.9,48.9-16.4c44-25.4,71-75.5,64.4-129c-2.2-17.4-7.7-33.9-16.5-49
			c-16.8-29-43.5-49.8-74.1-59.3c-2.8-0.9-5.7,0.7-6.5,3.4c-0.8,2.7,0.7,5.7,3.4,6.5c28.2,8.8,52.8,27.9,68.2,54.6
			c8,13.9,13.1,29.1,15.1,45.1c6.1,49.2-18.8,95.4-59.2,118.7c-13.4,7.8-28.6,13-44.9,15.1c-13.9,1.7-27.9,3-41.8,3.7
			c-32.4,1.8-64.7,10.7-91.7,26.3c-13.9,8-26.4,17.8-36.8,29.4c-1.9,2.1-1.7,5.4,0.4,7.4c2.1,1.9,5.4,1.7,7.4-0.4
			c9.6-10.7,21.2-19.8,34.3-27.3c25.4-14.7,56.3-23.2,87.1-24.9C955.7,474.9,969.8,473.7,984,471.9"/>
		<path class="st0" d="M793.6,696.3c-3.6-35.2-3.9-70.4-1-105.3c1.4-16.8,6.4-31.7,14.2-44.9c1.5-2.5,0.6-5.7-1.8-7.1
			c-2.5-1.5-5.7-0.6-7.1,1.8c-8.6,14.5-14.1,31.1-15.6,49.4c-3,35.6-2.7,71.5,1,107.3c0.3,2.9,2.9,4.9,5.7,4.6
			C791.8,701.7,793.9,699.2,793.6,696.3"/>
		<path class="st0" d="M814.3,693.7L814.3,693.7c-3.3-32-3.7-63.9-1.3-95.7c1.3-17.9,7.4-33.6,16.8-47c9.4-13.5,22.4-24.7,37.5-33.4
			c21.4-12.3,47.1-19.6,73-20.9c15.4-0.8,30.9-2.1,46.3-4.1c20.6-2.6,39.7-9.2,56.7-19c51-29.5,82.3-87.6,74.7-149.7
			c-2.5-20.1-9-39.3-19.1-56.9c-30.4-52.7-89.1-81.9-149.5-74.5c-43.4,5.4-87,2.4-129.6-9c-21.8-5.8-42.7-13.7-62.6-23.5
			c-2.6-1.3-5.7-0.2-7,2.4c-1.3,2.6-0.2,5.7,2.4,7c20.5,10.1,42.1,18.2,64.5,24.3c43.8,11.7,88.8,14.9,133.5,9.3
			c56.3-7,110.9,20.2,139.2,69.3c9.4,16.4,15.4,34.2,17.8,52.9c7.1,57.8-22,111.9-69.6,139.4c-15.8,9.1-33.6,15.3-52.7,17.7
			c-15.2,1.9-30.4,3.2-45.6,4c-27.5,1.4-54.7,9-77.7,22.3c-16.2,9.4-30.3,21.6-40.8,36.5c-10.5,14.9-17.2,32.5-18.7,52.3
			c-2.4,32.4-2,65,1.4,97.5c0.3,2.9,2.9,4.9,5.7,4.7C812.5,699.1,814.6,696.6,814.3,693.7"/>
		<path class="st0" d="M834.9,690.1c-2.8-28.4-3.3-56.7-1.5-85c1-15.6,6.1-29.4,14.3-41.3c8.2-11.9,19.4-21.8,32.6-29.4
			c11.2-6.5,23.9-11.2,37.1-14c2.8-0.6,4.6-3.4,4-6.2c-0.6-2.8-3.4-4.6-6.2-4c-14.3,3-27.9,8.1-40.1,15.2
			c-14.3,8.3-26.8,19.2-35.9,32.6c-9.2,13.3-15,29-16.1,46.6c-1.8,28.8-1.3,57.7,1.5,86.6c0.3,2.9,2.8,5,5.7,4.7
			C833.1,695.5,835.2,692.9,834.9,690.1"/>
		<path class="st0" d="M875.8,679.7c-1.8-21.1-2.2-42.2-1.3-63.1c0.5-10.4,3.7-19.7,9-27.7c5.3-8,12.7-14.8,21.4-19.8
			c10-5.8,21.7-9.2,33.8-9.8c18.5-0.8,37-2.4,55.5-4.7c0,0,0,0,0,0c29.1-3.6,56.2-13,80.1-26.8c5.3-3.1,10.5-6.3,15.5-9.8
			c2.4-1.7,2.9-4.9,1.3-7.3c-1.6-2.4-4.9-2.9-7.3-1.3c-4.8,3.3-9.7,6.4-14.7,9.4c-22.8,13.2-48.5,22.1-76.2,25.5
			c-18.2,2.3-36.5,3.8-54.7,4.6c-13.8,0.6-27.1,4.5-38.6,11.2c-10,5.8-18.6,13.6-24.8,23.1c-6.3,9.5-10.2,20.7-10.7,33
			c-1,21.4-0.6,43,1.3,64.5c0.2,2.9,2.8,5,5.6,4.7C873.9,685.1,876.1,682.6,875.8,679.7"/>
		<path class="st0" d="M855.4,685.4c-2.3-24.8-2.8-49.6-1.4-74.3c0.7-13,4.9-24.6,11.7-34.6c6.8-10,16.1-18.4,27.1-24.7
			c13.5-7.8,29.6-12.5,46-13.3c17.7-0.8,35.4-2.3,53-4.5c26.3-3.3,50.7-11.7,72.3-24.2c42.7-24.7,74.5-65,88.7-112.2
			c0.8-2.8-0.7-5.7-3.5-6.5c-2.8-0.8-5.7,0.7-6.5,3.5c-13.4,44.6-43.5,82.9-83.9,106.2c-20.5,11.8-43.5,19.8-68.4,22.9
			c-17.4,2.2-34.8,3.6-52.2,4.4c-18.1,0.8-35.7,5.9-50.8,14.6c-12.2,7-22.7,16.5-30.5,27.9c-7.7,11.4-12.6,25-13.4,39.9
			c-1.4,25.2-0.9,50.5,1.4,75.8c0.3,2.9,2.8,5,5.7,4.7C853.5,690.8,855.6,688.2,855.4,685.4"/>
		<path class="st0" d="M827.1,131.5c2.1,0.6,4.1,1.2,6.2,1.7c20.4,5.5,41,8.7,61.8,9.6c2.9,0.1,5.3-2.1,5.4-5c0.1-2.9-2.1-5.3-5-5.4
			c-20-0.9-39.9-4-59.6-9.2c-2-0.5-4-1.1-6-1.7c-2.8-0.8-5.7,0.8-6.5,3.5C822.7,127.8,824.3,130.6,827.1,131.5"/>
		<path class="st0" d="M937,657.7L937,657.7c-0.3-6.7-0.5-13.3-0.4-19.9c0-2.9-2.3-5.2-5.2-5.2c-2.9,0-5.2,2.3-5.2,5.2
			c0,6.8,0.1,13.6,0.4,20.4c0.1,2.9,2.6,5.1,5.4,5C934.9,663,937.1,660.6,937,657.7"/>
		<path class="st0" d="M986.4,634.2c-0.3-2.9-2.8-5-5.7-4.7c-9.6,0.9-19.1,1.6-28.7,2.2c-2.7,0.2-4.9,2.4-4.9,5.2c0,4,0,8,0.1,12
			c0.1,2.9,2.5,5.2,5.3,5.1c2.9-0.1,5.2-2.5,5.1-5.3l0,0c-0.1-2.3-0.1-4.6-0.1-6.9c8-0.5,16.1-1.1,24.1-1.9
			C984.6,639.6,986.7,637.1,986.4,634.2"/>
	</g>
	<g>
		<path class="st0" d="M904.2,96.2c0,2.9,2.4,5.2,5.3,5.2l0,0c9.4-0.1,18.9-0.7,28.3-1.9c50.6-6.3,100.4,3.3,143.6,25.9
			c2.6,1.3,5.7,0.3,7-2.2c1.3-2.6,0.3-5.7-2.2-7c-45-23.5-97-33.5-149.7-27c-9,1.1-18.1,1.7-27.1,1.8
			C906.5,90.9,904.2,93.3,904.2,96.2"/>
		<path class="st0" d="M754.4,534.1c0.5,2.1,2.4,3.7,4.5,3.9c2.2,0.2,4.3-1,5.2-3c3.7-7.9,8.1-15.3,13.1-22.2
			c12.6-17.4,28.8-31.6,47.1-43.1c1.9-1.2,2.8-3.4,2.3-5.5c-0.5-2.1-2.2-3.8-4.4-4.1c-24.4-3.5-48.7-8.4-72.8-14.8
			c-13.2-3.5-26.2-7.5-39-11.8c-2.7-0.9-5.7,0.5-6.6,3.3c-0.9,2.7,0.5,5.7,3.3,6.6c13,4.4,26.2,8.4,39.6,12
			c20.2,5.4,40.5,9.7,60.9,13c-14.8,10.7-28.1,23.4-38.9,38.3c-2.8,3.9-5.5,8-8,12.2c-4.8-15.1-11.1-29.6-18.8-43.3
			c4.6,1.2,9.1,2.4,13.7,3.5c1.6,3.1,3.1,6.2,4.5,9.3c0.7,1.6,2.3,2.7,4,3c1.8,0.2,3.5-0.4,4.7-1.8c2.4-2.8,5-5.6,7.6-8.3
			c1.3-1.4,1.8-3.3,1.3-5.1c-0.5-1.8-2-3.2-3.9-3.6c-10-2.2-19.9-4.6-29.8-7.2c-4-1.1-7.9-2.2-11.8-3.3c-2.1-0.6-4.3,0.2-5.6,1.9
			c-1.3,1.7-1.4,4.1-0.2,5.9c1.9,2.9,3.7,5.8,5.4,8.8l0,0C741.9,496.1,749.5,514.7,754.4,534.1"/>
		<path class="st0" d="M916.6,665.9L916.6,665.9c-0.8-13.3-1.1-26.5-0.7-39.8c0.3-9.2,5.4-17,13.1-21.5c3.8-2.2,8.1-3.5,12.7-3.7
			c19.3-0.9,38.5-2.5,57.8-4.9c34.8-4.3,67.1-15.5,95.7-32.1c86.3-49.8,139.1-148,126.2-253c-4.3-34.1-15.1-66.5-32.3-96.1
			c-20.6-35.7-48.9-65-81.9-86.5c-2.4-1.6-5.6-0.9-7.2,1.5c-1.6,2.4-0.9,5.6,1.5,7.2c31.7,20.6,58.8,48.7,78.6,83
			c16.4,28.5,26.8,59.4,30.9,92.2c12.4,100.7-38.3,194.9-121,242.7c-27.5,15.9-58.4,26.6-91.8,30.8c-19,2.4-38,4-57,4.8
			c-6.3,0.3-12.3,2.1-17.5,5.1c-10.5,6.1-17.9,17.2-18.3,30.2c-0.4,13.6-0.1,27.1,0.7,40.7c0.2,2.9,2.7,5.1,5.5,4.9
			C914.6,671.2,916.8,668.7,916.6,665.9"/>
		<path class="st0" d="M772.8,697.7c-3.9-38.3-4-76.6-0.4-114.6c2.1-22.2,9.9-41.5,21.8-57.9c11.9-16.5,28.1-30.2,46.9-41
			c29.9-17.3,66.6-27.2,102.9-29.4c12.5-0.8,25-1.9,37.5-3.5c0,0,0,0,0,0c14.9-1.9,28.8-6.7,41.1-13.8c37-21.3,59.6-63.4,54.1-108.4
			c-1.8-14.6-6.5-28.5-13.8-41.2c-22-38.2-64.6-59.4-108.3-53.9c-48.8,6.1-97.8,2.7-145.5-10.1c-32.7-8.8-63.6-21.6-92.4-38.3
			c-2.5-1.4-5.7-0.6-7.1,1.9c-1.4,2.5-0.6,5.7,1.9,7.1c29.6,17.2,61.4,30.3,95,39.3c49,13.1,99.3,16.6,149.5,10.4
			c39.6-4.9,78,14.2,98,48.8c6.6,11.5,10.8,24,12.5,37.3c5,40.7-15.5,78.7-48.9,98.1c-11.1,6.4-23.6,10.8-37.1,12.4
			c-12.3,1.5-24.6,2.7-36.9,3.4c-37.7,2.3-75.8,12.5-107.4,30.8c-19.8,11.4-37.1,26.1-50.1,44c-13,17.9-21.5,39-23.8,63.1
			c-3.7,38.7-3.5,77.7,0.4,116.6c0.3,2.9,2.8,4.9,5.7,4.7C771,703.1,773.1,700.6,772.8,697.7"/>
	</g>
</g>
</svg>
