<?xml version="1.0" encoding="utf-8"?>
<!-- Generator: Adobe Illustrator 23.0.3, SVG Export Plug-In . SVG Version: 6.00 Build 0)  -->
<svg version="1.1" id="Layer_1" xmlns="http://www.w3.org/2000/svg" xmlns:xlink="http://www.w3.org/1999/xlink" x="0px" y="0px"
	 viewBox="0 0 2031.4 502.4" style="enable-background:new 0 0 2031.4 502.4;" xml:space="preserve">
<style type="text/css">
	.st0{fill:#FFFFFF;}
</style>
<g>
	<path class="st0" d="M253.3,127c35.3,0,60.9,11.9,84.7,32.5c3.1,2.8,3.1,7,0.4,9.8L323,185.1c-2.5,3.2-5.6,3.2-8.7,0
		c-16.5-14.4-38.9-23.4-60.6-23.4c-50,0-87.9,42-87.9,91s38.2,90.6,88.2,90.6c25.6,0,43.4-10.1,60.2-23.1c3.1-2.4,6.3-2.1,8.4-0.3
		l16.1,15.8c2.8,2.4,2.1,7-0.3,9.4c-23.8,23.1-53.9,33.9-85.1,33.9c-70,0-126.4-55.6-126.4-125.6S183.3,127,253.3,127z"/>
	<path class="st0" d="M382.8,133.3c0-3.5,3.1-6.3,6.6-6.3h8.8l151.9,175.7h0.3V137.1c0-3.5,2.8-6.6,6.6-6.6h22.4
		c3.5,0,6.7,3.1,6.7,6.6v235.5c0,3.5-3.2,6.3-6.7,6.3h-9.1L418.5,198.4h-0.4v170.4c0,3.5-2.8,6.6-6.6,6.6h-22.1
		c-3.5,0-6.6-3.2-6.6-6.6V133.3z"/>
	<path class="st0" d="M839.1,127c33.6,0,61.3,12.3,85.1,32.5c2.8,2.8,3.1,7,0.4,9.8c-5.3,5.6-10.5,10.8-15.8,16.5
		c-2.8,3.2-5.6,2.8-9.1-0.3c-16.5-14.4-38.2-23.8-59.5-23.8c-49.7,0-87.8,42-87.8,91c0,48.6,38.2,90.6,87.8,90.6
		c29.1,0,49-10.5,52.5-11.9v-39.2h-34.3c-3.9,0-6.7-2.8-6.7-6.3v-20.3c0-3.9,2.8-6.7,6.7-6.7H922c3.5,0,6.3,3.2,6.3,6.7
		c0,28,0.4,56.7,0.4,84.7c0,1.7-1.4,4.5-2.8,5.6c0,0-36.1,23.1-86.8,23.1c-69.6,0-126-55.6-126-125.6S769.4,127,839.1,127z"/>
	<path class="st0" d="M982.8,137.1c0-3.5,2.8-6.6,6.6-6.6h95.2c42,0,76.3,33.2,76.3,74.9c0,32.2-21.4,58.8-51.8,71.1l47.9,88.9
		c2.5,4.5,0,10.1-5.9,10.1h-27.3c-2.8,0-4.9-1.8-5.6-3.2l-46.5-92.7h-52.8v89.3c0,3.5-3.2,6.6-6.6,6.6h-22.8c-3.8,0-6.6-3.2-6.6-6.6
		V137.1z M1081.9,249.5c22.8,0,42.7-19.2,42.7-43.4c0-22.7-19.9-41.6-42.7-41.6h-62.3v85H1081.9z"/>
	<path class="st0" d="M1487.8,137.1c0-3.5,3.2-6.6,6.6-6.6h23.5c3.8,0,6.6,3.1,6.6,6.6v144.5c0,35,22.4,62.3,58.1,62.3
		c36.1,0,58.8-26.9,58.8-61.6V137.1c0-3.5,2.8-6.6,6.6-6.6h23.5c3.5,0,6.6,3.1,6.6,6.6v147c0,53.2-40.2,94.9-95.5,94.9
		c-54.9,0-94.8-41.7-94.8-94.9V137.1z"/>
	<path class="st0" d="M1739.3,137.1c0-3.5,2.8-6.6,6.6-6.6h79.8c43,0,78.4,35,78.4,77.3c0,43.4-35.4,78.7-78,78.7h-50.7v82.3
		c0,3.5-3.1,6.6-6.7,6.6H1746c-3.8,0-6.6-3.2-6.6-6.6V137.1z M1823.7,252.3c24.2,0,44.5-19.6,44.5-44.8c0-23.8-20.3-42-44.5-42
		h-48.3v86.8H1823.7z"/>
	<g>
		<circle class="st0" cx="1391.1" cy="329.1" r="18.1"/>
		<path class="st0" d="M1317.4,378.8c-57.7,1.2-110.7-37.8-124.8-96.1c-16.4-67.4,25.1-135.7,92.6-152.1
			c32.7-7.9,66.5-2.7,95.2,14.8c28.7,17.5,48.9,45.1,56.9,77.8c4.7,19.5,4.7,40,0,59.4c-2.4,9.7-12.2,15.7-21.9,13.4
			c-9.7-2.4-15.7-12.2-13.4-21.9c3.4-14,3.4-28.2,0-42.2c-5.7-23.3-20-42.9-40.5-55.4c-20.4-12.4-44.5-16.2-67.8-10.5
			c-48,11.7-77.6,60.2-65.9,108.2c11.7,48,60.2,77.5,108.2,65.9c9.8-2.4,19.6,3.6,21.9,13.4c2.4,9.7-3.6,19.5-13.3,21.9
			C1335.6,377.5,1326.4,378.7,1317.4,378.8z"/>
	</g>
</g>
</svg>
