<?xml version="1.0" encoding="utf-8"?>
<!-- Generator: Adobe Illustrator 21.0.2, SVG Export Plug-In . SVG Version: 6.00 Build 0)  -->
<svg version="1.1" id="Layer_1" xmlns="http://www.w3.org/2000/svg" xmlns:xlink="http://www.w3.org/1999/xlink" x="0px" y="0px"
	 viewBox="0 0 818 818" style="enable-background:new 0 0 818 818;" xml:space="preserve">
<style type="text/css">
	.st0{fill:#EFEFEF;}
</style>
<g>
	<g>
		<path class="st0" d="M170.3,167.2c29.9,22.7,55.6,51.4,75.1,85.2c19.2,33.3,31.4,69.6,36.2,107.9c0.4,2.9,3,4.9,5.8,4.5
			c2.9-0.4,4.9-3,4.5-5.8c-5-39.6-17.6-77.3-37.5-111.8c-20.2-35.1-46.9-64.9-77.8-88.3c-2.3-1.7-5.6-1.3-7.3,1
			C167.6,162.1,168,165.4,170.3,167.2"/>
		<polygon class="st0" points="260.2,433.6 260.2,433.6 260.2,433.6 		"/>
		<path class="st0" d="M252.1,470.8c-0.8,2.8,0.8,5.7,3.5,6.5c2.8,0.8,5.7-0.8,6.5-3.5c3.7-12.6,6.6-25.5,8.5-38.6
			c0.4-2.8-1.6-5.5-4.4-5.9c-2.9-0.4-5.5,1.6-5.9,4.4C258.4,446.3,255.6,458.7,252.1,470.8"/>
		<path class="st0" d="M60.6,137.5c69.1,16.9,129.8,61.3,166.8,125.3c17.8,30.9,29.1,64.5,33.6,100c2,16.2,2.5,32.2,1.6,48
			c-0.2,2.9,2,5.3,4.9,5.5c2.9,0.2,5.3-2,5.5-4.9c0.9-16.4,0.4-33-1.7-49.9c-4.6-36.9-16.4-71.9-34.9-103.9
			C198,191.1,134.9,145,63.1,127.4c-2.8-0.7-5.6,1-6.3,3.8C56.1,134,57.8,136.8,60.6,137.5"/>
		<path class="st0" d="M-52.6,196c8.2-0.3,16.4-1,24.7-2c81.3-10.1,160.1,29.2,201.1,100.1c13.6,23.6,22.3,49.3,25.7,76.5
			c8.6,69.3-19,135-67.9,178c-2.2,1.9-2.4,5.2-0.5,7.4c1.9,2.2,5.2,2.4,7.4,0.5c51.4-45.2,80.3-114.2,71.3-187.1
			c-3.6-28.5-12.7-55.6-27-80.4c-43-74.5-126-115.8-211.4-105.2c-7.9,1-15.9,1.6-23.8,1.9c-2.9,0.1-5.1,2.5-5,5.4
			C-57.9,193.8-55.4,196.1-52.6,196"/>
		<path class="st0" d="M-171.3,197.4c9.3,3.5,18.7,6.5,28.4,9.1c38.6,10.3,78.2,13.1,117.6,8.2c72.9-9,143.7,26.2,180.5,89.8
			c12.2,21.2,20,44.3,23,68.7c2.2,18,1.7,35.7-1.1,52.7c-0.5,2.8,1.4,5.5,4.3,6c2.8,0.5,5.5-1.4,6-4.3c3-18,3.5-36.7,1.2-55.7
			c-3.2-25.7-11.4-50.2-24.3-72.6c-38.8-67.2-113.7-104.5-190.8-95c-38.1,4.7-76.3,2.1-113.6-7.9c-9.3-2.5-18.5-5.4-27.5-8.8
			c-2.7-1-5.7,0.4-6.7,3.1C-175.4,193.4-174,196.4-171.3,197.4"/>
		<path class="st0" d="M167.8,374.5c-2.5-20.4-8.6-39.8-18-57.9c-1.3-2.6-4.5-3.6-7-2.2c-2.6,1.3-3.6,4.5-2.2,7
			c8.8,17,14.5,35.2,16.9,54.4c8.2,66.4-25.3,128.5-79.8,160c-18.1,10.4-38.5,17.5-60.6,20.3c-16.3,2-32.5,3.4-48.8,4.2
			c-2.9,0.1-5.1,2.6-5,5.5c0.1,2.9,2.6,5.1,5.5,5c16.5-0.8,33-2.2,49.5-4.3c23.4-2.9,45.2-10.5,64.5-21.6
			C141,511.3,176.6,445.2,167.8,374.5"/>
		<path class="st0" d="M-195.7,210L-195.7,210c15.2,6.7,31,12.2,47.4,16.6c41.2,11,83.5,14,125.6,8.7C36.7,228,94.6,253.9,128.8,302
			c1.7,2.3,4.9,2.9,7.3,1.2c2.3-1.7,2.9-4.9,1.2-7.3c-36.4-51.2-98.1-78.8-161.3-71c-40.8,5.1-81.7,2.2-121.6-8.5
			c-15.8-4.2-31.1-9.6-45.9-16.1c-2.6-1.2-5.7,0-6.9,2.7C-199.5,205.8-198.3,208.9-195.7,210"/>
		<path class="st0" d="M-239.4,235L-239.4,235c25.3,13.6,52.1,24.3,80.3,31.9c46.4,12.4,94.1,15.8,141.5,9.8
			c9.7-1.2,19.3-1.2,28.6-0.1c2.9,0.3,5.4-1.7,5.8-4.6c0.3-2.9-1.7-5.4-4.6-5.8c-10.2-1.2-20.6-1.2-31.1,0.1
			c-46.1,5.7-92.4,2.5-137.5-9.6c-27.4-7.3-53.5-17.7-78-31c-2.5-1.4-5.7-0.4-7.1,2.1C-242.9,230.5-242,233.7-239.4,235"/>
		<path class="st0" d="M5.5,463c9.2-1.2,17.8-4.1,25.4-8.5c22.9-13.2,36.9-39.2,33.5-67c-1.1-9-4-17.7-8.6-25.5
			c-13.6-23.6-40-36.8-67-33.4c-54.2,6.7-108.5,2.9-161.4-11.3c-42.4-11.4-82.1-28.9-118.6-52.3c-2.4-1.6-5.6-0.8-7.2,1.6
			c-1.6,2.4-0.8,5.6,1.6,7.2c37.4,24,78.1,41.9,121.5,53.5c54.2,14.5,109.9,18.4,165.4,11.5c22.9-2.8,45.1,8.2,56.7,28.2
			c3.9,6.7,6.3,13.9,7.2,21.6c2.9,23.5-9,45.6-28.3,56.7c-6.4,3.7-13.7,6.2-21.5,7.2c-70.2,8.7-140.6,3.8-209.2-14.6
			c-64.7-17.3-124.8-45.8-178.8-84.8c-2.3-1.7-5.6-1.2-7.3,1.2c-1.7,2.3-1.2,5.6,1.2,7.3c55,39.7,116.3,68.8,182.2,86.4
			C-137.8,466.9-66.1,471.9,5.5,463"/>
		<path class="st0" d="M-202.3,428C-135,446-66,450.9,2.9,442.3c6.4-0.8,12.3-2.9,17.6-5.9c15.8-9.1,25.5-27.1,23.2-46.4
			c-0.8-6.3-2.8-12.2-5.9-17.7c-9.4-16.4-27.7-25.4-46.4-23.1c-56.9,7-113.8,3.1-169.4-11.8c-46.8-12.5-90.6-32.3-130.5-58.8
			c-2.4-1.6-5.6-0.9-7.2,1.5c-1.6,2.4-0.9,5.6,1.5,7.2l0,0c40.9,27.2,85.7,47.4,133.6,60.2c56.8,15.2,115.2,19.3,173.4,12.1
			c14.6-1.8,28.7,5.2,36.1,18c2.4,4.3,4,8.8,4.6,13.7c1.9,15-5.7,29-18,36.1c-4.1,2.4-8.7,4-13.7,4.6c-67.5,8.4-135.2,3.7-201.2-14
			c-61.7-16.5-119.1-43.6-170.7-80.7c-2.3-1.7-5.6-1.1-7.3,1.2c-1.7,2.3-1.1,5.6,1.2,7.3C-323.7,383.5-265.2,411.1-202.3,428"/>
		<path class="st0" d="M-332.1,350c2.5,1.5,5.7,0.7,7.2-1.7c1.5-2.5,0.7-5.7-1.7-7.2c-10-6.1-19.8-12.5-29.3-19.3
			c-2.4-1.7-5.6-1.1-7.3,1.2c-1.7,2.3-1.1,5.6,1.2,7.3C-352.2,337.3-342.3,343.8-332.1,350"/>
		<path class="st0" d="M-194.2,397.8c-39-10.4-76.7-25.5-112.3-45c-2.5-1.4-5.7-0.5-7.1,2.1c-1.4,2.5-0.5,5.7,2.1,7.1
			c36.3,19.9,74.9,35.3,114.6,45.9c63.7,17.1,130.7,22,197.2,13.7c3.6-0.4,6.9-1.6,9.8-3.3c8.8-5.1,14.2-15.1,12.8-25.8
			c-0.4-3.6-1.6-6.9-3.3-9.8c-5.1-8.8-15.1-14.2-25.8-12.8c-18.6,2.3-37.3,3.5-55.9,3.5c-2.9,0-5.2,2.3-5.2,5.2
			c0,2.9,2.3,5.2,5.2,5.2c19,0,38.1-1.2,57.2-3.6c6.4-0.8,12.4,2.4,15.5,7.7c1,1.8,1.7,3.7,2,5.9c0.8,6.4-2.4,12.4-7.7,15.5
			c-1.8,1-3.7,1.7-5.9,2C-66.1,419.3-131.8,414.5-194.2,397.8"/>
		<path class="st0" d="M-331,301.2c44.4,30.3,93.5,52.7,144.9,66.4c32.8,8.8,66.5,14.1,100.5,15.7c2.9,0.1,5.3-2.1,5.5-5
			c0.1-2.9-2.1-5.3-5-5.4c-33.3-1.6-66.3-6.8-98.3-15.4c-50.3-13.5-98.2-35.3-141.7-64.9c-2.4-1.6-5.6-1-7.2,1.4
			C-333.9,296.3-333.3,299.5-331,301.2"/>
		<path class="st0" d="M-346.9,315.5c47.5,33.1,100.1,57.4,155.4,72.2c61.2,16.4,125.5,21.1,189.3,13.2c2.9-0.4,4.9-3,4.5-5.8
			c-0.4-2.9-3-4.9-5.8-4.5l0,0c-62.5,7.8-125.4,3.1-185.3-12.9c-54.1-14.5-105.6-38.3-152.1-70.7c-2.4-1.6-5.6-1.1-7.3,1.3
			C-349.8,310.6-349.2,313.9-346.9,315.5"/>
		<path class="st0" d="M-219,751c-1.2-12.4-2.1-24.7-2.5-37.1c-0.1-2.9-2.5-5.1-5.4-5c-2.9,0.1-5.1,2.5-5,5.4l0,0
			c0.5,12.6,1.3,25.2,2.6,37.7c0.3,2.9,2.8,5,5.7,4.7C-220.8,756.4-218.7,753.9-219,751"/>
		<path class="st0" d="M-256.9,542.4c18.9,32.7,28.3,70.8,25.8,109.9c-0.8,12.8-1.2,25.7-1.2,38.6c0,2.9,2.3,5.2,5.2,5.2
			c2.9,0,5.2-2.3,5.2-5.2c0-12.7,0.4-25.3,1.2-37.9c2.6-41.2-7.3-81.4-27.2-115.8c-19.9-34.4-49.6-63.1-86.7-81.5
			c-29.2-14.5-57.3-31.3-84-50.5c-2.3-1.7-5.6-1.1-7.3,1.2c-1.7,2.3-1.1,5.6,1.2,7.3c27.2,19.5,55.7,36.6,85.4,51.3
			C-304,482.5-275.8,509.7-256.9,542.4"/>
		<path class="st0" d="M-408.5,650.1L-408.5,650.1c0.2-3,0.3-6,0.5-9c0.2-3.5-0.5-7.1-2.3-10.2c-1.8-3.1-4.5-5.5-7.7-7.1
			c-2.7-1.3-5.3-2.7-8-4c-2.6-1.3-5.7-0.3-7,2.3c-1.3,2.6-0.3,5.7,2.3,7c2.7,1.4,5.4,2.7,8.1,4.1c1.6,0.8,2.7,1.8,3.3,2.9
			c0.7,1.1,1,2.6,0.9,4.3c-0.2,3-0.4,6.1-0.5,9.1c-0.1,2.9,2.1,5.3,4.9,5.5C-411.1,655.2-408.6,653-408.5,650.1"/>
		<path class="st0" d="M-388.5,676.1L-388.5,676.1c0.2-11.2,0.7-22.5,1.4-33.7c0.5-7.7-1.2-15.3-5-21.9c-3.8-6.6-9.5-11.9-16.5-15.3
			c-10-5-20-10.2-29.8-15.6c-2.5-1.4-5.7-0.5-7.1,2c-1.4,2.5-0.5,5.7,2,7.1c10,5.5,20,10.8,30.2,15.8c5.2,2.6,9.3,6.5,12.1,11.2
			c2.7,4.8,4,10.3,3.7,16c-0.7,11.3-1.2,22.7-1.4,34.1c-0.1,2.9,2.2,5.3,5.1,5.3C-391,681.2-388.6,679-388.5,676.1"/>
		<path class="st0" d="M-416,583.9c1.4-2.5,0.4-5.7-2.2-7l0,0c-9.3-4.9-18.5-10.1-27.6-15.4c-2.5-1.5-5.7-0.6-7.1,1.9
			c-1.5,2.5-0.6,5.7,1.9,7.1c9.2,5.4,18.6,10.6,28,15.7C-420.5,587.4-417.4,586.4-416,583.9"/>
		<path class="st0" d="M-367.8,696.6c-0.1-17.7,0.4-35.3,1.5-52.9c0.8-11.8-1.9-23.5-7.8-33.6c-5.4-9.4-13.4-17.1-23-22.4
			c-2.5-1.4-5.7-0.5-7.1,2.1c-1.4,2.5-0.5,5.7,2.1,7.1c8,4.4,14.6,10.7,19,18.5c4.8,8.3,7,17.9,6.4,27.8
			c-1.1,17.8-1.6,35.7-1.5,53.6c0,2.9,2.4,5.2,5.2,5.2C-370.1,701.8-367.8,699.5-367.8,696.6"/>
		<path class="st0" d="M-346.7,712.6c-0.6-22.6-0.3-45.1,1.2-67.6c1-16-2.6-31.7-10.5-45.4c-7.9-13.7-19.7-24.7-34.1-31.8
			c-20.1-10-39.8-20.9-59.1-32.8c-2.5-1.5-5.7-0.7-7.2,1.7c-1.5,2.5-0.8,5.7,1.7,7.2c19.5,12,39.5,23.1,59.9,33.2
			c12.6,6.2,22.8,15.8,29.7,27.7c6.9,11.9,10,25.6,9.2,39.5c-1.4,22.8-1.8,45.7-1.2,68.5c0.1,2.9,2.5,5.1,5.4,5.1
			C-348.9,717.9-346.6,715.5-346.7,712.6"/>
		<path class="st0" d="M-325.3,725.1c-1.2-26.3-1-52.6,0.6-78.8c1.3-20.1-3.3-39.9-13.3-57.1c-10-17.3-24.8-31.2-42.8-40.1
			c-23.4-11.6-46.3-24.6-68.5-38.8c-2.4-1.6-5.7-0.9-7.2,1.6c-1.6,2.4-0.9,5.6,1.6,7.2c22.5,14.4,45.7,27.6,69.5,39.4
			c16.2,8,29.5,20.5,38.4,36c8.9,15.5,13.1,33.2,11.9,51.3c-1.7,26.5-1.9,53.2-0.6,79.9c0.1,2.9,2.6,5.1,5.5,5
			C-327.4,730.5-325.2,728-325.3,725.1"/>
		<path class="st0" d="M-329,584c7.2,12.5,11.9,26.3,13.9,40.5c0.4,2.9,3,4.8,5.9,4.5c2.9-0.4,4.8-3,4.5-5.9
			c-2.1-15.6-7.2-30.6-15.2-44.3c-12-20.9-29.9-37.6-51.6-48.3c-25.9-12.8-51.1-27.4-75.3-43.5c-2.4-1.6-5.6-0.9-7.2,1.5
			c-1.6,2.4-0.9,5.6,1.5,7.2c24.6,16.3,50.2,31.1,76.5,44.2C-356.3,549.7-340,565-329,584"/>
		<path class="st0" d="M-303.9,734.7c-1.8-29-1.8-58.1,0-87c0.2-2.9-2-5.4-4.9-5.5c-2.9-0.2-5.3,2-5.5,4.9
			c-1.9,29.3-1.9,58.9,0,88.3c0.2,2.9,2.7,5.1,5.5,4.9C-305.9,740-303.7,737.6-303.9,734.7"/>
		<path class="st0" d="M-282.5,741.7L-282.5,741.7c-2.3-30.9-2.5-62-0.6-92.7c1.8-28.3-4.7-56.2-18.8-80.6
			c-14.1-24.4-35-44-60.4-56.6c-27.5-13.6-54.3-29.3-80-46.8c-2.4-1.6-5.6-1-7.2,1.4c-1.6,2.4-1,5.6,1.4,7.2
			c26.1,17.8,53.3,33.7,81.2,47.6c23.6,11.7,42.9,29.8,56,52.5c13.1,22.6,19.1,48.5,17.4,74.7c-2,31.2-1.8,62.8,0.6,94.1
			c0.2,2.9,2.7,5,5.6,4.8C-284.5,747.1-282.3,744.6-282.5,741.7"/>
		<path class="st0" d="M-261.2,746.6L-261.2,746.6c-2.7-32-3.1-64.3-1.1-96.3c2.1-32.4-5.4-64.4-21.5-92.4
			c-16.2-28-40.1-50.4-69.2-64.9c-28.6-14.2-56.4-30.6-82.8-49c-2.4-1.6-5.6-1.1-7.3,1.3c-1.6,2.4-1.1,5.6,1.3,7.3
			c26.9,18.7,55.1,35.4,84.1,49.8c27.3,13.5,49.7,34.5,64.8,60.7c15.1,26.2,22.1,56.1,20.2,86.5c-2.1,32.5-1.7,65.2,1.1,97.8
			c0.2,2.9,2.8,5,5.6,4.8C-263.1,752-261,749.5-261.2,746.6"/>
		<path class="st0" d="M-240,749.6c-3-32.6-3.5-65.5-1.4-97.9c2.4-37.2-6.5-73.3-24.3-104.1c-17.8-30.9-44.6-56.5-78-73.1
			c-2.2-1.1-4.3-2.1-6.4-3.2c-2.6-1.3-5.7-0.3-7,2.3c-1.3,2.6-0.3,5.7,2.3,7c2.2,1.1,4.4,2.2,6.5,3.3c31.6,15.7,56.8,39.9,73.6,69
			c16.8,29.1,25.2,63.1,22.9,98.2c-2.1,33-1.6,66.4,1.5,99.6c0.3,2.9,2.8,5,5.7,4.7C-241.9,755-239.8,752.5-240,749.6"/>
		<path class="st0" d="M-376.1,469.2c2.5,1.4,5.7,0.5,7.1-2c1.4-2.5,0.5-5.7-2-7.1c-19.5-10.9-38.5-22.9-56.9-35.9
			c-2.3-1.7-5.6-1.1-7.3,1.3c-1.7,2.3-1.1,5.6,1.2,7.3l0,0C-415.3,445.9-396,458.1-376.1,469.2"/>
		<path class="st0" d="M-116.1,506.6c2.9,0.3,5.4-1.9,5.7-4.7c0.3-2.9-1.9-5.4-4.7-5.7c-33.8-3-67.4-9-100.6-17.9
			c-69.6-18.7-134.1-49.3-192.2-91.2c-2.3-1.7-5.6-1.2-7.3,1.2c-1.7,2.3-1.2,5.6,1.2,7.3c59.1,42.6,124.8,73.8,195.6,92.8
			C-184.7,497.5-150.5,503.5-116.1,506.6"/>
		<path class="st0" d="M-218.1,461.5c0.8-2.8-0.8-5.7-3.6-6.5c-63.1-18.3-121.7-46.9-174.7-85.2c-2.3-1.7-5.6-1.2-7.3,1.2
			c-1.7,2.3-1.2,5.6,1.2,7.3c54,39,113.7,68.2,177.9,86.8C-221.7,465.9-218.9,464.3-218.1,461.5"/>
		<path class="st0" d="M-199.3,461.1c-2.8-0.7-5.6,1-6.3,3.8c-0.7,2.8,1,5.6,3.8,6.3c68.9,17,139.5,21.2,209.9,12.5
			c12.1-1.5,23.3-5.4,33.3-11.1c6.1-3.5,11.7-7.8,16.8-12.6c2.1-2,2.2-5.3,0.2-7.4c-2-2.1-5.3-2.2-7.4-0.2c-4.5,4.2-9.4,8-14.8,11.1
			c-8.8,5.1-18.7,8.5-29.3,9.8C-62.4,481.9-131.6,477.8-199.3,461.1"/>
		<path class="st0" d="M85.1,384.8c-1.5-11.8-5.3-23.1-11.2-33.4c-17.8-30.9-52.3-48-87.7-43.6c-43.1,5.3-86.2,3.7-128.7-4.9
			c-2.8-0.6-5.6,1.2-6.1,4.1c-0.6,2.8,1.2,5.6,4.1,6.1c43.5,8.8,87.8,10.5,132,5c31.2-3.9,61.6,11.2,77.3,38.5
			c5.2,9.1,8.6,19,9.9,29.5c2.2,17.6-1.7,34.6-10.1,48.9c-1.5,2.5-0.6,5.7,1.9,7.1c2.5,1.4,5.7,0.6,7.1-1.9
			C83.1,424.1,87.6,404.8,85.1,384.8"/>
		<path class="st0" d="M-278.9,260.4L-278.9,260.4c33.7,20.7,70.3,36.4,109,46.8c0.8,0.2,1.5,0.4,2.2,0.6c2.8,0.7,5.6-0.9,6.4-3.7
			c0.7-2.8-0.9-5.6-3.7-6.4c-0.7-0.2-1.5-0.4-2.2-0.6c-37.8-10.1-73.3-25.4-106.2-45.6c-2.5-1.5-5.7-0.7-7.2,1.7
			C-282.1,255.7-281.4,258.9-278.9,260.4"/>
		<path class="st0" d="M67.5,657.6c-0.7-2.8-3.5-4.5-6.3-3.8c-10.2,2.5-20.6,4.5-31.2,5.8c-18.9,2.3-37.8,3.9-56.6,4.9
			c-2.7,0.1-5.2,0.8-7.5,1.9c-2.6,1.3-3.6,4.4-2.4,7c1.3,2.6,4.4,3.6,7,2.4c1-0.5,2.1-0.8,3.4-0.9c19.1-0.9,38.3-2.6,57.4-4.9
			c11-1.4,21.9-3.4,32.4-6C66.5,663.2,68.2,660.4,67.5,657.6"/>
		<path class="st0" d="M-74.6,726.4L-74.6,726.4c-1.3-17.2-1.6-34.5-1-51.6c0.3-7.6,2.6-14.4,6.4-20.3c3.8-5.9,9.1-10.9,15.4-14.6
			c6.7-3.9,14.5-6.2,22.7-6.6c19.1-0.8,38.1-2.5,57.2-4.8c31.9-4,61.6-14.3,87.9-29.5c79.2-45.7,127.8-135.9,115.9-232.3
			c-3.9-31.3-13.9-61-29.6-88.3C153.1,196.7,62,151.3-31.7,162.9c-25.8,3.2-51.7,2.5-77.2-2.2c-2.8-0.5-5.5,1.4-6.1,4.2
			c-0.5,2.8,1.4,5.6,4.2,6.1c26.5,4.9,53.5,5.6,80.3,2.3c89.6-11.1,176.6,32.2,221.7,110.4c15,26.1,24.5,54.4,28.3,84.3
			c11.4,92.1-35.1,178.3-110.7,222c-25.1,14.5-53.5,24.3-84,28.1c-18.8,2.3-37.6,3.9-56.4,4.8c-9.9,0.4-19.3,3.3-27.4,8
			c-7.7,4.4-14.2,10.5-19,18c-4.8,7.4-7.7,16.1-8,25.6c-0.6,17.5-0.3,35.2,1,52.8c0.2,2.9,2.7,5,5.6,4.8
			C-76.5,731.8-74.4,729.3-74.6,726.4"/>
		<path class="st0" d="M13.2,525c17.7-2.2,34.3-7.9,48.9-16.4c44-25.4,71-75.5,64.4-129c-2.2-17.4-7.7-33.9-16.5-49
			c-16.8-29-43.5-49.8-74.1-59.3c-2.8-0.9-5.7,0.7-6.5,3.4c-0.8,2.7,0.7,5.7,3.4,6.5C61,290,85.5,309.1,101,335.8
			c8,13.9,13.1,29.1,15.1,45.1c6.1,49.2-18.8,95.4-59.2,118.7c-13.4,7.8-28.6,13-44.9,15.1c-13.9,1.7-27.9,3-41.8,3.7
			c-32.4,1.8-64.7,10.7-91.7,26.3c-13.9,8-26.4,17.8-36.8,29.4c-1.9,2.1-1.7,5.4,0.4,7.4c2.1,1.9,5.4,1.7,7.4-0.4
			c9.6-10.7,21.2-19.8,34.3-27.3c25.4-14.7,56.3-23.2,87.1-24.9C-15.1,528.1-1,526.8,13.2,525"/>
		<path class="st0" d="M-177.2,749.5c-3.6-35.2-3.9-70.4-1-105.3c1.4-16.8,6.4-31.7,14.2-44.9c1.5-2.5,0.6-5.7-1.8-7.1
			c-2.5-1.5-5.7-0.6-7.1,1.8c-8.6,14.5-14.1,31.1-15.6,49.4c-3,35.6-2.7,71.5,1,107.3c0.3,2.9,2.9,4.9,5.7,4.6
			C-179,754.9-176.9,752.3-177.2,749.5"/>
		<path class="st0" d="M-156.5,746.9L-156.5,746.9c-3.3-32-3.7-63.9-1.3-95.7c1.3-17.9,7.4-33.6,16.8-47
			c9.4-13.5,22.4-24.7,37.5-33.4c21.4-12.3,47.1-19.6,73-20.9c15.4-0.8,30.9-2.1,46.3-4.1c20.6-2.6,39.7-9.2,56.7-19
			c51-29.5,82.3-87.6,74.7-149.7c-2.5-20.1-9-39.3-19.1-56.9c-30.4-52.7-89.1-81.9-149.5-74.5c-43.4,5.4-87,2.4-129.6-9
			c-21.8-5.8-42.7-13.7-62.6-23.5c-2.6-1.3-5.7-0.2-7,2.4c-1.3,2.6-0.2,5.7,2.4,7c20.5,10.1,42.1,18.2,64.5,24.3
			c43.8,11.7,88.8,14.9,133.5,9.3c56.3-7,110.9,20.2,139.2,69.3c9.4,16.4,15.4,34.2,17.8,52.9c7.1,57.8-22,111.9-69.6,139.4
			c-15.8,9.1-33.6,15.3-52.7,17.7c-15.2,1.9-30.4,3.2-45.6,4c-27.5,1.4-54.7,9-77.7,22.3c-16.2,9.4-30.3,21.6-40.8,36.5
			c-10.5,14.9-17.2,32.5-18.7,52.3c-2.4,32.4-2,65,1.4,97.5c0.3,2.9,2.9,4.9,5.7,4.7C-158.3,752.3-156.2,749.7-156.5,746.9"/>
		<path class="st0" d="M-135.9,743.2c-2.8-28.4-3.3-56.7-1.5-85c1-15.6,6.1-29.4,14.3-41.3c8.2-11.9,19.4-21.8,32.6-29.4
			c11.2-6.5,23.9-11.2,37.1-14c2.8-0.6,4.6-3.4,4-6.2c-0.6-2.8-3.4-4.6-6.2-4c-14.3,3-27.9,8.1-40.1,15.2
			c-14.3,8.3-26.8,19.2-35.9,32.6c-9.2,13.3-15,29-16.1,46.6c-1.8,28.8-1.3,57.7,1.5,86.6c0.3,2.9,2.8,5,5.7,4.7
			C-137.7,748.6-135.6,746.1-135.9,743.2"/>
		<path class="st0" d="M-95,732.9c-1.8-21.1-2.2-42.2-1.3-63.1c0.5-10.4,3.7-19.7,9-27.7c5.3-8,12.7-14.8,21.4-19.8
			c10-5.8,21.7-9.2,33.8-9.8c18.5-0.8,37-2.4,55.5-4.7c0,0,0,0,0,0c29.1-3.6,56.2-13,80.1-26.8c5.3-3.1,10.5-6.3,15.5-9.8
			c2.4-1.7,2.9-4.9,1.3-7.3c-1.6-2.4-4.9-2.9-7.3-1.3c-4.8,3.3-9.7,6.4-14.7,9.4c-22.8,13.2-48.5,22.1-76.2,25.5
			c-18.2,2.3-36.5,3.8-54.7,4.6c-13.8,0.6-27.1,4.5-38.6,11.2c-10,5.8-18.6,13.6-24.8,23.1c-6.3,9.5-10.2,20.7-10.7,33
			c-1,21.4-0.6,43,1.3,64.5c0.2,2.9,2.8,5,5.6,4.7C-96.9,738.3-94.8,735.8-95,732.9"/>
		<path class="st0" d="M-115.4,738.5c-2.3-24.8-2.8-49.6-1.4-74.3c0.7-13,4.9-24.6,11.7-34.6c6.8-10,16.1-18.4,27.1-24.7
			c13.5-7.8,29.6-12.5,46-13.3c17.7-0.8,35.4-2.3,53-4.5c26.3-3.3,50.7-11.7,72.3-24.2c42.7-24.7,74.5-65,88.7-112.2
			c0.8-2.8-0.7-5.7-3.5-6.5c-2.8-0.8-5.7,0.7-6.5,3.5c-13.4,44.6-43.5,82.9-83.9,106.2c-20.5,11.8-43.5,19.8-68.4,22.9
			c-17.4,2.2-34.8,3.6-52.2,4.4c-18.1,0.8-35.7,5.9-50.8,14.6c-12.2,7-22.7,16.5-30.5,27.9c-7.7,11.4-12.6,25-13.4,39.9
			c-1.4,25.2-0.9,50.5,1.4,75.8c0.3,2.9,2.8,5,5.7,4.7C-117.3,743.9-115.2,741.4-115.4,738.5"/>
		<path class="st0" d="M-143.7,184.6c2.1,0.6,4.1,1.2,6.2,1.7c20.4,5.5,41,8.7,61.8,9.6c2.9,0.1,5.3-2.1,5.4-5
			c0.1-2.9-2.1-5.3-5-5.4c-20-0.9-39.9-4-59.6-9.2c-2-0.5-4-1.1-6-1.7c-2.8-0.8-5.7,0.8-6.5,3.5
			C-148.1,180.9-146.5,183.8-143.7,184.6"/>
		<path class="st0" d="M-33.8,710.9L-33.8,710.9c-0.3-6.7-0.5-13.3-0.4-19.9c0-2.9-2.3-5.2-5.2-5.2c-2.9,0-5.2,2.3-5.2,5.2
			c0,6.8,0.1,13.6,0.4,20.4c0.1,2.9,2.6,5.1,5.4,5C-35.9,716.2-33.7,713.7-33.8,710.9"/>
		<path class="st0" d="M15.6,687.4c-0.3-2.9-2.8-5-5.7-4.7c-9.6,0.9-19.1,1.6-28.7,2.2c-2.7,0.2-4.9,2.4-4.9,5.2c0,4,0,8,0.1,12
			c0.1,2.9,2.5,5.2,5.3,5.1c2.9-0.1,5.2-2.5,5.1-5.3l0,0c-0.1-2.3-0.1-4.6-0.1-6.9c8-0.5,16.1-1.1,24.1-1.9
			C13.8,692.8,15.9,690.2,15.6,687.4"/>
	</g>
	<g>
		<path class="st0" d="M-66.6,149.3c0,2.9,2.4,5.2,5.3,5.2l0,0c9.4-0.1,18.9-0.7,28.3-1.9c50.6-6.3,100.4,3.3,143.6,25.9
			c2.6,1.3,5.7,0.3,7-2.2c1.3-2.6,0.3-5.7-2.2-7c-45-23.5-97-33.5-149.7-27c-9,1.1-18.1,1.7-27.1,1.8
			C-64.3,144.1-66.6,146.4-66.6,149.3"/>
		<path class="st0" d="M-216.4,587.3c0.5,2.1,2.4,3.7,4.5,3.9c2.2,0.2,4.3-1,5.2-3c3.7-7.9,8.1-15.3,13.1-22.2
			c12.6-17.4,28.8-31.6,47.1-43.1c1.9-1.2,2.8-3.4,2.3-5.5c-0.5-2.1-2.2-3.8-4.4-4.1c-24.4-3.5-48.7-8.4-72.8-14.8
			c-13.2-3.5-26.2-7.5-39-11.8c-2.7-0.9-5.7,0.5-6.6,3.3c-0.9,2.7,0.5,5.7,3.3,6.6c13,4.4,26.2,8.4,39.6,12
			c20.2,5.4,40.5,9.7,60.9,13c-14.8,10.7-28.1,23.4-38.9,38.3c-2.8,3.9-5.5,8-8,12.2c-4.8-15.1-11.1-29.6-18.8-43.3
			c4.6,1.2,9.1,2.4,13.7,3.5c1.6,3.1,3.1,6.2,4.5,9.3c0.7,1.6,2.3,2.7,4,3c1.8,0.2,3.5-0.4,4.7-1.8c2.4-2.8,5-5.6,7.6-8.3
			c1.3-1.4,1.8-3.3,1.3-5.1c-0.5-1.8-2-3.2-3.9-3.6c-10-2.2-19.9-4.6-29.8-7.2c-4-1.1-7.9-2.2-11.8-3.3c-2.1-0.6-4.3,0.2-5.6,1.9
			c-1.3,1.7-1.4,4.1-0.2,5.9c1.9,2.9,3.7,5.8,5.4,8.8l0,0C-228.9,549.2-221.3,567.8-216.4,587.3"/>
		<path class="st0" d="M-54.2,719L-54.2,719c-0.8-13.3-1.1-26.5-0.7-39.8c0.3-9.2,5.4-17,13.1-21.5c3.8-2.2,8.1-3.5,12.7-3.7
			c19.3-0.9,38.5-2.5,57.8-4.9c34.8-4.3,67.1-15.5,95.7-32.1c86.3-49.8,139.1-148,126.2-253c-4.3-34.1-15.1-66.5-32.3-96.1
			c-20.6-35.7-48.9-65-81.9-86.5c-2.4-1.6-5.6-0.9-7.2,1.5c-1.6,2.4-0.9,5.6,1.5,7.2c31.7,20.6,58.8,48.7,78.6,83
			c16.4,28.5,26.8,59.4,30.9,92.2c12.4,100.7-38.3,194.9-121,242.7c-27.5,15.9-58.4,26.6-91.8,30.8c-19,2.4-38,4-57,4.8
			c-6.3,0.3-12.3,2.1-17.5,5.1c-10.5,6.1-17.9,17.2-18.3,30.2c-0.4,13.6-0.1,27.1,0.7,40.7c0.2,2.9,2.7,5.1,5.5,4.9
			C-56.2,724.4-54,721.9-54.2,719"/>
		<path class="st0" d="M-198,750.8c-3.9-38.3-4-76.6-0.4-114.6c2.1-22.2,9.9-41.5,21.8-57.9c11.9-16.5,28.1-30.2,46.9-41
			c29.9-17.3,66.6-27.2,102.9-29.4c12.5-0.8,25-1.9,37.5-3.5c0,0,0,0,0,0c14.9-1.9,28.8-6.7,41.1-13.8c37-21.3,59.6-63.4,54.1-108.4
			c-1.8-14.6-6.5-28.5-13.8-41.2c-22-38.2-64.6-59.4-108.3-53.9c-48.8,6.1-97.8,2.7-145.5-10.1c-32.7-8.8-63.6-21.6-92.4-38.3
			c-2.5-1.4-5.7-0.6-7.1,1.9c-1.4,2.5-0.6,5.7,1.9,7.1c29.6,17.2,61.4,30.3,95,39.3c49,13.1,99.3,16.6,149.5,10.4
			c39.6-4.9,78,14.2,98,48.8c6.6,11.5,10.8,24,12.5,37.3c5,40.7-15.5,78.7-48.9,98.1C35.4,488,22.9,492.3,9.3,494
			c-12.3,1.5-24.6,2.7-36.9,3.4c-37.7,2.3-75.8,12.5-107.4,30.8c-19.8,11.4-37.1,26.1-50.1,44c-13,17.9-21.5,39-23.8,63.1
			c-3.7,38.7-3.5,77.7,0.4,116.6c0.3,2.9,2.8,4.9,5.7,4.7C-199.8,756.3-197.7,753.7-198,750.8"/>
	</g>
</g>
</svg>
