<?xml version="1.0" encoding="UTF-8" standalone="no"?>
<!-- Created with Inkscape (http://www.inkscape.org/) -->

<svg
   xmlns:dc="http://purl.org/dc/elements/1.1/"
   xmlns:cc="http://creativecommons.org/ns#"
   xmlns:rdf="http://www.w3.org/1999/02/22-rdf-syntax-ns#"
   xmlns:svg="http://www.w3.org/2000/svg"
   xmlns="http://www.w3.org/2000/svg"
   xmlns:sodipodi="http://sodipodi.sourceforge.net/DTD/sodipodi-0.dtd"
   xmlns:inkscape="http://www.inkscape.org/namespaces/inkscape"
   version="1.1"
   id="svg22"
   width="413.12"
   height="123.84"
   viewBox="0 0 413.12 123.84"
   sodipodi:docname="Logo.svg"
   inkscape:version="0.92.4 (5da689c313, 2019-01-14)">
  <metadata
     id="metadata28">
    <rdf:RDF>
      <cc:Work
         rdf:about="">
        <dc:format>image/svg+xml</dc:format>
        <dc:type
           rdf:resource="http://purl.org/dc/dcmitype/StillImage" />
        <dc:title />
      </cc:Work>
    </rdf:RDF>
  </metadata>
  <defs
     id="defs26" />
  <sodipodi:namedview
     pagecolor="#ffffff"
     bordercolor="#666666"
     borderopacity="1"
     objecttolerance="10"
     gridtolerance="10"
     guidetolerance="10"
     inkscape:pageopacity="0"
     inkscape:pageshadow="2"
     inkscape:window-width="1842"
     inkscape:window-height="1177"
     id="namedview24"
     showgrid="false"
     inkscape:zoom="2.4784339"
     inkscape:cx="178.8649"
     inkscape:cy="44.384962"
     inkscape:window-x="-8"
     inkscape:window-y="-8"
     inkscape:window-maximized="1"
     inkscape:current-layer="svg22" />
  <path
     style="fill:#000000;stroke-width:0.31999999"
     d="M 171.52001,118.28948 C 114.29931,116.00976 62.629623,106.74435 27.003364,92.374747 20.503383,89.753026 13.693688,86.585746 10.873221,84.872402 9.1752683,83.840949 8.9600003,83.594779 8.9600003,82.684514 V 81.658843 L 14.64,84.458792 c 24.237578,11.947873 60.022943,21.502688 99.76001,26.636268 7.55477,0.97599 35.50565,3.52858 45.6,4.16437 18.96731,1.19467 47.41475,1.40887 64.96,0.48913 3.08,-0.16146 8.264,-0.43331 11.52,-0.60412 14.98765,-0.78624 42.44021,-3.76275 57.92,-6.27989 21.97352,-3.57308 39.87507,-7.70151 56.16,-12.951515 14.53245,-4.685043 23.10554,-8.528003 24.33693,-10.909235 0.55501,-1.07328 0.60915,-3.893072 0.0935,-4.868317 -0.20326,-0.384429 -0.84701,-1.259913 -1.43053,-1.94552 -0.58355,-0.685609 -1.22624,-1.765609 -1.42822,-2.4 -1.16957,-3.673421 -1.90099,-4.193443 -5.89805,-4.193443 -2.66134,0 -2.75456,-0.02477 -2.6559,-0.705712 0.0904,-0.623981 1.62029,-2.006707 3.31405,-2.995299 0.52374,-0.305693 -0.0266,-1.150291 -5.31376,-8.155347 -7.21223,-9.555546 -8.98317,-11.432352 -12.17607,-12.903984 -1.29907,-0.598752 -3.54995,-1.631325 -5.00195,-2.294608 -2.63722,-1.204704 -3.19062,-1.855549 -2.24,-2.63441 0.33808,-0.277002 4.68566,-2.57377 11.6,-6.128147 2.30234,-1.183536 5.9296,-1.152531 8.59862,0.0735 2.26004,1.038151 4.96541,2.946208 8.20138,5.784301 1.32,1.157696 2.54848,2.108234 2.72992,2.112304 0.18147,0.0041 1.11174,-1.324595 2.06726,-2.952595 0.95549,-1.628 2.49444,-4.112 3.41981,-5.52 2.24112,-3.409968 2.75136,-5.556045 2.79981,-11.775893 0.0409,-5.249932 0.20474,-5.680367 1.84042,-4.834513 2.10832,1.090255 6.39625,5.382794 8.43267,8.441716 3.80288,5.71236 5.27264,10.018975 5.26768,15.435199 -0.007,7.21383 -2.42192,14.109683 -7.6545,21.853491 -1.51581,2.243286 -2.55904,4.106118 -2.50889,4.48 0.0768,0.572874 0.36432,0.649773 2.74092,0.733184 1.88384,0.06612 2.70391,0.2204 2.82317,0.53112 0.41258,1.075162 -2.20272,4.10375 -3.91478,4.533456 -0.45363,0.113853 -1.64,0.121798 -2.63635,0.01766 -0.99636,-0.104141 -1.985,-0.08216 -2.19696,0.04885 -0.21197,0.131008 -0.96698,1.137997 -1.6778,2.237751 -0.71081,1.099756 -1.78998,2.293158 -2.39817,2.652003 -1.09619,0.646758 -1.66829,1.600678 -1.30883,2.182294 0.10265,0.166128 0.0351,0.978522 -0.15024,1.805325 -0.18528,0.826803 -0.27956,1.560621 -0.20948,1.630701 0.22327,0.223238 7.04698,-3.939959 9.84132,-6.004247 3.43612,-2.53838 7.0072,-6.111036 9.55331,-9.557564 4.04963,-5.481712 6.1408,-10.909117 6.76086,-17.547146 1.85191,-19.82464 -14.03008,-37.243623 -39.86115,-43.7187854 -6.23158,-1.562089 -8.84909,-1.8585 -17.76,-2.011175 -8.34515,-0.1429801 -8.57414,-0.1294331 -14.4,0.85196 -9.2457,1.55748 -14.3198,3.1244634 -20.92405,6.4617584 -6.21019,3.138164 -12.4295,7.79767 -16.01648,11.999532 -3.25091,3.808182 -6.57947,9.187126 -6.57947,10.632403 0,0.3412 0.52582,1.245987 1.16849,2.01064 1.82391,2.170093 2.49419,3.919661 2.49419,6.510275 0,3.937552 -2.21854,7.280902 -5.93944,8.950742 -1.64879,0.73993 -2.28798,0.858135 -4.07919,0.754356 -3.58073,-0.20746 -6.72722,-2.24386 -8.42376,-5.451821 -1.06879,-2.020983 -1.052,-6.179965 0.0339,-8.386199 0.95389,-1.93807 2.77995,-3.750044 4.76414,-4.727392 1.24868,-0.615056 1.99026,-0.736128 4.40133,-0.71856 l 2.89963,0.02112 1.42037,-2.727107 c 6.22614,-11.954239 18.88007,-21.298975 35.37512,-26.1240044 1.56487,-0.4577461 5.79722,-1.3379831 9.40522,-1.9560821 6.53283,-1.119163 6.59181,-1.123194 14.24,-0.973474 8.20739,0.160667 12.20963,0.657136 18.56,2.302331 22.6489,5.8676735 37.95411,19.5143775 41.58147,37.0756315 1.69447,8.203408 -0.57289,18.691309 -5.6815,26.280455 -6.21978,9.239804 -15.73411,16.408393 -27.57997,20.780105 -1.76,0.649527 -5.36,2.027699 -8,3.062605 -36.12467,14.161206 -86.50268,23.003536 -144,25.274816 -9.14856,0.36139 -40.46062,0.34593 -49.76,-0.0246 z m 210.8888,-50.102035 c 1.27331,-0.851466 2.5512,-2.119898 2.5512,-2.532333 0,-0.233456 -0.71453,-0.441462 -1.84,-0.535645 -1.012,-0.08469 -2.1137,-0.269725 -2.44822,-0.4112 -0.56704,-0.239814 -0.59335,-0.145075 -0.38845,1.399408 0.37261,2.808893 0.64157,3.072061 2.12547,2.07977 z m -6.84038,-0.830925 c 0.43443,-0.829162 0.55868,-2.045542 0.61296,-6 0.0836,-6.085683 0.55792,-8.075606 3.4526,-14.483373 1.13213,-2.506147 2.41908,-5.708627 2.85991,-7.116627 0.81353,-2.598528 1.68979,-7.442989 1.39888,-7.733891 -0.0876,-0.08761 -0.46714,0.536637 -0.84339,1.387225 -0.37626,0.850589 -1.69213,3.092439 -2.92413,4.981888 -6.42397,9.851908 -8.38064,18.063188 -6.49114,27.240308 0.65715,3.191779 1.00371,3.500742 1.93431,1.72447 z m -5.5473,-6.56 c -0.16333,-5.187408 -0.0399,-6.217181 1.3599,-11.346944 l 0.58586,-2.146944 -1.29155,-1.533056 c -3.39843,-4.033917 -8.94883,-7.641107 -12.28759,-7.985696 -1.70256,-0.175722 -1.93161,-0.09968 -6.31718,2.09729 -2.50282,1.253792 -4.55056,2.391427 -4.55056,2.52808 0,0.136649 1.332,0.963686 2.96,1.837862 4.0184,2.157722 6.85894,5.052211 13.17914,13.429408 4.58096,6.071869 6.23059,8.16 6.44652,8.16 0.0408,0 0.003,-2.268 -0.0845,-5.04 z m 14.86768,1.981856 c 0.54493,-0.38169 0.7112,-0.81559 0.7112,-1.856 0,-0.746822 -0.1728,-1.530656 -0.384,-1.741856 -0.55008,-0.550086 -3.29021,-0.48936 -3.7656,0.08345 -0.60627,0.730524 -0.79078,2.858915 -0.28358,3.271392 0.97184,0.790355 2.77267,0.907932 3.72198,0.243014 z m 4.88221,-3.841779 c 0.73469,-1.330957 1.26272,-2.493002 1.17341,-2.582323 -0.0893,-0.08932 -0.74663,0.135644 -1.46068,0.499923 -0.71401,0.364278 -1.51148,0.662323 -1.77209,0.662323 -0.26064,0 -0.55923,0.138102 -0.66355,0.306896 -0.23578,0.381485 0.76892,3.533104 1.12633,3.533104 0.14339,0 0.86186,-1.088963 1.59658,-2.419923 z m -7.58448,-2.218352 c 0.66976,-0.279853 1.16445,-0.610727 1.09929,-0.735274 -1.2262,-2.343549 -1.58076,-3.485104 -1.43049,-4.605545 0.22352,-1.66634 1.60457,-3.399533 3.30995,-4.153908 0.7671,-0.339321 1.39472,-0.685296 1.39472,-0.768832 0,-0.34736 -1.70707,-2.698166 -1.95933,-2.698166 -0.45597,0 -3.02745,5.419581 -3.93245,8.287898 -0.46643,1.478345 -0.93577,3.566345 -1.04304,4.64 l -0.19497,1.952102 0.76928,-0.704726 c 0.42307,-0.3876 1.31725,-0.9337 1.98704,-1.213549 z m 7.55024,-2.28488 c 0.80134,-1.01873 0.9008,-3.475271 0.18224,-4.501155 -1.21239,-1.730916 -4.50135,-1.588912 -5.44458,0.235072 -0.70217,1.357891 -0.61328,3.559513 0.17805,4.408899 0.52851,0.567293 1.01043,0.700339 2.53677,0.700339 1.65449,0 1.96518,-0.102829 2.54752,-0.843155 z M 286.30699,50.507118 c 2.06866,-1.498531 2.79524,-2.970704 2.79524,-5.663616 0,-1.984672 -0.11871,-2.458649 -0.89706,-3.58182 -0.49339,-0.711956 -1.4583,-1.665872 -2.14425,-2.119815 -1.05731,-0.699689 -1.60631,-0.825347 -3.60604,-0.825347 -2.09585,0 -2.50189,0.103622 -3.64185,0.929402 -2.05979,1.492108 -2.79524,2.973558 -2.79524,5.630598 0,2.65704 0.73545,4.13849 2.79524,5.630598 1.15174,0.834317 1.53509,0.929402 3.74698,0.929402 2.21189,0 2.59524,-0.09509 3.74698,-0.929402 z m 0.84115,-4.430598 c -0.0105,-2.665389 -0.50141,-4.236579 -1.89432,-6.062774 -0.93848,-1.23042 -0.78344,-1.313146 0.71983,-0.384077 1.36442,0.843264 2.66636,3.328109 2.66636,5.08896 0,1.053366 -1.00672,3.837891 -1.38756,3.837891 -0.052,0 -0.0989,-1.116 -0.10431,-2.48 z m 106.58505,1.880963 c 0.27876,-1.469414 0.50352,-3.123757 0.49946,-3.676313 l -0.007,-1.00465 -0.65811,1.13447 c -0.36195,0.623962 -1.29639,1.538288 -2.07655,2.03184 l -1.41843,0.89737 1.07325,1.48816 c 0.59027,0.818486 1.17773,1.77616 1.30541,2.12816 0.34624,0.954515 0.68073,0.17224 1.2823,-2.999037 z m -2.37318,-3.560963 c 0.4473,-0.447312 0.64,-1.066666 0.64,-2.057142 0,-1.871124 -0.58288,-2.422858 -2.55962,-2.422858 -1.2976,0 -1.66332,0.139088 -2.21715,0.843155 -0.88499,1.125088 -0.83593,2.102474 0.16522,3.292291 0.66505,0.790372 1.07529,0.984554 2.08,0.984554 0.82489,0 1.46973,-0.218182 1.89155,-0.64 z m 2.53901,-5.80889 c -0.212,-1.11711 -0.49082,-2.148713 -0.61959,-2.292454 -0.12876,-0.143738 -0.64931,0.109254 -1.15676,0.562208 l -0.92266,0.823552 0.83619,0.717792 c 0.45987,0.394784 1.09139,1.118285 1.40333,1.607779 0.31194,0.489491 0.62966,0.827491 0.70605,0.751111 0.0764,-0.07638 -0.0346,-1.052877 -0.24656,-2.169988 z m -5.73901,-0.964281 c 0,-0.264307 -1.5535,-0.753971 -1.72989,-0.545261 -0.055,0.06514 -0.19478,0.51327 -0.31056,0.995853 l -0.21046,0.877421 1.12547,-0.536688 c 0.61898,-0.295181 1.12544,-0.651277 1.12544,-0.791325 z m 2.58102,-2.198087 c 0.68144,-0.364684 0.81748,-1.579907 0.28772,-2.569779 -0.22365,-0.417917 -0.6706,-0.618963 -1.376,-0.618963 -1.30765,0 -1.81274,0.490387 -1.81274,1.76 0,0.5456 0.1728,1.1648 0.384,1.376 0.47174,0.47175 1.68656,0.497203 2.51702,0.05274 z m -1.38102,-5.331882 c 0.396,-0.09431 0.72,-0.30962 0.72,-0.478471 0,-0.445688 -2.86323,-4.098389 -3.21258,-4.098389 -0.272,0 -0.1992,1.423315 0.21031,4.111962 0.14153,0.929362 0.25632,1.042989 0.86278,0.854165 0.38471,-0.119788 1.02349,-0.294958 1.41949,-0.389267 z m -189.68,83.21945 c -5.55549,-1.05855 -9.48951,-3.02583 -13.01376,-6.50774 -5.38167,-5.31703 -7.21613,-11.93889 -5.70618,-20.597604 1.42646,-8.179907 5.45398,-14.461523 11.0505,-17.235177 8.02684,-3.978128 17.26852,-3.022915 22.92959,2.369981 3.72364,3.547241 5.67604,7.451017 6.52884,13.05423 0.40488,2.66023 0.26004,9.43897 -0.21176,9.910771 -0.16567,0.165674 -4.83632,0.449821 -10.37923,0.63144 -13.5514,0.444029 -16.33875,0.571872 -16.5248,0.757927 -0.37639,0.37638 1.27485,2.814397 2.93182,4.328762 2.63118,2.40475 4.96558,3.05899 10.17712,2.85225 4.49832,-0.17845 6.9295,-0.83249 9.89231,-2.66124 2.19576,-1.355285 2.47165,-1.228565 2.4821,1.14008 0.003,0.792 0.099,3.04681 0.21212,5.01068 l 0.20576,3.57069 -1.69875,0.86082 c -3.3238,1.6843 -7.28711,2.47175 -12.95568,2.57411 -2.816,0.0508 -5.48,0.0239 -5.92,-0.06 z m 8.6,-27.83631 c 0.82299,-0.164598 1,-0.35257 1,-1.06192 0,-1.562042 -0.97068,-4.167971 -1.98124,-5.318938 -1.45688,-1.659292 -2.45502,-2.059142 -5.14022,-2.059142 -2.03883,0 -2.54586,0.122154 -3.7949,0.914275 -1.9779,1.254346 -3.34662,3.013975 -4.11559,5.290999 -0.35642,1.055446 -0.64805,2.035036 -0.64805,2.17686 0,0.301197 13.20312,0.353242 14.68,0.05787 z m -47.1033,26.91215 c -3.26482,-0.6186 -6.82776,-2.28322 -8.5296,-3.98506 -1.69861,-1.69861 -3.07568,-4.63044 -3.53543,-7.5271 -0.30355,-1.912435 -0.2018,-3.957285 0.69578,-13.983942 0.57822,-6.459174 0.98409,-11.808957 0.90193,-11.888403 -0.0822,-0.07945 -1.43078,-0.300067 -2.99693,-0.490263 -1.56615,-0.190195 -2.90784,-0.406102 -2.98153,-0.479795 -0.20001,-0.200013 0.88086,-9.285193 1.13243,-9.518537 0.11916,-0.110522 1.34605,-0.06426 2.72643,0.102809 1.38038,0.167069 2.68542,0.236359 2.90009,0.153981 0.25739,-0.09877 0.53006,-1.82295 0.80063,-5.06281 0.22568,-2.702166 0.53022,-5.059238 0.67677,-5.237936 0.25175,-0.306985 10.703,0.272656 11.77709,0.653175 0.33534,0.118803 0.40246,1.274755 0.32,5.511033 l -0.10436,5.360698 5.01476,0.32 c 2.75811,0.176 5.11835,0.42424 5.24497,0.551645 0.24767,0.249197 -0.28842,8.926598 -0.58087,9.402217 -0.10336,0.168112 -2.30184,0.166173 -5.32989,-0.0047 -2.83468,-0.159961 -5.20356,-0.231961 -5.26417,-0.16 -0.0606,0.07196 -0.42588,5.124189 -0.81169,11.227175 -0.78754,12.457828 -0.76638,12.680493 1.32795,13.974863 1.40695,0.86954 5.41137,0.95918 7.71928,0.1728 0.83289,-0.2838 1.59798,-0.43236 1.7002,-0.33013 0.10223,0.10222 0.0584,2.53041 -0.0973,5.39599 l -0.28324,5.21013 -1.28,0.42629 c -1.95145,0.64992 -8.19129,0.7652 -11.1433,0.20587 z m 71.96143,-1.08282 c -0.28156,-0.45558 -4.13194,-45.462191 -3.90847,-45.68566 0.13043,-0.130422 3.06566,-0.496646 6.52273,-0.813833 4.66291,-0.427818 6.34384,-0.482455 6.51122,-0.211639 0.12409,0.200781 0.32871,1.877556 0.45471,3.726164 l 0.22909,3.361107 0.89595,-1.638375 c 2.53444,-4.634572 5.98674,-6.942812 11.56783,-7.734355 7.23985,-1.026797 13.11718,3.076589 15.59397,10.887261 0.87368,2.755219 6.16408,32.39875 5.83995,32.72288 -0.34461,0.34461 -13.27154,2.43895 -13.53801,2.19334 -0.1171,-0.10793 -1.16182,-6.74823 -2.32161,-14.75622 -2.30724,-15.9308 -2.45082,-16.483453 -4.77041,-18.360848 -1.0712,-0.866992 -1.51393,-1.003827 -3.58654,-1.108486 -3.01042,-0.152023 -4.87394,0.65232 -6.34909,2.740422 -2.35384,3.331894 -2.4268,4.798835 -1.01369,20.380897 0.69351,7.647185 1.04174,12.888505 0.86786,13.062385 -0.15973,0.15973 -2.50514,0.49177 -5.21202,0.73786 -2.70688,0.24609 -5.53588,0.50658 -6.28666,0.57886 -0.75078,0.0723 -1.42434,0.0355 -1.49681,-0.0818 z m -113.29813,-3.42821 c -3.07732,-0.46764 -6.39153,-1.26466 -8.59797,-2.06771 -2.5358,-0.92292 -6.60454,-2.99517 -6.94605,-3.5377 -0.17349,-0.2756 1.80209,-11.120449 2.07561,-11.393969 0.0704,-0.07035 1.04152,0.614269 2.15816,1.52136 3.81289,3.097379 8.15336,4.796894 12.25099,4.796894 1.83306,0 2.23732,-0.10897 2.9138,-0.78545 0.91836,-0.91835 1.04708,-2.538628 0.28781,-3.622638 -0.27371,-0.390774 -2.66014,-2.168243 -5.30317,-3.949929 -6.26176,-4.221095 -8.35502,-6.81984 -9.23628,-11.466672 -0.67325,-3.550048 0.9604,-8.74018 3.61438,-11.482951 1.55744,-1.609545 4.72312,-3.31136 7.49662,-4.030045 3.75473,-0.972947 9.69542,-0.480566 14.68747,1.217341 3.38104,1.149965 4.98162,2.050208 4.79229,2.695415 -0.0879,0.299715 -0.4063,2.589337 -0.70746,5.088054 -0.30116,2.498717 -0.65571,4.718102 -0.78789,4.931968 -0.17407,0.281658 -0.68792,0.101616 -1.86412,-0.653149 -2.48633,-1.595475 -5.83157,-2.623773 -9.15419,-2.81392 -2.81561,-0.161129 -2.89968,-0.145094 -3.76,0.717219 -0.66768,0.669223 -0.88,1.192295 -0.88,2.167946 0,1.616589 1.04554,2.668781 5.7736,5.81032 4.28963,2.85023 7.70397,6.20615 8.85401,8.702512 2.39897,5.207398 0.47376,12.025474 -4.34522,15.388484 -2.90387,2.02651 -9.36422,3.36811 -13.32239,2.76662 z m 168.63076,-4.39101 c -0.54957,-1.61149 -9.37137,-44.5538 -9.18794,-44.724593 0.4203,-0.391357 11.7484,-2.803203 12.00529,-2.556026 0.34129,0.328387 10.83501,43.936559 10.67382,44.356619 -0.0712,0.18554 -1.90976,0.73157 -4.08569,1.2134 -2.17593,0.48183 -5.15392,1.1471 -6.61775,1.47839 -1.93274,0.4374 -2.69607,0.50099 -2.78773,0.23221 z M 85.536203,100.75725 c -3.37909,-0.825915 -6.21591,-1.573765 -6.30404,-1.661895 -0.0881,-0.0881 0.1854,-1.51861 0.60784,-3.178835 0.42243,-1.66023 0.73074,-3.05593 0.68511,-3.101552 -0.0456,-0.04563 -0.84192,0.487318 -1.76954,1.184317 -3.29922,2.47899 -7.81394,3.1585 -12.70439,1.912147 -5.55304,-1.415226 -9.50014,-4.111763 -11.304713,-7.723034 -1.421036,-2.843744 -1.776768,-5.004499 -1.305184,-7.927836 0.365008,-2.262672 10.315157,-32.454042 10.915147,-33.11944 0.22912,-0.25409 10.5105,2.734012 11.48995,3.339347 0.19488,0.120438 -1.2577,5.514387 -3.7101,13.776992 -4.11162,13.852803 -4.68852,16.540947 -3.99853,18.631654 1.04563,3.168291 6.01135,5.164343 10.05466,4.041629 1.58744,-0.440787 3.69761,-2.552694 4.78771,-4.791654 0.47462,-0.974839 2.2729,-7.311437 4.08167,-14.38257 1.77829,-6.952 3.36404,-12.775968 3.52388,-12.94215 0.29423,-0.305901 11.425067,2.163712 11.847387,2.628595 0.11669,0.128454 -1.98043,10.241555 -4.660257,22.473555 -4.32936,19.761165 -4.94044,22.2457 -5.48262,22.2912 -0.3356,0.0282 -3.37489,-0.62455 -6.75398,-1.45047 z M 313.2689,96.492775 c -0.20049,-0.756937 -2.8783,-10.645369 -5.9507,-21.974287 -3.07239,-11.328918 -5.53239,-20.759373 -5.46666,-20.956566 0.1204,-0.3612 11.4155,-3.744132 11.78905,-3.530871 0.11032,0.06298 0.58565,1.376976 1.0563,2.919991 0.47065,1.543011 0.93014,3.021478 1.02109,3.285478 0.0942,0.273453 0.44242,-0.339389 0.80922,-1.424211 1.29586,-3.832599 3.85556,-6.747479 7.47281,-8.509687 4.68458,-2.282182 8.71814,-2.459571 12.70214,-0.558617 4.0184,1.917347 6.51898,4.997673 8.83204,10.879689 4.7863,12.171383 10.3198,26.9309 10.21478,27.24593 -0.15069,0.452038 -12.49328,4.971552 -12.80749,4.689738 -0.14217,-0.127533 -2.3391,-6.253268 -4.88205,-13.612743 -2.54294,-7.359478 -4.99056,-14.007168 -5.43916,-14.772649 -0.44861,-0.765479 -1.41037,-1.784557 -2.13732,-2.264615 -1.14361,-0.755261 -1.63372,-0.870249 -3.63843,-0.853651 -1.99094,0.01648 -2.53267,0.152678 -3.85216,0.968458 -0.94173,0.58222 -1.90992,1.555433 -2.5039,2.516908 -0.92855,1.503037 -0.96785,1.713655 -0.95395,5.11154 l 0.0145,3.54391 3.74937,12.300141 c 2.06215,6.765075 3.63962,12.393971 3.50551,12.508653 -0.13415,0.114681 -2.90787,0.958524 -6.16387,1.875206 -3.256,0.916675 -6.16448,1.739105 -6.46329,1.827605 -0.41922,0.12416 -0.62654,-0.15339 -0.90782,-1.21535 z M 24.48,80.600658 C 13.951682,76.244901 6.9122363,73.165714 6.9602303,72.937179 7.0366803,72.573138 31.09563,21.51844 32.350259,19.05784 l 0.600995,-1.17868 5.364372,2.407422 c 2.950406,1.324082 5.481363,2.518676 5.624345,2.654652 0.142986,0.135976 -4.004192,10.296665 -9.215952,22.579305 -5.211757,12.282643 -9.360744,22.436359 -9.219971,22.563815 0.140774,0.127456 4.923396,2.049276 10.628048,4.270716 5.704656,2.221437 10.430442,4.097319 10.501747,4.168624 0.247725,0.247725 -3.885337,11.392724 -4.218585,11.375613 C 42.230867,87.889807 34.16,84.605448 24.48,80.600658 Z M 195.85447,62.07652 c -3.48697,-4.759635 -10.47611,-15.011875 -10.36212,-15.2 0.08,-0.132 2.13698,-0.24 4.57109,-0.24 3.76047,0 4.5208,0.08417 5.05861,0.56 0.34812,0.308 2.02385,2.252 3.72385,4.32 1.7,2.068 3.19513,3.752877 3.32251,3.744173 0.12738,-0.0087 1.5996,-1.952429 3.2716,-4.319389 1.672,-2.36696 3.256,-4.365571 3.52,-4.44136 0.264,-0.07579 2.70847,-0.237936 5.43215,-0.360336 4.17475,-0.187603 4.89931,-0.15351 4.61551,0.217187 -0.18516,0.24185 -3.1899,4.075725 -6.67721,8.519725 l -6.34055,8.08 h -4.74537 -4.74537 z m -67.67763,-4.12799 c -2.63074,-0.424423 -4.80454,-0.803255 -4.83067,-0.841844 -0.57412,-0.848035 -9.68629,-17.996697 -9.60564,-18.07735 0.0934,-0.09344 5.69358,0.88401 9.85407,1.719936 0.74774,0.150237 1.22689,0.845184 3.30359,4.791485 1.33595,2.538669 2.57501,4.615763 2.75347,4.615763 0.17846,0 2.07037,-1.656013 4.20425,-3.680032 2.36833,-2.246397 4.07151,-3.627306 4.37194,-3.544691 0.27069,0.07444 2.65216,0.382857 5.29216,0.685382 2.64,0.302525 4.91435,0.651184 5.05411,0.774803 0.13976,0.123616 -0.72424,1.136263 -1.92,2.250327 -1.19576,1.114061 -4.57695,4.304512 -7.51376,7.089888 -2.9368,2.785379 -5.5288,5.047152 -5.76,5.026169 -0.23119,-0.02099 -2.57278,-0.385411 -5.20352,-0.809836 z"
     id="path32"
     inkscape:connector-curvature="0" />
</svg>
