<?xml version="1.0" encoding="UTF-8" standalone="no"?>
<!-- Created with Inkscape (http://www.inkscape.org/) -->

<svg
   xmlns:dc="http://purl.org/dc/elements/1.1/"
   xmlns:cc="http://creativecommons.org/ns#"
   xmlns:rdf="http://www.w3.org/1999/02/22-rdf-syntax-ns#"
   xmlns:svg="http://www.w3.org/2000/svg"
   xmlns="http://www.w3.org/2000/svg"
   xmlns:sodipodi="http://sodipodi.sourceforge.net/DTD/sodipodi-0.dtd"
   xmlns:inkscape="http://www.inkscape.org/namespaces/inkscape"
   version="1.1"
   id="svg10"
   width="89.279999"
   height="92.160004"
   viewBox="0 0 89.279999 92.160004"
   sodipodi:docname="Logo_Small.svg"
   inkscape:version="0.92.4 (5da689c313, 2019-01-14)">
  <metadata
     id="metadata16">
    <rdf:RDF>
      <cc:Work
         rdf:about="">
        <dc:format>image/svg+xml</dc:format>
        <dc:type
           rdf:resource="http://purl.org/dc/dcmitype/StillImage" />
        <dc:title />
      </cc:Work>
    </rdf:RDF>
  </metadata>
  <defs
     id="defs14" />
  <sodipodi:namedview
     pagecolor="#ffffff"
     bordercolor="#666666"
     borderopacity="1"
     objecttolerance="10"
     gridtolerance="10"
     guidetolerance="10"
     inkscape:pageopacity="0"
     inkscape:pageshadow="2"
     inkscape:window-width="1842"
     inkscape:window-height="1177"
     id="namedview12"
     showgrid="false"
     inkscape:zoom="9.6354163"
     inkscape:cx="27.41189"
     inkscape:cy="46.080002"
     inkscape:window-x="-8"
     inkscape:window-y="-8"
     inkscape:window-maximized="1"
     inkscape:current-layer="svg10" />
  <path
     style="fill:#000000;stroke-width:0.31999999"
     d="m 33.575659,88.1127 c -3.510244,-0.765478 -7.153514,-1.857891 -7.37127,-2.210227 -0.08978,-0.145261 0.417332,-0.590403 1.126907,-0.98921 l 1.290137,-0.725094 2.686013,0.67367 c 4.379986,1.098532 8.52942,1.422353 12.999282,1.014458 3.654141,-0.333456 4.014454,-0.42897 5.607686,-1.486496 2.058356,-1.366259 2.66072,-2.43289 2.66072,-4.71145 0,-1.331712 -0.181539,-1.978201 -0.790726,-2.815891 -1.658838,-2.281056 -2.323866,-3.354026 -2.558118,-4.127322 -0.980925,-3.238131 -1.886474,-3.84 -5.77752,-3.84 -2.661335,0 -2.75456,-0.02477 -2.655891,-0.705712 0.09038,-0.623734 1.620739,-2.007139 3.312198,-2.994138 0.521702,-0.304422 0.01811,-1.088307 -4.83096,-7.52 C 30.485285,46.018027 29.804496,45.351585 24.394356,43.109114 l -2.834838,-1.17502 -0.479599,-1.636071 c -0.26378,-0.89984 -0.377266,-1.73024 -0.252192,-1.845338 0.229726,-0.211401 7.192929,-3.88872 10.147408,-5.358918 2.124073,-1.056977 4.700252,-1.240549 7.04766,-0.502199 2.511831,0.790068 5.027421,2.386647 8.923587,5.663569 1.831018,1.54 3.459076,2.8 3.617908,2.8 0.158835,0 0.988003,-1.188 1.842598,-2.64 0.854595,-1.452 2.38903,-3.941383 3.409853,-5.531962 2.435542,-3.794891 2.92615,-5.787543 2.975177,-12.083933 0.04101,-5.266677 0.201831,-5.681872 1.867229,-4.820661 1.671155,0.864188 6.445181,5.571926 8.179968,8.066389 4.19369,6.030141 5.72065,10.931795 5.396435,17.322957 -0.369321,7.28034 -2.606694,13.09163 -8.187965,21.267204 -1.907868,2.794688 -2.28824,3.774708 -1.624326,4.185028 0.18047,0.111539 1.41095,0.197142 2.734397,0.19023 2.707798,-0.01414 3.055405,0.264378 2.256979,1.808365 -0.625715,1.209994 -2.537286,2.888419 -3.59079,3.152832 -0.450752,0.11313 -1.588586,0.115309 -2.528519,0.0048 -0.939932,-0.11047 -1.9351,-0.11408 -2.211488,-0.008 -0.276384,0.106061 -1.02327,1.050083 -1.659744,2.097834 -0.652518,1.074163 -1.702982,2.266163 -2.408579,2.733104 -1.165446,0.771258 -1.836265,1.950522 -1.457846,2.562816 0.175501,0.283968 -0.227786,2.747408 -0.612416,3.74088 -0.208586,0.538762 -0.129722,0.581383 0.693456,0.374781 1.525497,-0.382877 6.454541,-2.948071 8.582454,-4.466515 C 72.556174,73.063545 77.930267,64.802831 80.170408,54.495121 81.050526,50.445368 81.12188,42.789438 80.317093,38.75681 77.039765,22.33482 64.929313,10.319869 48.595435,7.285316 44.52181,6.528507 35.836072,6.758125 32.324324,7.715462 c -8.857589,2.414667 -16.475915,8.719042 -20.373547,16.859674 -4.2640946,8.906032 -4.1488286,19.531697 0.309815,28.560001 0.890909,1.804 1.794144,3.279927 2.007189,3.27984 0.213044,-8.9e-5 1.144898,-0.288089 2.070786,-0.64 6.452979,-2.452646 13.909371,2.338583 14.398639,9.252087 0.180333,2.548154 -0.206376,4.105236 -1.593194,6.414976 -1.908899,3.179268 -5.567462,5.173098 -9.492334,5.173098 -2.868457,0 -6.232606,-1.635997 -8.023766,-3.901984 C 8.3209754,68.529564 8.2174054,63.61741 11.343566,59.227122 l 0.691543,-0.971181 -1.617947,-3.080404 C 7.3590794,49.353268 6.1555904,44.665975 6.1524044,38.565357 6.1494044,32.74666 7.2707344,28.210418 10.04589,22.815136 14.632653,13.897845 22.557678,7.566128 32.349275,4.995797 36.612197,3.876764 43.156386,3.627262 47.814594,4.406171 c 13.269424,2.218805 24.889603,10.55929 30.93239,22.20199 3.153065,6.075043 4.474022,11.016406 4.760272,17.806976 0.513244,12.175469 -3.68001,23.153799 -12.044362,31.533268 -3.727171,3.733905 -6.556829,5.86153 -10.55567,7.936826 -6.537149,3.392615 -11.044464,4.516103 -18.892089,4.709012 -4.704493,0.115648 -6.054068,0.03864 -8.439476,-0.481543 z M 24.144088,72.837609 c 3.032581,-1.650538 4.562598,-5.185927 3.811046,-8.806135 -1.680879,-8.096753 -13.915418,-8.298628 -16.027038,-0.264455 -0.455745,1.733994 -0.184913,4.137357 0.65084,5.775572 0.80171,1.571478 3.237978,3.689254 4.728422,4.110275 1.944649,0.549322 4.998667,0.185143 6.83673,-0.815257 z m 0.754149,-4.276596 c 0.503991,-2.294656 -1.215361,-5.755235 -3.427882,-6.899373 -0.53195,-0.275085 -1.92299,-0.676816 -3.091201,-0.892739 l -2.124019,-0.392586 0.919077,-0.602995 c 0.531138,-0.348474 1.679239,-0.654829 2.72,-0.725792 4.789864,-0.326592 8.216215,4.719312 6.130382,9.028071 -0.810509,1.674288 -1.4478,1.948934 -1.126357,0.485414 z m 34.725694,-3.07495 c 1.273319,-0.851466 2.551203,-2.119898 2.551203,-2.532333 0,-0.233456 -0.714528,-0.441463 -1.84,-0.535645 -1.012,-0.08469 -2.113699,-0.269725 -2.44822,-0.4112 -0.567047,-0.239815 -0.593348,-0.145075 -0.388464,1.399408 0.372614,2.808893 0.641564,3.072061 2.125481,2.07977 z m -6.840368,-0.830925 c 0.434403,-0.829162 0.558669,-2.045543 0.61296,-6 0.08328,-6.066039 0.519693,-7.898766 3.428944,-14.400001 1.142,-2.552 2.437818,-5.792 2.879591,-7.2 0.85438,-2.723037 1.719625,-7.417119 1.422028,-7.714716 -0.09816,-0.09816 -0.48632,0.517462 -0.862576,1.36805 -0.376256,0.850589 -1.692118,3.092438 -2.924137,4.981888 -2.938938,4.507213 -5.171431,9.248279 -6.217927,13.204778 -1.26831,4.79512 -1.180326,12.4413 0.184468,16.03098 0.397404,1.045251 0.828515,0.966138 1.476649,-0.270979 z m -5.465219,-7.200001 c -0.0216,-5.288784 0.04131,-5.9276 0.913504,-9.274883 l 0.93671,-3.59488 -1.284822,-1.52512 c -3.391677,-4.02601 -8.944934,-7.63346 -12.280851,-7.977757 -1.702566,-0.175722 -1.931619,-0.09968 -6.317186,2.097289 -2.50281,1.253792 -4.550564,2.391427 -4.550564,2.52808 0,0.13665 1.332,0.963687 2.96,1.837863 3.958093,2.125347 6.914889,5.099322 12.556457,12.629408 4.069082,5.43121 6.832467,8.960001 7.01655,8.960001 0.04038,0 0.06297,-2.556 0.0502,-5.680001 z m 15.225997,2.411338 c 0.398009,-0.627283 0.320253,-2.953878 -0.113207,-3.387338 -0.550086,-0.550086 -3.290195,-0.48936 -3.765584,0.08345 -0.606281,0.730525 -0.790793,2.858915 -0.2836,3.271392 0.986442,0.802227 3.660752,0.823104 4.162391,0.0325 z m 4.441792,-3.631261 c 0.734704,-1.330957 1.262745,-2.493001 1.173424,-2.582323 -0.08932,-0.08932 -0.746621,0.135645 -1.460666,0.499923 -0.714042,0.364279 -1.511498,0.662323 -1.772122,0.662323 -0.754268,0 -0.900579,0.553949 -0.486486,1.841866 0.211875,0.658973 0.432374,1.378135 0.489997,1.598135 0.222269,0.848608 0.768816,0.311612 2.055853,-2.019924 z m -7.58448,-2.218352 c 0.669779,-0.279853 1.164464,-0.610726 1.099299,-0.735274 -1.226192,-2.343548 -1.580758,-3.485104 -1.430477,-4.605545 0.221901,-1.654388 1.479511,-3.23673 3.255959,-4.096695 0.796787,-0.385715 1.4487,-0.763546 1.4487,-0.839619 0,-0.337578 -1.712937,-2.684592 -1.959312,-2.684592 -0.455971,0 -3.027459,5.419581 -3.932448,8.287898 -0.466435,1.478345 -0.935804,3.566345 -1.043043,4.64 l -0.194979,1.952102 0.769258,-0.704726 c 0.423094,-0.3876 1.31726,-0.933699 1.987043,-1.213549 z m 7.493481,-2.288848 c 0.95689,-1.048013 1.001962,-3.508112 0.08562,-4.673056 -1.254237,-1.594503 -4.382105,-1.347018 -5.295337,0.418982 -0.575123,1.11216 -0.614461,3.501693 -0.06991,4.246413 0.971004,1.327927 4.070054,1.332426 5.279628,0.0076 z M 70.948328,45.2561 c 0.278742,-1.469414 0.506269,-3.123757 0.505609,-3.676314 l -0.0013,-1.004649 -0.611558,1.002934 c -0.336358,0.551613 -1.163821,1.407671 -1.838803,1.902346 -0.674986,0.494675 -1.339229,0.990541 -1.476099,1.10192 -0.136871,0.111382 0.202576,0.767325 0.754323,1.457654 0.55175,0.69033 1.141862,1.615146 1.31136,2.055146 0.427913,1.110829 0.725081,0.488813 1.356365,-2.839037 z m -2.373194,-3.560963 c 0.801059,-0.801059 0.884797,-3.229488 0.137143,-3.977143 -0.574032,-0.574032 -3.039319,-0.684765 -3.98441,-0.178969 -1.261475,0.675123 -0.968096,4.031273 0.400534,4.581939 1.024407,0.412166 2.832068,0.188838 3.446733,-0.425827 z m 2.538992,-5.80889 c -0.212,-1.117111 -0.502605,-2.160515 -0.645792,-2.318679 -0.300288,-0.331696 -1.8932,0.606919 -1.8932,1.115556 0,0.381174 2.636202,3.522477 2.810128,3.348553 0.06287,-0.06288 -0.05914,-1.02832 -0.271136,-2.14543 z m -6.618992,-0.252742 c 0.484,-0.242605 0.88,-0.559239 0.88,-0.703636 0,-0.269817 -1.550381,-0.765581 -1.729885,-0.553165 -0.254972,0.301722 -0.508729,1.927044 -0.284073,1.819482 0.139677,-0.06687 0.649958,-0.32008 1.133958,-0.562681 z m 3.461037,-2.909626 c 0.720621,-0.385665 0.830342,-1.817343 0.204838,-2.672769 -0.665283,-0.909829 -2.513692,-0.581841 -3.049283,0.541075 -0.831485,1.743297 1.002301,3.117579 2.844445,2.131694 z m -1.381037,-5.331882 c 0.396,-0.09431 0.719911,-0.334683 0.719799,-0.534165 -2.66e-4,-0.478448 -2.805114,-4.042696 -3.181357,-4.042696 -0.274653,0 -0.164554,2.771411 0.176131,4.433528 0.124704,0.608395 0.29033,0.711277 0.859939,0.534165 0.388019,-0.120649 1.029488,-0.296524 1.425488,-0.390832 z"
     id="path20"
     inkscape:connector-curvature="0" />
</svg>
