<?xml version="1.0" encoding="UTF-8" standalone="no"?>
<svg
   xmlns:dc="http://purl.org/dc/elements/1.1/"
   xmlns:cc="http://creativecommons.org/ns#"
   xmlns:rdf="http://www.w3.org/1999/02/22-rdf-syntax-ns#"
   xmlns:svg="http://www.w3.org/2000/svg"
   xmlns="http://www.w3.org/2000/svg"
   xmlns:xlink="http://www.w3.org/1999/xlink"
   xmlns:sodipodi="http://sodipodi.sourceforge.net/DTD/sodipodi-0.dtd"
   xmlns:inkscape="http://www.inkscape.org/namespaces/inkscape"
   width="221.79369mm"
   height="44.968952mm"
   viewBox="0 0 221.79368 44.968951"
   version="1.1"
   id="svg844"
   sodipodi:docname="Logo_Name.svg"
   inkscape:version="1.0.2 (e86c870879, 2021-01-15, custom)">
  <defs
     id="defs838">
    <linearGradient
       inkscape:collect="always"
       id="linearGradient2097">
      <stop
         style="stop-color:#000000;stop-opacity:0.38431373"
         offset="0"
         id="stop2093" />
      <stop
         style="stop-color:#000000;stop-opacity:0"
         offset="1"
         id="stop2095" />
    </linearGradient>
    <linearGradient
       inkscape:collect="always"
       id="linearGradient2060">
      <stop
         style="stop-color:#246923;stop-opacity:0.38431373"
         offset="0"
         id="stop2056" />
      <stop
         style="stop-color:#246923;stop-opacity:0"
         offset="1"
         id="stop2058" />
    </linearGradient>
    <linearGradient
       inkscape:collect="always"
       xlink:href="#linearGradient2060"
       id="linearGradient2062"
       x1="72.160889"
       y1="158.62302"
       x2="87.207817"
       y2="146.42152"
       gradientUnits="userSpaceOnUse" />
    <linearGradient
       inkscape:collect="always"
       xlink:href="#linearGradient2097"
       id="linearGradient2087"
       gradientUnits="userSpaceOnUse"
       x1="72.160889"
       y1="158.62302"
       x2="87.207817"
       y2="146.42152"
       gradientTransform="matrix(0.90927429,0,0,0.90927429,9.609756,11.397174)" />
    <clipPath
       clipPathUnits="userSpaceOnUse"
       id="clipPath1032">
      <use
         x="0"
         y="0"
         xlink:href="#g1028"
         id="use1034"
         transform="translate(50.313082,13.801783)"
         width="100%"
         height="100%" />
    </clipPath>
    <clipPath
       clipPathUnits="userSpaceOnUse"
       id="clipPath1059">
      <use
         x="0"
         y="0"
         xlink:href="#g1055"
         id="use1061" />
    </clipPath>
  </defs>
  <sodipodi:namedview
     id="base"
     pagecolor="#ffffff"
     bordercolor="#666666"
     borderopacity="1.0"
     inkscape:pageopacity="1"
     inkscape:pageshadow="2"
     inkscape:zoom="2.8"
     inkscape:cx="123.9155"
     inkscape:cy="112.70629"
     inkscape:document-units="mm"
     inkscape:current-layer="g2103"
     inkscape:document-rotation="0"
     showgrid="false"
     fit-margin-top="0"
     fit-margin-left="0"
     fit-margin-right="0"
     fit-margin-bottom="0"
     inkscape:window-width="1842"
     inkscape:window-height="1057"
     inkscape:window-x="-8"
     inkscape:window-y="-8"
     inkscape:window-maximized="1">
    <inkscape:grid
       type="xygrid"
       id="grid914"
       originx="-13.615121"
       originy="-40.872015" />
  </sodipodi:namedview>
  <metadata
     id="metadata841">
    <rdf:RDF>
      <cc:Work
         rdf:about="">
        <dc:format>image/svg+xml</dc:format>
        <dc:type
           rdf:resource="http://purl.org/dc/dcmitype/StillImage" />
        <dc:title></dc:title>
      </cc:Work>
    </rdf:RDF>
  </metadata>
  <g
     inkscape:label="Vrstva 1"
     inkscape:groupmode="layer"
     id="layer1"
     transform="translate(-64.453325,-110.72912)">
    <g
       id="g1565"
       transform="matrix(1.0141335,0,0,0.99464939,-0.74335552,0.39356049)">
      <g
         id="g1467"
         transform="matrix(-0.22614915,0.13733499,-0.13733499,-0.22614915,85.618874,150.14178)" />
      <g
         id="g1469"
         transform="matrix(-0.22614915,0.13733499,-0.13733499,-0.22614915,85.618874,150.14178)" />
      <g
         id="g1471"
         transform="matrix(-0.22614915,0.13733499,-0.13733499,-0.22614915,85.618874,150.14178)" />
      <g
         id="g1473"
         transform="matrix(-0.22614915,0.13733499,-0.13733499,-0.22614915,85.618874,150.14178)" />
      <g
         id="g1475"
         transform="matrix(-0.22614915,0.13733499,-0.13733499,-0.22614915,85.618874,150.14178)" />
      <g
         id="g1477"
         transform="matrix(-0.22614915,0.13733499,-0.13733499,-0.22614915,85.618874,150.14178)" />
      <g
         id="g1479"
         transform="matrix(-0.22614915,0.13733499,-0.13733499,-0.22614915,85.618874,150.14178)" />
      <g
         id="g1481"
         transform="matrix(-0.22614915,0.13733499,-0.13733499,-0.22614915,85.618874,150.14178)" />
      <g
         id="g1483"
         transform="matrix(-0.22614915,0.13733499,-0.13733499,-0.22614915,85.618874,150.14178)" />
      <g
         id="g1485"
         transform="matrix(-0.22614915,0.13733499,-0.13733499,-0.22614915,85.618874,150.14178)" />
      <g
         id="g1487"
         transform="matrix(-0.22614915,0.13733499,-0.13733499,-0.22614915,85.618874,150.14178)" />
      <g
         id="g1489"
         transform="matrix(-0.22614915,0.13733499,-0.13733499,-0.22614915,85.618874,150.14178)" />
      <g
         id="g1491"
         transform="matrix(-0.22614915,0.13733499,-0.13733499,-0.22614915,85.618874,150.14178)" />
      <g
         id="g1493"
         transform="matrix(-0.22614915,0.13733499,-0.13733499,-0.22614915,85.618874,150.14178)" />
      <g
         id="g1495"
         transform="matrix(-0.22614915,0.13733499,-0.13733499,-0.22614915,85.618874,150.14178)" />
      <g
         id="g2103"
         transform="matrix(1.1,0,0,1.1,-10.564346,-12.568055)">
        <g
           id="rect872"
           style="opacity:1">
          <path
             id="path1039"
             style="color:#000000;font-style:normal;font-variant:normal;font-weight:normal;font-stretch:normal;font-size:63.864px;line-height:1.25;font-family:quicksand;-inkscape-font-specification:quicksand;font-variant-ligatures:normal;font-variant-position:normal;font-variant-caps:normal;font-variant-numeric:normal;font-variant-alternates:normal;font-variant-east-asian:normal;font-feature-settings:normal;font-variation-settings:normal;text-indent:0;text-align:start;text-decoration:none;text-decoration-line:none;text-decoration-style:solid;text-decoration-color:#000000;letter-spacing:0px;word-spacing:0px;text-transform:none;writing-mode:lr-tb;direction:ltr;text-orientation:mixed;dominant-baseline:auto;baseline-shift:baseline;text-anchor:start;white-space:normal;shape-padding:0;shape-margin:0;inline-size:0;clip-rule:nonzero;display:inline;overflow:visible;visibility:visible;isolation:auto;mix-blend-mode:normal;color-interpolation:sRGB;color-interpolation-filters:linearRGB;solid-color:#000000;solid-opacity:1;vector-effect:none;fill:#059669;fill-opacity:1;fill-rule:evenodd;stroke:none;stroke-width:4;stroke-linecap:round;stroke-linejoin:round;stroke-miterlimit:12.4;stroke-dasharray:none;stroke-dashoffset:0;stroke-opacity:1;paint-order:markers fill stroke;color-rendering:auto;image-rendering:auto;shape-rendering:auto;text-rendering:auto;enable-background:accumulate;stop-color:#000000;stop-opacity:1"
             d="M 22.576172 1.9804688 C 11.188078 1.9804688 2.0195317 10.973266 2.0195312 22.142578 L 2.0195312 147.82031 C 2.0195312 158.98958 11.188078 167.98047 22.576172 167.98047 L 147.46289 167.98047 C 158.851 167.98047 168.01953 158.98958 168.01953 147.82031 L 168.01953 22.142578 C 168.01953 10.973266 158.851 1.9804688 147.46289 1.9804688 L 22.576172 1.9804688 z M 84.712891 14.982422 C 89.482431 15.017078 94.297417 15.524656 99.099609 16.53125 C 129.83296 22.974153 152.66639 48.428104 155.27734 79.164062 C 157.88833 109.90003 139.66897 138.72108 110.44727 150.07031 C 81.225577 161.41951 47.84683 152.64071 28.322266 128.47266 L 32.900391 124.91992 C 47.378727 142.8416 70.103794 151.53283 92.447266 148.74414 C 92.919946 148.5067 93.514181 148.22658 94.332031 147.83984 C 96.105588 147.00118 97.30993 145.68864 97.929688 143.97852 C 98.549445 142.26843 98.584681 140.159 97.980469 137.72852 C 97.802269 137.01188 97.677125 136.6181 97.494141 136.34766 C 97.311156 136.07717 97.05193 135.89542 96.554688 135.61133 C 94.616094 134.50404 92.967405 132.01769 92.207031 129.11914 C 91.520543 126.50241 90.135447 124.31403 88.640625 123.4082 C 88.082176 123.06973 87.073946 122.83863 85.824219 122.76172 C 84.574491 122.6848 83.079573 122.75629 81.535156 122.98828 C 80.287406 123.17726 79.56242 123.26653 79.03125 123.21484 C 78.50008 123.16315 78.172449 122.94288 77.837891 122.5918 C 77.553311 122.29294 77.358995 122.00794 77.292969 121.69531 C 77.2269 121.38273 77.302494 121.06226 77.515625 120.73438 C 77.941921 120.07861 78.890997 119.35041 80.521484 118.26367 C 81.26173 117.7703 82.023391 117.28462 82.654297 116.90625 C 83.285202 116.52792 83.767161 116.25793 84.021484 116.16406 L 84.564453 115.96094 L 83.214844 114.62109 C 77.47184 108.75117 75.156018 105.1066 72.9375 101.35156 C 70.718986 97.596491 68.597623 93.737575 63.195312 87.378906 L 63.1875 87.378906 L 63.1875 87.371094 C 58.370395 81.190158 56.894071 79.474961 54.804688 77.621094 C 50.441815 73.750017 45.501754 71.055708 38.466797 68.712891 C 37.486331 68.386372 36.529691 68.056841 35.789062 67.785156 C 35.418746 67.649521 35.104212 67.528102 34.859375 67.429688 C 34.614538 67.331269 34.455239 67.261845 34.357422 67.203125 C 33.928622 66.945086 33.644011 66.442994 33.509766 65.878906 C 33.375521 65.31486 33.388068 64.681113 33.591797 64.109375 C 33.672538 63.882764 33.769845 63.67735 33.953125 63.472656 C 34.136388 63.267962 34.400669 63.062084 34.826172 62.808594 C 35.677174 62.301324 37.18108 61.575298 40.013672 60.232422 C 43.311008 58.669179 46.989651 56.775182 48.142578 56.048828 C 54.278835 52.18321 58.035697 50.854894 61.943359 51.210938 C 69.560709 51.904867 78.651188 57.717074 88.443359 68.083984 L 88.443359 68.091797 L 88.451172 68.099609 C 94.212065 75.478771 89.812007 69.672064 94.455078 76.111328 C 94.470678 76.088171 94.477964 76.075822 94.496094 76.046875 C 94.599012 75.87886 94.742264 75.628388 94.916016 75.320312 C 95.263484 74.704042 95.734818 73.851275 96.234375 72.90625 C 97.241255 71.001519 99.494505 67.316985 101.25781 64.707031 C 103.01391 62.107746 104.94955 58.926763 105.53906 57.673828 C 107.55106 53.397499 108.47377 44.258679 107.41797 38.886719 C 107.13164 37.429834 107.00074 36.508607 107.07031 35.833984 C 107.1399 35.159321 107.4348 34.734625 107.92773 34.363281 C 108.48105 33.946532 109.01052 33.704448 109.54102 33.652344 L 109.54102 33.654297 C 110.07152 33.602358 110.59663 33.741949 111.13086 34.056641 C 112.55274 34.89386 116.1971 37.848785 118.20508 39.775391 C 119.21158 40.741092 120.31736 41.785261 120.6582 42.09375 L 120.73242 42.166016 L 120.73242 42.173828 C 120.84591 42.287175 120.98598 42.456099 121.22656 42.748047 C 121.50193 43.082257 121.86122 43.524604 122.27344 44.048828 C 123.09791 45.097234 124.14397 46.467656 125.2207 47.900391 C 129.42692 53.497514 130.5995 55.579294 132.38477 60.638672 C 136.50063 72.302806 135.08694 86.641006 128.48242 100.3418 C 126.25135 104.97003 124.1154 108.31676 120.20508 113.3457 C 119.30034 114.50928 118.47132 115.60344 117.86719 116.42383 C 117.56513 116.834 117.32144 117.1753 117.15039 117.42383 C 117.06489 117.5483 116.99773 117.65266 116.95312 117.72461 C 116.93069 117.76059 116.91399 117.78401 116.9043 117.80469 C 116.90233 117.80882 116.90568 117.80965 116.9043 117.8125 C 116.9048 117.82077 116.90828 117.85594 116.96094 117.91797 C 117.01845 117.98579 117.11597 118.07084 117.25 118.16016 C 117.51807 118.33843 117.91862 118.53117 118.36914 118.70898 C 119.27018 119.06424 120.39592 119.35088 121.16992 119.36328 C 122.04474 119.37656 123.59336 119.17341 124.5625 118.91992 C 125.53398 118.66478 126.34252 118.64827 126.94922 118.87695 C 127.55592 119.10547 127.94443 119.60387 128.01172 120.2832 C 128.04562 120.6251 127.90786 121.04885 127.66602 121.54297 C 127.42419 122.03709 127.07326 122.59858 126.6543 123.17383 C 125.81637 124.32429 124.70579 125.52417 123.64844 126.33203 C 122.05126 127.55279 121.38821 127.85433 119.90039 128.03711 C 118.89705 128.16034 117.32337 128.05011 116.32617 127.78711 C 115.84768 127.66098 115.33676 127.54233 114.90234 127.45508 C 114.46792 127.36782 114.10141 127.31468 113.94727 127.31055 C 113.42264 127.29272 112.84436 127.58149 112.22656 128.21484 C 111.60877 128.8482 110.95884 129.81702 110.31641 131.09766 C 108.81957 134.08152 106.74669 136.11336 104.53516 136.6875 L 103.36523 136.98633 L 103.69531 138.70508 C 103.89858 139.76936 103.91146 141.68406 103.72852 143.01953 C 103.55216 144.30705 103.19855 145.51545 102.69336 146.63477 C 104.57578 146.08984 106.44676 145.46736 108.29883 144.74805 C 135.14945 134.31969 151.86435 107.88709 149.46484 79.640625 C 147.06538 51.394115 126.11997 28.046997 97.880859 22.126953 C 69.645669 16.207736 40.83021 29.121314 26.880859 53.933594 L 26.871094 53.941406 C 26.843604 53.992518 21.783467 63.418882 21.386719 74.658203 C 20.988874 85.928042 24.710713 98.546263 43.736328 106.60156 L 41.421875 111.85938 C 20.513625 103.00803 15.09554 87.297681 15.548828 74.457031 C 16.002074 61.616381 21.742188 51.212891 21.742188 51.212891 L 21.75 51.195312 L 21.757812 51.179688 C 33.140569 30.924106 53.672679 17.932593 76.191406 15.423828 C 79.006252 15.110227 81.851166 14.961628 84.712891 14.982422 z M 116.54102 45.921875 C 116.5524 45.986385 116.56199 46.039929 116.57422 46.123047 C 116.61313 46.3901 116.65274 46.750749 116.69727 47.181641 C 116.78635 48.043382 116.88776 49.189489 116.96875 50.404297 C 117.04949 51.615879 117.13859 52.692757 117.2168 53.457031 C 117.25592 53.839127 117.29344 54.148452 117.32422 54.345703 C 117.3297 54.381266 117.33478 54.389022 117.33984 54.417969 C 117.7158 54.061511 118.27684 53.7338 119.01953 53.490234 C 119.86726 53.212347 120.80993 53.03181 121.52344 53.078125 L 122.73438 53.158203 L 120.48633 50.355469 C 119.44172 49.051464 118.20569 47.644193 117.31445 46.697266 C 116.97027 46.331711 116.74795 46.11375 116.54102 45.921875 z M 117.2168 54.480469 C 117.21711 54.480469 117.20217 54.483891 117.1875 54.488281 C 117.18829 54.491537 117.19063 54.493035 117.19141 54.496094 C 117.20006 54.491579 117.21182 54.48784 117.2168 54.482422 L 117.2168 54.480469 z M 61.384766 56.429688 C 58.996476 56.277635 55.845399 57.541802 50.728516 60.775391 C 48.653527 62.086715 45.080435 63.937634 43.505859 64.513672 C 43.542667 64.554197 43.623372 64.638722 43.820312 64.757812 C 44.277703 65.03446 45.152661 65.457655 46.537109 66.074219 C 55.634368 70.125674 60.376661 74.330739 69.314453 86.3125 C 74.146176 92.818672 75.2908 94.831959 76.412109 96.683594 C 77.533423 98.535228 78.631121 100.23547 83.378906 106.1582 C 84.747055 107.82859 86.087494 109.42478 87.142578 110.65625 C 87.670123 111.27199 88.123621 111.79773 88.476562 112.19141 C 88.829504 112.58504 89.090681 112.85296 89.185547 112.93359 L 89.646484 113.33008 L 89.275391 111.61719 C 87.616363 104.07353 88.132942 94.692948 90.675781 86.257812 L 91.712891 82.832031 L 90.404297 80.263672 C 90.394178 80.248454 90.406182 80.264588 90.396484 80.248047 C 87.958638 76.603912 87.946993 76.583239 87.908203 76.533203 C 87.869376 76.483001 87.761212 76.33941 85.173828 72.501953 C 80.935196 67.871565 76.422258 63.940631 72.246094 61.123047 C 68.069929 58.305463 64.230403 56.610807 61.384766 56.429688 z M 121.625 56.8125 C 120.60639 56.744943 119.68705 57.209011 119.08594 57.923828 C 118.28444 58.876958 118.0619 60.254699 118.98633 61.4375 C 119.9934 62.726205 121.47423 62.92554 122.62695 62.429688 C 123.77967 61.93379 124.5935 60.755645 124.25 59.183594 C 124.09757 58.485938 123.95571 58.06835 123.73828 57.779297 C 123.52086 57.490327 123.21249 57.30076 122.66797 57.068359 C 122.31424 56.91732 121.96454 56.835019 121.625 56.8125 z M 111.69141 56.841797 C 111.00053 59.435086 109.35925 62.462151 105.9668 67.445312 C 94.633308 84.092943 91.094621 100.27251 95.658203 114.39648 C 95.972714 115.36988 96.229818 116.10347 96.457031 116.58398 C 96.570659 116.82445 96.67631 116.99938 96.769531 117.10938 C 96.862752 117.21933 96.936984 117.25954 96.984375 117.26367 C 97.031723 117.26822 97.085004 117.2467 97.181641 117.1582 C 97.278277 117.06959 97.398748 116.91354 97.527344 116.69727 C 97.784555 116.26501 98.086057 115.59294 98.464844 114.68555 C 98.983403 113.44316 99.286239 112.62864 99.421875 111.94922 C 99.557511 111.26976 99.540225 110.71739 99.421875 109.96875 C 98.423613 103.65358 99.102225 95.243083 101.07617 89.640625 C 101.70031 87.869173 103.30283 84.152157 104.64258 81.361328 C 108.70958 72.889513 110.17457 68.744834 111.04102 63.261719 C 111.29027 61.684416 111.56026 59.207276 111.64062 57.779297 C 111.66394 57.366435 111.67665 57.127128 111.69141 56.841797 z M 127.49414 63.132812 C 127.51999 63.136948 127.50582 63.126228 127.44531 63.181641 C 127.38481 63.237053 127.29295 63.346029 127.18164 63.488281 C 126.87361 63.882038 126.02312 64.630459 125.23828 65.224609 C 124.88729 65.490257 124.6257 65.690148 124.44727 65.839844 C 124.27904 65.980855 124.20088 66.080199 124.18359 66.113281 C 124.18823 66.117416 124.17982 66.118454 124.19922 66.130859 C 124.26861 66.172212 124.43005 66.234987 124.64453 66.308594 C 125.40902 66.570974 126.29403 67.177335 127.07422 67.898438 C 127.8544 68.619577 128.5226 69.446825 128.82031 70.167969 C 128.91374 70.39429 129.00431 70.568877 129.0918 70.75 C 129.07746 70.638349 129.06975 70.570769 129.05078 70.435547 C 128.95984 69.791939 128.81715 68.891139 128.63867 67.90625 C 128.63699 67.89798 128.63247 67.891083 128.63086 67.882812 L 128.63086 67.873047 C 128.45409 66.900109 128.25547 65.931712 128.08594 65.152344 C 127.91438 64.36363 127.76051 63.757594 127.69141 63.578125 C 127.62521 63.406513 127.57804 63.278685 127.53516 63.205078 C 127.49212 63.131388 127.46842 63.128681 127.49414 63.132812 z M 116.28516 64.634766 L 116.01367 66.285156 L 115.76758 67.763672 L 116.47461 67.238281 C 117.03283 66.818017 117.80733 66.409639 118.34375 66.228516 L 118.34375 66.195312 L 118.45898 66.154297 C 118.64058 66.100952 118.78006 66.053714 118.91211 66.007812 C 118.82859 65.974735 118.75433 65.941514 118.6582 65.904297 C 118.32282 65.778668 117.6332 65.423627 117.07617 65.095703 L 116.28516 64.634766 z M 121.44141 69.521484 L 121.44141 69.523438 C 120.61875 69.525791 119.77551 69.674156 119.23438 69.943359 C 118.53265 70.292249 117.87166 71.030658 117.43164 71.873047 C 116.99163 72.715436 116.77153 73.658036 116.9043 74.392578 C 117.03917 75.138657 117.43601 75.948374 117.95703 76.621094 C 118.47805 77.293772 119.12118 77.827612 119.70312 78.027344 C 122.77657 79.082242 126.2321 76.521027 125.89648 73.447266 C 125.89564 73.438995 125.8895 73.432099 125.88867 73.423828 C 125.82057 72.851388 125.50349 72.127407 125.06445 71.476562 C 124.62011 70.817824 124.05418 70.236751 123.51562 69.925781 C 123.07095 69.668156 122.26407 69.519127 121.44141 69.521484 z M 113.21484 75.662109 C 113.18402 75.726619 113.1536 75.78384 113.11523 75.871094 C 113.00022 76.13302 112.86216 76.490582 112.7207 76.865234 C 112.42517 77.647786 111.13769 80.416802 109.83789 83.076172 C 106.23029 90.457071 104.70543 95.468502 104.3457 101.08594 L 104.3125 101.5957 L 104.61719 101.07031 C 105.69313 99.228739 108.12887 97.56146 110.16016 97.291016 L 111.50195 97.113281 L 110.29883 95.5625 C 107.80286 92.368899 107.64759 88.175411 109.9043 84.908203 C 111.24093 82.973037 113.99232 81.173781 116.04688 80.927734 C 116.36245 80.890104 116.60652 80.859025 116.7793 80.830078 C 116.85607 80.817672 116.86307 80.809281 116.91211 80.796875 C 116.88036 80.777439 116.8806 80.772858 116.83789 80.748047 C 116.65003 80.642888 116.38215 80.426255 116.06445 80.142578 C 115.74675 79.858818 115.38954 79.515399 115.06641 79.173828 L 115.01758 79.125 L 115.01758 79.091797 C 114.28508 78.297873 113.74767 77.426809 113.51953 76.580078 C 113.42496 76.229162 113.32067 75.916987 113.23828 75.708984 C 113.22931 75.68618 113.22328 75.68111 113.21484 75.662109 z M 129.24023 76.306641 C 128.88716 77.399294 128.28955 78.510845 127.36133 79.439453 C 126.29903 80.502167 124.98808 81.346458 123.68164 81.685547 L 122.69336 81.943359 L 123.31055 82.419922 C 124.98258 83.710405 126.68667 86.222205 127.0332 87.945312 L 127.20508 88.800781 L 127.42773 88.017578 C 127.65301 87.229609 128.09065 85.355446 128.39844 83.873047 C 128.70409 82.400944 129.05601 79.780996 129.16602 78.074219 C 129.21653 77.295513 129.23349 76.719337 129.24023 76.306641 z M 117.9082 84.503906 C 117.73837 84.502895 117.5693 84.50995 117.39844 84.527344 C 113.93965 84.879252 112.24599 87.555019 112.25 90.189453 C 112.25201 91.50665 112.68524 92.803232 113.54297 93.791016 C 114.4007 94.778841 115.67696 95.460194 117.40625 95.537109 C 121.06261 95.699252 123.97657 92.640731 123.35156 89.318359 C 122.8329 86.561656 120.45576 84.519068 117.9082 84.503906 z M 123.91992 97.201172 L 123.35156 97.613281 C 121.91275 98.669462 120.31097 99.197311 118.20508 99.316406 L 116.93555 99.380859 L 117.46289 99.921875 C 118.46609 100.93621 119.09468 102.64596 119.20898 104.57422 C 119.23188 104.95863 119.25982 105.29697 119.29102 105.53516 C 119.3562 105.43839 119.42366 105.34195 119.51367 105.20508 C 119.75977 104.83076 120.08733 104.32488 120.43555 103.77539 C 121.12613 102.68567 122.26837 100.60907 122.95703 99.1875 L 123.91992 97.201172 z M 111.61523 100.91016 C 111.45244 100.91096 111.28072 100.92012 111.09766 100.93945 C 109.37671 101.12058 108.17936 102.17367 107.70508 103.48438 C 107.23079 104.79508 107.48631 106.35229 108.70898 107.54688 C 109.95183 108.76123 111.58456 108.92853 112.92578 108.36328 C 114.267 107.79804 115.30076 106.50219 115.32227 104.75195 C 115.33152 104.00554 115.08089 103.32759 114.51562 102.62695 C 113.92348 101.89303 113.42012 101.4372 112.90039 101.18164 C 112.5106 100.99059 112.10361 100.90773 111.61523 100.91016 z M 54.654297 101.8457 C 56.269085 101.79894 57.870272 102.0629 59.367188 102.60352 L 59.369141 102.60352 C 62.362966 103.68476 64.94239 105.8744 66.384766 108.91992 C 69.269559 115.01092 66.576599 122.30941 60.382812 125.16992 C 54.617357 127.83264 48.070902 125.40248 44.777344 120.21094 C 44.385739 120.03015 44.048678 119.72511 43.822266 119.36328 C 43.818049 119.35501 43.801091 119.35397 43.796875 119.3457 C 43.777059 119.30311 43.755146 119.26022 43.738281 119.2168 C 43.725633 119.19281 43.709914 119.16934 43.697266 119.14453 C 43.688833 119.12923 43.705698 119.11224 43.697266 119.0957 C 43.563189 118.69893 43.548048 118.27398 43.654297 117.86914 C 41.722711 112.04739 44.059446 105.56336 49.855469 102.95117 C 51.41065 102.25023 53.039509 101.89246 54.654297 101.8457 z M 54.8125 106.17969 C 53.771858 106.21509 52.718613 106.45034 51.707031 106.90625 C 47.660663 108.72985 45.898525 113.36031 47.738281 117.3418 C 47.75093 117.37116 47.766648 117.40269 47.779297 117.43164 C 47.783513 117.44405 47.792659 117.46025 47.796875 117.47266 C 47.801091 117.47679 47.801902 117.4777 47.804688 117.48047 C 49.719915 121.42734 54.4575 123.08916 58.486328 121.22852 C 62.515241 119.36783 64.233087 114.7164 62.355469 110.75195 C 61.416681 108.76977 59.765301 107.35226 57.84375 106.6582 L 57.841797 106.65625 C 56.881021 106.30932 55.853142 106.14428 54.8125 106.17969 z M 55.365234 107.25391 C 56.934278 107.31011 58.647531 107.77379 60.125 109 C 60.568215 109.36469 61.064537 109.89054 61.408203 110.43945 C 61.580605 110.71478 61.715337 110.99397 61.779297 111.2793 C 61.843257 111.56459 61.827107 111.86767 61.664062 112.12695 C 61.479518 112.42304 61.176043 112.60433 60.857422 112.66016 C 60.536553 112.71681 60.197025 112.67199 59.861328 112.57812 C 59.189947 112.39061 58.517434 111.99624 58.066406 111.55273 C 56.532188 110.04528 54.639343 109.66276 53.117188 109.56641 C 52.356108 109.51678 51.699349 109.54561 51.214844 109.5332 C 50.9726 109.527 50.780037 109.51391 50.595703 109.45312 C 50.503536 109.42254 50.396641 109.38125 50.316406 109.27539 C 50.236171 109.16953 50.222173 109.00577 50.25 108.89453 C 50.309407 108.65676 50.469566 108.52529 50.669922 108.37891 C 50.870282 108.23223 51.125161 108.09503 51.4375 107.95898 C 52.06217 107.68693 52.903683 107.43817 53.857422 107.32031 C 54.33429 107.26149 54.84222 107.23517 55.365234 107.25391 z M 106.04102 110.31641 C 106.03988 110.48434 106.08679 110.82133 106.18945 111.34961 C 106.29368 111.88595 106.45665 112.61946 106.66797 113.5957 L 107.47461 117.36719 L 109.23633 116.81055 L 111.11523 116.21289 L 112.86914 113.97461 C 113.72497 112.88485 114.21987 112.19765 114.45703 111.80273 C 113.59368 112.44415 112.07826 112.56338 110.5293 112.33594 C 108.97396 112.10747 107.39225 111.52342 106.4375 110.64062 C 106.24638 110.46409 106.11872 110.36851 106.04102 110.31641 z M 102.83789 114.13672 L 102.33594 115.32422 C 101.94303 116.25614 101.20676 118.07239 100.69727 119.35547 C 100.0978 120.86512 99.631171 121.73452 98.925781 122.03516 C 98.573089 122.18527 98.173445 122.16918 97.732422 122.02734 C 97.291399 121.88534 96.793997 121.61714 96.193359 121.24414 C 93.627027 119.64976 89.920265 118.70878 87.777344 119.07227 L 87.488281 119.11914 L 88.607422 119.41992 C 92.174281 120.36801 94.632675 123.2352 95.822266 127.76953 C 96.190554 129.17332 96.591295 130.17797 97.107422 130.92773 C 97.623553 131.67749 98.257606 132.17832 99.125 132.58398 C 100.57481 133.26187 101.4713 133.36706 103.22461 133.04492 C 104.02285 132.8982 104.59389 132.62584 105.18555 131.99414 C 105.7772 131.36244 106.38007 130.35619 107.18555 128.77148 C 108.21795 126.7403 108.81444 125.95465 110.04297 125.03125 C 111.03228 124.28778 111.86124 123.85388 112.85156 123.69922 C 113.84189 123.54464 114.97833 123.66971 116.62305 123.99805 C 118.58091 124.38717 119.49839 124.38362 120.22266 124.02344 C 120.26967 123.99987 120.27625 123.98747 120.32031 123.9668 C 120.66994 123.78865 120.95725 123.62904 121.10352 123.51367 C 121.18586 123.44875 121.23038 123.39395 121.24219 123.36914 C 121.25425 123.34433 121.25912 123.36592 121.25195 123.35352 C 121.23789 123.33119 121.06712 123.21793 120.74023 123.12695 C 120.41336 123.03598 119.93911 122.9418 119.31641 122.83594 C 117.99208 122.61119 116.4437 122.10968 115.7832 121.65625 C 114.42609 120.72533 113.10708 120.26316 111.83008 120.25977 C 110.55308 120.25637 109.30749 120.71165 108.08398 121.63281 C 107.22535 122.27903 106.53468 122.53989 105.82031 122.44727 C 105.58529 122.41708 105.39775 122.39544 105.23438 122.34375 C 105.07096 122.29206 104.92437 122.20032 104.81445 122.06055 C 104.59467 121.78121 104.487 121.34654 104.23828 120.49414 C 103.96026 119.5413 103.51092 117.60779 103.23438 116.17969 L 102.83789 114.13672 z "
             transform="matrix(0.23717815,0,0,0.24182421,68.047647,112.27014)" />
          <path
             style="color:#000000;font-style:normal;font-variant:normal;font-weight:normal;font-stretch:normal;font-size:63.864px;line-height:1.25;font-family:quicksand;-inkscape-font-specification:quicksand;font-variant-ligatures:normal;font-variant-position:normal;font-variant-caps:normal;font-variant-numeric:normal;font-variant-alternates:normal;font-variant-east-asian:normal;font-feature-settings:normal;font-variation-settings:normal;text-indent:0;text-align:start;text-decoration:none;text-decoration-line:none;text-decoration-style:solid;text-decoration-color:#000000;letter-spacing:0px;word-spacing:0px;text-transform:none;writing-mode:lr-tb;direction:ltr;text-orientation:mixed;dominant-baseline:auto;baseline-shift:baseline;text-anchor:start;white-space:normal;shape-padding:0;shape-margin:0;inline-size:0;clip-rule:nonzero;display:inline;overflow:visible;visibility:visible;isolation:auto;mix-blend-mode:normal;color-interpolation:sRGB;color-interpolation-filters:linearRGB;solid-color:#000000;solid-opacity:1;vector-effect:none;fill:#059669;fill-opacity:1;fill-rule:evenodd;stroke:none;stroke-linecap:round;stroke-linejoin:round;stroke-miterlimit:12.4;stroke-dasharray:none;stroke-dashoffset:0;stroke-opacity:1.0;paint-order:markers fill stroke;color-rendering:auto;image-rendering:auto;shape-rendering:auto;text-rendering:auto;enable-background:accumulate;stop-color:#000000;stop-opacity:1;"
             d="M 73.402344 112.26953 C 70.444266 112.26953 68.046875 114.66692 68.046875 117.625 L 68.046875 148.01562 C 68.046875 150.9737 70.444266 153.37109 73.402344 153.37109 L 103.02344 153.37109 C 105.98152 153.37109 108.37695 150.9737 108.37695 148.01562 L 108.37695 117.625 C 108.37695 114.66692 105.98152 112.26953 103.02344 112.26953 L 73.402344 112.26953 z M 73.402344 113.22852 L 103.02344 113.22852 C 105.46738 113.22852 107.41992 115.18106 107.41992 117.625 L 107.41992 148.01562 C 107.41992 150.45955 105.46738 152.41211 103.02344 152.41211 L 73.402344 152.41211 C 70.958407 152.41211 69.005859 150.45955 69.005859 148.01562 L 69.005859 117.625 C 69.005859 115.18106 70.958407 113.22852 73.402344 113.22852 z "
             id="path1041" />
        </g>
        <g
           id="g1057"
           clip-path="url(#clipPath1059)">
          <g
             inkscape:label="Clip"
             id="g1055">
            <g
               inkscape:label="Clip"
               id="g1028"
               transform="translate(-50.313082,-13.801783)">
              <g
                 id="g876"
                 transform="translate(5.34e-4,1.166e-4)">
                <g
                   id="path1461"
                   style="opacity:1"
                   transform="translate(50.432875,13.801783)" />
                <g
                   id="path1437"
                   style="opacity:1"
                   transform="translate(50.432875,13.801783)" />
              </g>
            </g>
          </g>
        </g>
        <g
           aria-label="Luštěniny"
           transform="scale(0.99034709,1.009747)"
           id="text874"
           style="font-style:normal;font-variant:normal;font-weight:bold;font-stretch:normal;font-size:32.2444px;line-height:1.25;font-family:quicksand;-inkscape-font-specification:'quicksand Bold';letter-spacing:0px;word-spacing:0px;fill:#059669;fill-opacity:1;stroke-width:0.806108">
          <path
             d="m 132.63909,139.90328 q 0.83835,0 1.38651,0.54815 0.5804,0.51591 0.5804,1.35427 0,0.80611 -0.5804,1.35426 -0.54816,0.51591 -1.38651,0.51591 h -10.47943 q -0.83835,0 -1.41875,-0.54815 -0.54816,-0.5804 -0.54816,-1.41876 V 123.0717 q 0,-0.83835 0.5804,-1.38651 0.5804,-0.5804 1.48324,-0.5804 0.77387,0 1.35427,0.5804 0.61264,0.54816 0.61264,1.38651 v 17.37973 l -0.70938,-0.54815 z"
             style="font-style:normal;font-variant:normal;font-weight:bold;font-stretch:normal;font-family:quicksand;-inkscape-font-specification:'quicksand Bold';fill:#059669;fill-opacity:1;stroke-width:0.806108"
             id="path895" />
          <path
             d="m 150.79263,126.42512 q 0.83836,0 1.38651,0.5804 0.54816,0.54815 0.54816,1.38651 v 8.19007 q 0,3.41791 -1.90242,5.41706 -1.90242,1.99916 -5.48155,1.99916 -3.57913,0 -5.48155,-1.99916 -1.87017,-1.99915 -1.87017,-5.41706 v -8.19007 q 0,-0.83836 0.54815,-1.38651 0.54816,-0.5804 1.38651,-0.5804 0.83836,0 1.38651,0.5804 0.54816,0.54815 0.54816,1.38651 v 8.19007 q 0,1.96691 0.87059,2.93425 0.8706,0.93508 2.6118,0.93508 1.77344,0 2.64404,-0.93508 0.8706,-0.96734 0.8706,-2.93425 v -8.19007 q 0,-0.83836 0.54816,-1.38651 0.54815,-0.5804 1.3865,-0.5804 z"
             style="font-style:normal;font-variant:normal;font-weight:bold;font-stretch:normal;font-family:quicksand;-inkscape-font-specification:'quicksand Bold';fill:#059669;fill-opacity:1;stroke-width:0.806108"
             id="path897" />
          <path
             d="m 155.91949,140.99959 q -0.32244,-0.45142 -0.2902,-1.1608 0.0323,-0.70938 0.83836,-1.22529 0.51591,-0.32244 1.09631,-0.25795 0.58039,0.0322 1.12855,0.5804 0.93509,0.93508 1.96691,1.45099 1.03182,0.51591 2.57955,0.51591 0.48367,-0.0322 1.06406,-0.12897 0.5804,-0.12898 0.99958,-0.51591 0.45142,-0.41918 0.45142,-1.25754 0,-0.70937 -0.48366,-1.12855 -0.48367,-0.41918 -1.28978,-0.70938 -0.77386,-0.2902 -1.7412,-0.54815 -0.99957,-0.2902 -2.06364,-0.64489 -1.03182,-0.35469 -1.90242,-0.90284 -0.8706,-0.5804 -1.41875,-1.51549 -0.54816,-0.93509 -0.54816,-2.35384 0,-1.61222 0.90285,-2.74077 0.90284,-1.12856 2.32159,-1.7412 1.451,-0.61265 3.03098,-0.61265 0.99957,0 2.09588,0.25796 1.09631,0.22571 2.09589,0.77387 0.99958,0.51591 1.67671,1.3865 0.35469,0.48367 0.41918,1.1608 0.0645,0.67714 -0.61265,1.22529 -0.48366,0.38693 -1.12855,0.35469 -0.64489,-0.0645 -1.06407,-0.45142 -0.54815,-0.70938 -1.48324,-1.12856 -0.90284,-0.41917 -2.09589,-0.41917 -0.48366,0 -1.06406,0.12897 -0.54816,0.0967 -0.96733,0.48367 -0.41918,0.35469 -0.41918,1.1608 0,0.74162 0.48367,1.19304 0.48366,0.41918 1.28977,0.70938 0.83836,0.25795 1.77344,0.51591 0.96734,0.25795 1.96691,0.61264 0.99958,0.35469 1.83793,0.93509 0.83836,0.5804 1.35427,1.51549 0.51591,0.90284 0.51591,2.32159 0,1.64447 -0.96733,2.80527 -0.96734,1.16079 -2.41833,1.77344 -1.451,0.5804 -2.96649,0.5804 -1.90242,0 -3.80484,-0.64489 -1.90242,-0.67713 -3.15995,-2.35384 z m 6.0297,-16.67036 q -1.22528,0 -1.9669,-0.96733 l -1.41876,-1.77344 q -0.38693,-0.51591 -0.38693,-1.03182 0,-0.41918 0.32244,-0.67713 0.35469,-0.25796 0.99958,-0.25796 0.5804,0 1.451,0.74162 l 2.09588,1.80569 -0.83835,-0.0967 1.96691,-1.70895 q 0.45142,-0.38693 0.80611,-0.54815 0.35469,-0.19347 0.96733,-0.19347 0.45142,0 0.74162,0.25796 0.32244,0.22571 0.32244,0.58039 0,0.22572 -0.12897,0.51592 -0.0967,0.25795 -0.38694,0.61264 l -1.41875,1.77344 q -0.74162,0.96733 -1.96691,0.96733 z"
             style="font-style:normal;font-variant:normal;font-weight:bold;font-stretch:normal;font-family:quicksand;-inkscape-font-specification:'quicksand Bold';fill:#059669;fill-opacity:1;stroke-width:0.806108"
             id="path899" />
          <path
             d="m 172.65429,126.74756 h 7.64192 q 0.77386,0 1.28977,0.51591 0.51591,0.51591 0.51591,1.28978 0,0.74162 -0.51591,1.25753 -0.51591,0.48367 -1.28977,0.48367 h -7.64192 q -0.77387,0 -1.28978,-0.51591 -0.51591,-0.51591 -0.51591,-1.28978 0,-0.74162 0.51591,-1.22529 0.51591,-0.51591 1.28978,-0.51591 z m 3.45015,-4.03055 q 0.83835,0 1.35426,0.5804 0.54816,0.54816 0.54816,1.38651 v 14.34876 q 0,0.45142 0.16122,0.74162 0.19346,0.2902 0.48366,0.41918 0.32245,0.12898 0.67714,0.12898 0.38693,0 0.70937,-0.12898 0.32245,-0.16122 0.74162,-0.16122 0.45143,0 0.80611,0.41917 0.38694,0.41918 0.38694,1.1608 0,0.90284 -0.99958,1.48324 -0.96733,0.5804 -2.09589,0.5804 -0.67713,0 -1.51548,-0.0967 -0.80611,-0.12898 -1.54773,-0.54816 -0.70938,-0.45142 -1.19305,-1.35426 -0.48366,-0.90284 -0.48366,-2.48282 v -14.50998 q 0,-0.83835 0.54815,-1.38651 0.5804,-0.5804 1.41876,-0.5804 z"
             style="font-style:normal;font-variant:normal;font-weight:bold;font-stretch:normal;font-family:quicksand;-inkscape-font-specification:'quicksand Bold';fill:#059669;fill-opacity:1;stroke-width:0.806108"
             id="path901" />
          <path
             d="m 193.45184,143.99832 q -2.74077,0 -4.77217,-1.12856 -1.99915,-1.1608 -3.09546,-3.1277 -1.06407,-1.96691 -1.06407,-4.44973 0,-2.902 1.1608,-4.93339 1.19304,-2.06365 3.09546,-3.15996 1.90242,-1.09631 4.03055,-1.09631 1.64447,0 3.09546,0.67714 1.48325,0.67713 2.6118,1.87017 1.12855,1.1608 1.77344,2.70853 0.67713,1.54773 0.67713,3.28893 -0.0322,0.77387 -0.61264,1.25753 -0.5804,0.48367 -1.35426,0.48367 h -12.31736 l -0.96734,-3.22444 h 11.8337 l -0.70938,0.64489 v -0.8706 q -0.0645,-0.93509 -0.67713,-1.67671 -0.5804,-0.74162 -1.48324,-1.1608 -0.8706,-0.45142 -1.87018,-0.45142 -0.96733,0 -1.80569,0.25795 -0.83835,0.25796 -1.45099,0.8706 -0.61265,0.61265 -0.96734,1.64447 -0.35468,1.03182 -0.35468,2.61179 0,1.7412 0.70937,2.96649 0.74162,1.19304 1.87018,1.83793 1.1608,0.61264 2.45057,0.61264 1.19305,0 1.90242,-0.19346 0.70938,-0.19347 1.12856,-0.45143 0.45142,-0.29019 0.80611,-0.48366 0.5804,-0.2902 1.09631,-0.2902 0.70937,0 1.16079,0.48367 0.48367,0.48366 0.48367,1.12855 0,0.8706 -0.90284,1.57997 -0.83836,0.70938 -2.35384,1.25754 -1.51549,0.51591 -3.12771,0.51591 z m -1.41875,-19.66909 q -1.22529,0 -1.96691,-0.96733 l -1.41876,-1.77344 q -0.38693,-0.51591 -0.38693,-1.03182 0,-0.41918 0.32244,-0.67713 0.35469,-0.25796 0.99958,-0.25796 0.5804,0 1.451,0.74162 l 2.09589,1.80569 -0.83836,-0.0967 1.96691,-1.70895 q 0.45142,-0.38693 0.80611,-0.54815 0.35469,-0.19347 0.96733,-0.19347 0.45142,0 0.74162,0.25796 0.32245,0.22571 0.32245,0.58039 0,0.22572 -0.12898,0.51592 -0.0967,0.25795 -0.38693,0.61264 l -1.41876,1.77344 q -0.74162,0.96733 -1.96691,0.96733 z"
             style="font-style:normal;font-variant:normal;font-weight:bold;font-stretch:normal;font-family:quicksand;-inkscape-font-specification:'quicksand Bold';fill:#059669;fill-opacity:1;stroke-width:0.806108"
             id="path903" />
          <path
             d="m 213.41112,126.10267 q 2.38609,0 3.61138,0.99958 1.25753,0.99958 1.70895,2.67629 0.48366,1.64446 0.48366,3.67586 v 8.25456 q 0,0.83836 -0.54815,1.41876 -0.54816,0.54815 -1.38651,0.54815 -0.83835,0 -1.38651,-0.54815 -0.54815,-0.5804 -0.54815,-1.41876 v -8.25456 q 0,-1.06407 -0.2902,-1.90242 -0.25796,-0.8706 -0.96734,-1.38651 -0.70937,-0.51591 -2.03139,-0.51591 -1.28978,0 -2.19262,0.51591 -0.8706,0.51591 -1.35427,1.38651 -0.45142,0.83835 -0.45142,1.90242 v 8.25456 q 0,0.83836 -0.54815,1.41876 -0.54816,0.54815 -1.38651,0.54815 -0.83836,0 -1.38651,-0.54815 -0.54816,-0.5804 -0.54816,-1.41876 v -13.31693 q 0,-0.83836 0.54816,-1.38651 0.54815,-0.5804 1.38651,-0.5804 0.83835,0 1.38651,0.5804 0.54815,0.54815 0.54815,1.38651 v 1.38651 l -0.48366,-0.0967 q 0.2902,-0.54815 0.83835,-1.1608 0.54816,-0.64488 1.28978,-1.19304 0.74162,-0.54815 1.67671,-0.8706 0.93508,-0.35469 2.03139,-0.35469 z"
             style="font-style:normal;font-variant:normal;font-weight:bold;font-stretch:normal;font-family:quicksand;-inkscape-font-specification:'quicksand Bold';fill:#059669;fill-opacity:1;stroke-width:0.806108"
             id="path905" />
          <path
             d="m 227.05046,141.70896 q 0,0.83836 -0.54815,1.41876 -0.54816,0.54815 -1.38651,0.54815 -0.83836,0 -1.38651,-0.54815 -0.54816,-0.5804 -0.54816,-1.41876 v -13.31693 q 0,-0.83836 0.54816,-1.38651 0.54815,-0.5804 1.38651,-0.5804 0.83835,0 1.38651,0.5804 0.54815,0.54815 0.54815,1.38651 z m -1.96691,-17.37973 q -1.09631,0 -1.54773,-0.35469 -0.45142,-0.35468 -0.45142,-1.25753 v -0.61264 q 0,-0.93509 0.48367,-1.25753 0.51591,-0.35469 1.54773,-0.35469 1.12855,0 1.57997,0.35469 0.45143,0.35469 0.45143,1.25753 v 0.61264 q 0,0.93509 -0.48367,1.28978 -0.48367,0.32244 -1.57998,0.32244 z"
             style="font-style:normal;font-variant:normal;font-weight:bold;font-stretch:normal;font-family:quicksand;-inkscape-font-specification:'quicksand Bold';fill:#059669;fill-opacity:1;stroke-width:0.806108"
             id="path907" />
          <path
             d="m 240.23836,126.10267 q 2.38609,0 3.61138,0.99958 1.25753,0.99958 1.70895,2.67629 0.48366,1.64446 0.48366,3.67586 v 8.25456 q 0,0.83836 -0.54815,1.41876 -0.54816,0.54815 -1.38651,0.54815 -0.83835,0 -1.38651,-0.54815 -0.54815,-0.5804 -0.54815,-1.41876 v -8.25456 q 0,-1.06407 -0.2902,-1.90242 -0.25796,-0.8706 -0.96734,-1.38651 -0.70937,-0.51591 -2.03139,-0.51591 -1.28978,0 -2.19262,0.51591 -0.8706,0.51591 -1.35427,1.38651 -0.45142,0.83835 -0.45142,1.90242 v 8.25456 q 0,0.83836 -0.54815,1.41876 -0.54816,0.54815 -1.38651,0.54815 -0.83836,0 -1.38651,-0.54815 -0.54816,-0.5804 -0.54816,-1.41876 v -13.31693 q 0,-0.83836 0.54816,-1.38651 0.54815,-0.5804 1.38651,-0.5804 0.83835,0 1.38651,0.5804 0.54815,0.54815 0.54815,1.38651 v 1.38651 l -0.48366,-0.0967 q 0.2902,-0.54815 0.83835,-1.1608 0.54816,-0.64488 1.28978,-1.19304 0.74162,-0.54815 1.67671,-0.8706 0.93508,-0.35469 2.03139,-0.35469 z"
             style="font-style:normal;font-variant:normal;font-weight:bold;font-stretch:normal;font-family:quicksand;-inkscape-font-specification:'quicksand Bold';fill:#059669;fill-opacity:1;stroke-width:0.806108"
             id="path909" />
          <path
             d="m 262.87385,126.42512 q 0.83835,0 1.38651,0.5804 0.54815,0.54815 0.54815,1.38651 v 13.70387 q 0,2.96648 -1.12855,4.70768 -1.09631,1.77344 -2.96649,2.54731 -1.87017,0.77386 -4.19177,0.77386 -1.03182,0 -2.19262,-0.16122 -1.1608,-0.16122 -1.90242,-0.48367 -0.96733,-0.41917 -1.35426,-1.06406 -0.35469,-0.61264 -0.12898,-1.32202 0.2902,-0.93509 0.93509,-1.28978 0.64489,-0.32244 1.35426,-0.0645 0.51591,0.16123 1.35427,0.48367 0.83835,0.35469 1.93466,0.35469 1.48324,0 2.45058,-0.41918 0.99957,-0.38693 1.48324,-1.35426 0.51591,-0.93509 0.51591,-2.57956 v -2.16037 l 0.67713,0.77387 q -0.54815,1.06406 -1.38651,1.77344 -0.80611,0.67713 -1.93466,1.03182 -1.12856,0.35469 -2.57955,0.35469 -1.70896,0 -2.99873,-0.77387 -1.25753,-0.80611 -1.96691,-2.19262 -0.70938,-1.41875 -0.70938,-3.22444 v -9.41536 q 0,-0.83836 0.54816,-1.38651 0.54815,-0.5804 1.38651,-0.5804 0.83835,0 1.38651,0.5804 0.54815,0.54815 0.54815,1.38651 v 8.25456 q 0,2.09589 0.90284,2.96649 0.93509,0.83835 2.57956,0.83835 1.12855,0 1.90242,-0.41917 0.77386,-0.45143 1.19304,-1.28978 0.41918,-0.8706 0.41918,-2.09589 v -8.25456 q 0,-0.83836 0.54815,-1.38651 0.54815,-0.5804 1.38651,-0.5804 z"
             style="font-style:normal;font-variant:normal;font-weight:bold;font-stretch:normal;font-family:quicksand;-inkscape-font-specification:'quicksand Bold';fill:#059669;fill-opacity:1;stroke-width:0.806108"
             id="path911" />
        </g>
      </g>
    </g>
  </g>
</svg>
