<?xml version="1.0" encoding="UTF-8"?>
<svg width="221.79mm" height="44.969mm" version="1.1" viewBox="0 0 221.79 44.969" xmlns="http://www.w3.org/2000/svg" xmlns:cc="http://creativecommons.org/ns#" xmlns:dc="http://purl.org/dc/elements/1.1/" xmlns:rdf="http://www.w3.org/1999/02/22-rdf-syntax-ns#" xmlns:xlink="http://www.w3.org/1999/xlink">
 <metadata>
  <rdf:RDF>
   <cc:Work rdf:about="">
    <dc:format>image/svg+xml</dc:format>
    <dc:type rdf:resource="http://purl.org/dc/dcmitype/StillImage"/>
    <dc:title/>
   </cc:Work>
  </rdf:RDF>
 </metadata>
 <g transform="translate(-64.453 -110.73)">
  <g transform="matrix(1.0141 0 0 .99465 -.74336 .39356)">
   <g transform="matrix(1.1 0 0 1.1 -10.564 -12.568)">
    <g>
     <rect x="68.527" y="112.75" width="39.372" height="40.143" ry="4.8755" fill="#059669" fill-rule="evenodd" stroke="#059669" stroke-linecap="round" stroke-linejoin="round" stroke-miterlimit="12.4" stroke-width=".95796" style="paint-order:markers fill stroke"/>
     <g stroke="#fff">
      <path d="m78.771 140.86a2.4339 2.4357 0 0 1 1.201-3.2196 2.4339 2.4357 0 0 1 3.2228 1.1868 2.4339 2.4357 0 0 1-1.1708 3.2306 2.4339 2.4357 0 0 1-3.2337-1.1566" fill="none" stroke-linecap="round" stroke-width="1.0529"/>
      <path d="m81.752 139.19c0.19238 0.19287 0.60957 0.36913 0.73956 0.15319 0.1043-0.16904-0.15305-0.49714-0.35135-0.66316-0.89612-0.75828-2.1766-0.25555-2.2239-0.062-0.04659 0.19038 1.074-0.19113 1.8357 0.57193z" fill="#fff" stroke-width=".14607"/>
      <path d="m96.518 122.48c-0.08223-0.0759-0.34496-0.32918-0.58383-0.56286-0.47348-0.46319-1.3428-1.1794-1.6701-1.3758-0.24293-0.14585-0.45872-0.12424-0.71365 0.0715-0.22394 0.17191-0.24215 0.35194-0.10669 1.0547 0.2528 1.3114 0.03661 3.5166-0.44765 4.566-0.14291 0.30969-0.6013 1.0784-1.0186 1.7082-0.41734 0.62982-0.95291 1.5195-1.1901 1.9771-0.23724 0.45758-0.4425 0.82875-0.45613 0.82483-1.2339-1.7413-0.05878-0.15463-1.4571-1.9808-2.3191-2.5034-4.4698-3.9009-6.2588-4.067-0.91536-0.085-1.796 0.23037-3.2487 1.1634-0.27926 0.17938-1.1483 0.63578-1.9313 1.0142-1.3435 0.64941-1.428 0.70076-1.5021 0.91293-0.09077 0.25975-0.01313 0.59235 0.16358 0.70078 0.06717 0.0412 0.50204 0.20393 0.96639 0.3616 1.672 0.56773 2.851 1.2234 3.8901 2.1635 0.49772 0.45028 0.84989 0.86787 1.9926 2.3629 2.5662 3.0797 2.0261 3.7519 4.7463 6.5867l0.36279 0.36824-0.18546 0.0698c-0.102 0.0384-0.47186 0.26443-0.8219 0.50231-0.77137 0.52419-0.88956 0.70958-0.62976 0.9877 0.15341 0.16422 0.25188 0.17399 0.84267 0.0836 0.7378-0.11293 1.4252-0.0698 1.712 0.10741 0.36934 0.22819 0.69875 0.76377 0.86344 1.4038 0.17821 0.69266 0.56732 1.2865 1.0129 1.546 0.23806 0.13864 0.27069 0.18782 0.35556 0.53588 0.2893 1.1865-0.02762 2.0782-0.88574 2.4919-0.814 0.39245-0.79346 0.37565-0.8338 0.68189-0.07311 0.55504 0.38373 0.82531 1.0032 0.59352 1.1174-0.41813 1.845-1.321 2.0011-2.4833 0.04267-0.31758 0.03943-0.78101-0.0072-1.0298l-0.08476-0.45243 0.31257-0.0827c0.50777-0.1344 0.99493-0.61574 1.3466-1.3306 0.30703-0.62404 0.61702-0.94806 0.8977-0.93834 0.08664 3e-3 0.34466 0.0558 0.57338 0.11726 0.22872 0.0615 0.6037 0.0883 0.8333 0.0596 0.34929-0.0437 0.49107-0.10942 0.86833-0.40341 0.4924-0.38358 1.0461-1.1587 1.0199-1.4278-0.02959-0.30467-0.31655-0.41495-0.76739-0.29465-0.23492 0.0626-0.60243 0.1112-0.81669 0.10788-0.38556-6e-3 -1.073-0.28236-1.0515-0.42272 0.0061-0.04 0.36261-0.53356 0.79214-1.0968 0.9265-1.2149 1.4294-2.0212 1.9576-3.1382 1.5628-3.3054 1.8969-6.7628 0.92497-9.5712-0.42278-1.2216-0.69588-1.7168-1.6928-3.0694-0.51044-0.6925-0.99533-1.3212-1.0776-1.3971zm0.22968 2.6658c-0.3197-0.0212-0.8832 0.16724-1.0154 0.3396-0.01816 0.0236-0.06439-0.43701-0.10275-1.0237-0.03836-0.58671-0.09065-1.1024-0.11621-1.146-0.15095-0.25769 0.52518 0.47477 1.0223 1.1075l0.58735 0.74757zm0.68822 1.428c0.17026 0.79442-0.82096 1.2292-1.3195 0.57874-0.46082-0.60117 0.21793-1.4241 0.92184-1.1177 0.26276 0.11439 0.32468 0.1983 0.39769 0.53895zm1.0406 2.1121c0.08481 0.47716 0.13863 0.86551 0.11959 0.863-0.01903-3e-3 -0.08757-0.13531-0.15225-0.29512-0.13328-0.32918-0.62348-0.79114-0.96712-0.9114-0.2037-0.0713-0.20304-0.073 0.12999-0.32997 0.18409-0.14209 0.38849-0.32838 0.4542-0.41402 0.10722-0.13973 0.12675-0.13643 0.19045 0.032 0.03902 0.10331 0.14034 0.57823 0.22516 1.0554zm-0.05528 3.8757c-0.07317 0.35933-0.17742 0.81151-0.23163 1.0048l-0.09859 0.35151-0.07363-0.37331c-0.07867-0.39882-0.48086-1.0064-0.86766-1.3108l-0.21009-0.16532 0.31193-0.0826c0.60064-0.15899 1.2289-0.79983 1.3538-1.3809 0.02449-0.114 0.02306 0.13258-0.0033 0.54795-0.02626 0.41538-0.10766 1.0492-0.18083 1.4086zm-0.59497-2.5345c0.08292 0.77435-0.76336 1.4143-1.5201 1.1494-0.29958-0.10484-0.6241-0.53205-0.69106-0.90971-0.06755-0.38103 0.21832-0.939 0.57325-1.1189 0.27556-0.1397 0.81962-0.14139 1.0541-3e-3 0.27171 0.16005 0.55182 0.58345 0.58384 0.8825zm-3.5226-2.4528c-0.20608 1.3297-0.55596 2.3392-1.5211 4.3891-0.31716 0.67361-0.69674 1.5722-0.8435 1.9969-0.46505 1.3458-0.62793 3.3785-0.39242 4.8976 0.05687 0.36682 0.01929 0.55869-0.22728 1.161-0.36021 0.87983-0.44378 0.87175-0.74279-0.0718-1.0869-3.4296-0.24184-7.3566 2.4507-11.389 0.80376-1.2038 1.1897-1.9324 1.3516-2.5519 0.10239-0.39187 0.10262-0.39108 0.06778 0.23904-0.01919 0.34772-0.08355 0.94586-0.14297 1.3292zm1.7318 0.73329c-0.11591 0.0347-0.32225 0.14878-0.45854 0.2534l-0.24781 0.19024 0.07474-0.45756 0.07473-0.45756 0.23715 0.14232c0.13043 0.0783 0.29652 0.16498 0.36908 0.19269 0.07257 0.0277 0.13857 0.0555 0.14667 0.0618 0.0082 6e-3 -0.0801 0.0399-0.196 0.0746zm-0.78747 3.0811c0.15158 0.16332 0.33638 0.33162 0.41068 0.37401 0.12016 0.0686 0.09779 0.0816-0.20249 0.11827-0.46763 0.0571-1.1204 0.4883-1.4293 0.94428-0.52584 0.77621-0.48935 1.7706 0.09285 2.5302l0.32912 0.42937-0.38887 0.0528c-0.46378 0.063-1.0373 0.46179-1.2844 0.89317l-0.15887 0.27724 0.01859-0.29593c0.08567-1.364 0.44976-2.5814 1.3066-4.3687 0.30805-0.6426 0.61533-1.3175 0.68286-1.4998 0.06752-0.18231 0.13619-0.34177 0.15259-0.35436 0.01639-0.0126 0.06702 0.11782 0.11247 0.28982 0.05369 0.20317 0.17919 0.41672 0.35825 0.60964zm1.9745 2.4747c0.15306 0.82956-0.55914 1.5914-1.4501 1.5511-1.6801-0.076-1.6838-2.5678-0.0041-2.742 0.67179-0.0697 1.3194 0.46073 1.4542 1.191zm-0.69633 3.5231c-0.16538 0.26607-0.31074 0.49148-0.32301 0.5009-0.0123 9e-3 -0.03125-0.13746-0.04228-0.32638-0.02669-0.45907-0.17504-0.86337-0.40303-1.0984l-0.18724-0.19302 0.39067-0.0225c0.4939-0.0285 0.86438-0.15327 1.1994-0.40401l0.26326-0.19704-0.29853 0.62834c-0.1642 0.34559-0.43385 0.84605-0.59923 1.1121zm-1.2056 0.21658c-0.01066 0.87728-1.0263 1.3137-1.6383 0.704-0.60093-0.59863-0.25376-1.5768 0.59182-1.6676 0.35652-0.0383 0.56073 0.0641 0.84511 0.42347 0.13834 0.17484 0.2037 0.35011 0.20139 0.54011zm-5.917-5.9444 0.31864 0.63847-0.24922 0.84292c-0.60123 2.0335-0.72455 4.2987-0.33288 6.1146l0.11472 0.53129-0.20144-0.17501c-0.11078-0.0962-0.73271-0.83634-1.382-1.6446-2.253-2.8657-1.0463-1.6537-3.3372-4.799-2.1185-2.8957-3.232-3.9053-5.3849-4.8829-0.6576-0.2986-0.8326-0.40652-0.72421-0.4466 0.36254-0.13406 1.222-0.58761 1.7131-0.90406 1.2159-0.78341 1.9678-1.0951 2.5507-1.0572 1.3772 0.0894 3.6563 1.6571 5.6707 3.9009 1.244 1.8813 0.07366 0.0973 1.2442 1.8813zm5.3263 8.1994-0.42419 0.55067-0.91629 0.29548-0.2027-0.95468c-0.20051-0.94439-0.20038-0.95251 0.01219-0.75208 0.43315 0.40835 1.4805 0.56518 1.8549 0.27778 0.20953-0.16085 0.10734 0.023-0.32387 0.58283zm1.729 2.4395c-0.18378 0.0932-0.41184 0.0925-0.87865-2e-3 -0.77681-0.15807-1.0638-0.11235-1.5281 0.24338-0.28782 0.22057-0.42267 0.40054-0.66665 0.88996-0.38319 0.76866-0.57789 0.98061-0.96796 1.0537-0.42001 0.0787-0.64884 0.0527-0.99739-0.11348-0.42115-0.20075-0.62798-0.50708-0.80385-1.1906-0.27985-1.0876-0.85299-1.765-1.6839-1.9902l-0.43944-0.1191 0.24723-0.0428c0.52684-0.0911 1.4072 0.13965 2.0244 0.53062 0.56496 0.35787 0.72505 0.28832 1.0079-0.43785 0.12096-0.31059 0.29637-0.74957 0.38979-0.9755l0.16985-0.41078 0.11881 0.62548c0.06534 0.34403 0.17208 0.81172 0.23721 1.0393 0.11796 0.41221 0.11927 0.41392 0.34207 0.44326 0.15666 0.0207 0.30891-0.036 0.50854-0.18923 0.5913-0.45391 1.2193-0.45213 1.8729 5e-3 0.14296 0.10006 0.51274 0.22566 0.82174 0.27913 0.5929 0.1026 0.62741 0.15795 0.22551 0.3617z" fill="#fff" stroke-width=".080191"/>
      <path d="m78.026 138.69c-9.4715-4.0883-4.332-13.705-4.332-13.705 3.4538-6.2664 10.601-9.5306 17.594-8.0358 6.9935 1.4948 12.184 7.396 12.778 14.528 0.59419 7.1317-3.5481 13.812-10.198 16.445-6.6496 2.6332-14.238 0.59849-18.681-5.0091" fill="none" stroke-width="1.3849"/>
     </g>
    </g>
    <g transform="scale(.99035 1.0097)" fill="#059669" stroke-width=".80611" aria-label="Luštěniny">
     <path d="m132.64 139.9q0.83835 0 1.3865 0.54815 0.5804 0.51591 0.5804 1.3543 0 0.80611-0.5804 1.3543-0.54816 0.51591-1.3865 0.51591h-10.479q-0.83835 0-1.4188-0.54815-0.54816-0.5804-0.54816-1.4188v-18.637q0-0.83835 0.5804-1.3865 0.5804-0.5804 1.4832-0.5804 0.77387 0 1.3543 0.5804 0.61264 0.54816 0.61264 1.3865v17.38l-0.70938-0.54815z"/>
     <path d="m150.79 126.43q0.83836 0 1.3865 0.5804 0.54816 0.54815 0.54816 1.3865v8.1901q0 3.4179-1.9024 5.4171-1.9024 1.9992-5.4816 1.9992t-5.4816-1.9992q-1.8702-1.9992-1.8702-5.4171v-8.1901q0-0.83836 0.54815-1.3865 0.54816-0.5804 1.3865-0.5804 0.83836 0 1.3865 0.5804 0.54816 0.54815 0.54816 1.3865v8.1901q0 1.9669 0.87059 2.9342 0.8706 0.93508 2.6118 0.93508 1.7734 0 2.644-0.93508 0.8706-0.96734 0.8706-2.9342v-8.1901q0-0.83836 0.54816-1.3865 0.54815-0.5804 1.3865-0.5804z"/>
     <path d="m155.92 141q-0.32244-0.45142-0.2902-1.1608 0.0323-0.70938 0.83836-1.2253 0.51591-0.32244 1.0963-0.25795 0.58039 0.0322 1.1286 0.5804 0.93509 0.93508 1.9669 1.451t2.5796 0.51591q0.48367-0.0322 1.0641-0.12897 0.5804-0.12898 0.99958-0.51591 0.45142-0.41918 0.45142-1.2575 0-0.70937-0.48366-1.1286-0.48367-0.41918-1.2898-0.70938-0.77386-0.2902-1.7412-0.54815-0.99957-0.2902-2.0636-0.64489-1.0318-0.35469-1.9024-0.90284-0.8706-0.5804-1.4188-1.5155-0.54816-0.93509-0.54816-2.3538 0-1.6122 0.90285-2.7408 0.90284-1.1286 2.3216-1.7412 1.451-0.61265 3.031-0.61265 0.99957 0 2.0959 0.25796 1.0963 0.22571 2.0959 0.77387 0.99958 0.51591 1.6767 1.3865 0.35469 0.48367 0.41918 1.1608 0.0645 0.67714-0.61265 1.2253-0.48366 0.38693-1.1286 0.35469-0.64489-0.0645-1.0641-0.45142-0.54815-0.70938-1.4832-1.1286-0.90284-0.41917-2.0959-0.41917-0.48366 0-1.0641 0.12897-0.54816 0.0967-0.96733 0.48367-0.41918 0.35469-0.41918 1.1608 0 0.74162 0.48367 1.193 0.48366 0.41918 1.2898 0.70938 0.83836 0.25795 1.7734 0.51591 0.96734 0.25795 1.9669 0.61264 0.99958 0.35469 1.8379 0.93509 0.83836 0.5804 1.3543 1.5155 0.51591 0.90284 0.51591 2.3216 0 1.6445-0.96733 2.8053-0.96734 1.1608-2.4183 1.7734-1.451 0.5804-2.9665 0.5804-1.9024 0-3.8048-0.64489-1.9024-0.67713-3.16-2.3538zm6.0297-16.67q-1.2253 0-1.9669-0.96733l-1.4188-1.7734q-0.38693-0.51591-0.38693-1.0318 0-0.41918 0.32244-0.67713 0.35469-0.25796 0.99958-0.25796 0.5804 0 1.451 0.74162l2.0959 1.8057-0.83835-0.0967 1.9669-1.709q0.45142-0.38693 0.80611-0.54815 0.35469-0.19347 0.96733-0.19347 0.45142 0 0.74162 0.25796 0.32244 0.22571 0.32244 0.58039 0 0.22572-0.12897 0.51592-0.0967 0.25795-0.38694 0.61264l-1.4188 1.7734q-0.74162 0.96733-1.9669 0.96733z"/>
     <path d="m172.65 126.75h7.6419q0.77386 0 1.2898 0.51591t0.51591 1.2898q0 0.74162-0.51591 1.2575-0.51591 0.48367-1.2898 0.48367h-7.6419q-0.77387 0-1.2898-0.51591t-0.51591-1.2898q0-0.74162 0.51591-1.2253 0.51591-0.51591 1.2898-0.51591zm3.4502-4.0306q0.83835 0 1.3543 0.5804 0.54816 0.54816 0.54816 1.3865v14.349q0 0.45142 0.16122 0.74162 0.19346 0.2902 0.48366 0.41918 0.32245 0.12898 0.67714 0.12898 0.38693 0 0.70937-0.12898 0.32245-0.16122 0.74162-0.16122 0.45143 0 0.80611 0.41917 0.38694 0.41918 0.38694 1.1608 0 0.90284-0.99958 1.4832-0.96733 0.5804-2.0959 0.5804-0.67713 0-1.5155-0.0967-0.80611-0.12898-1.5477-0.54816-0.70938-0.45142-1.193-1.3543-0.48366-0.90284-0.48366-2.4828v-14.51q0-0.83835 0.54815-1.3865 0.5804-0.5804 1.4188-0.5804z"/>
     <path d="m193.45 144q-2.7408 0-4.7722-1.1286-1.9992-1.1608-3.0955-3.1277-1.0641-1.9669-1.0641-4.4497 0-2.902 1.1608-4.9334 1.193-2.0636 3.0955-3.16t4.0306-1.0963q1.6445 0 3.0955 0.67714 1.4832 0.67713 2.6118 1.8702 1.1286 1.1608 1.7734 2.7085 0.67713 1.5477 0.67713 3.2889-0.0322 0.77387-0.61264 1.2575-0.5804 0.48367-1.3543 0.48367h-12.317l-0.96734-3.2244h11.834l-0.70938 0.64489v-0.8706q-0.0645-0.93509-0.67713-1.6767-0.5804-0.74162-1.4832-1.1608-0.8706-0.45142-1.8702-0.45142-0.96733 0-1.8057 0.25795-0.83835 0.25796-1.451 0.8706-0.61265 0.61265-0.96734 1.6445-0.35468 1.0318-0.35468 2.6118 0 1.7412 0.70937 2.9665 0.74162 1.193 1.8702 1.8379 1.1608 0.61264 2.4506 0.61264 1.193 0 1.9024-0.19346 0.70938-0.19347 1.1286-0.45143 0.45142-0.29019 0.80611-0.48366 0.5804-0.2902 1.0963-0.2902 0.70937 0 1.1608 0.48367 0.48367 0.48366 0.48367 1.1286 0 0.8706-0.90284 1.58-0.83836 0.70938-2.3538 1.2575-1.5155 0.51591-3.1277 0.51591zm-1.4188-19.669q-1.2253 0-1.9669-0.96733l-1.4188-1.7734q-0.38693-0.51591-0.38693-1.0318 0-0.41918 0.32244-0.67713 0.35469-0.25796 0.99958-0.25796 0.5804 0 1.451 0.74162l2.0959 1.8057-0.83836-0.0967 1.9669-1.709q0.45142-0.38693 0.80611-0.54815 0.35469-0.19347 0.96733-0.19347 0.45142 0 0.74162 0.25796 0.32245 0.22571 0.32245 0.58039 0 0.22572-0.12898 0.51592-0.0967 0.25795-0.38693 0.61264l-1.4188 1.7734q-0.74162 0.96733-1.9669 0.96733z"/>
     <path d="m213.41 126.1q2.3861 0 3.6114 0.99958 1.2575 0.99958 1.709 2.6763 0.48366 1.6445 0.48366 3.6759v8.2546q0 0.83836-0.54815 1.4188-0.54816 0.54815-1.3865 0.54815t-1.3865-0.54815q-0.54815-0.5804-0.54815-1.4188v-8.2546q0-1.0641-0.2902-1.9024-0.25796-0.8706-0.96734-1.3865-0.70937-0.51591-2.0314-0.51591-1.2898 0-2.1926 0.51591-0.8706 0.51591-1.3543 1.3865-0.45142 0.83835-0.45142 1.9024v8.2546q0 0.83836-0.54815 1.4188-0.54816 0.54815-1.3865 0.54815-0.83836 0-1.3865-0.54815-0.54816-0.5804-0.54816-1.4188v-13.317q0-0.83836 0.54816-1.3865 0.54815-0.5804 1.3865-0.5804 0.83835 0 1.3865 0.5804 0.54815 0.54815 0.54815 1.3865v1.3865l-0.48366-0.0967q0.2902-0.54815 0.83835-1.1608 0.54816-0.64488 1.2898-1.193 0.74162-0.54815 1.6767-0.8706 0.93508-0.35469 2.0314-0.35469z"/>
     <path d="m227.05 141.71q0 0.83836-0.54815 1.4188-0.54816 0.54815-1.3865 0.54815-0.83836 0-1.3865-0.54815-0.54816-0.5804-0.54816-1.4188v-13.317q0-0.83836 0.54816-1.3865 0.54815-0.5804 1.3865-0.5804 0.83835 0 1.3865 0.5804 0.54815 0.54815 0.54815 1.3865zm-1.9669-17.38q-1.0963 0-1.5477-0.35469-0.45142-0.35468-0.45142-1.2575v-0.61264q0-0.93509 0.48367-1.2575 0.51591-0.35469 1.5477-0.35469 1.1286 0 1.58 0.35469 0.45143 0.35469 0.45143 1.2575v0.61264q0 0.93509-0.48367 1.2898-0.48367 0.32244-1.58 0.32244z"/>
     <path d="m240.24 126.1q2.3861 0 3.6114 0.99958 1.2575 0.99958 1.709 2.6763 0.48366 1.6445 0.48366 3.6759v8.2546q0 0.83836-0.54815 1.4188-0.54816 0.54815-1.3865 0.54815t-1.3865-0.54815q-0.54815-0.5804-0.54815-1.4188v-8.2546q0-1.0641-0.2902-1.9024-0.25796-0.8706-0.96734-1.3865-0.70937-0.51591-2.0314-0.51591-1.2898 0-2.1926 0.51591-0.8706 0.51591-1.3543 1.3865-0.45142 0.83835-0.45142 1.9024v8.2546q0 0.83836-0.54815 1.4188-0.54816 0.54815-1.3865 0.54815-0.83836 0-1.3865-0.54815-0.54816-0.5804-0.54816-1.4188v-13.317q0-0.83836 0.54816-1.3865 0.54815-0.5804 1.3865-0.5804 0.83835 0 1.3865 0.5804 0.54815 0.54815 0.54815 1.3865v1.3865l-0.48366-0.0967q0.2902-0.54815 0.83835-1.1608 0.54816-0.64488 1.2898-1.193 0.74162-0.54815 1.6767-0.8706 0.93508-0.35469 2.0314-0.35469z"/>
     <path d="m262.87 126.43q0.83835 0 1.3865 0.5804 0.54815 0.54815 0.54815 1.3865v13.704q0 2.9665-1.1286 4.7077-1.0963 1.7734-2.9665 2.5473-1.8702 0.77386-4.1918 0.77386-1.0318 0-2.1926-0.16122t-1.9024-0.48367q-0.96733-0.41917-1.3543-1.0641-0.35469-0.61264-0.12898-1.322 0.2902-0.93509 0.93509-1.2898 0.64489-0.32244 1.3543-0.0645 0.51591 0.16123 1.3543 0.48367 0.83835 0.35469 1.9347 0.35469 1.4832 0 2.4506-0.41918 0.99957-0.38693 1.4832-1.3543 0.51591-0.93509 0.51591-2.5796v-2.1604l0.67713 0.77387q-0.54815 1.0641-1.3865 1.7734-0.80611 0.67713-1.9347 1.0318-1.1286 0.35469-2.5796 0.35469-1.709 0-2.9987-0.77387-1.2575-0.80611-1.9669-2.1926-0.70938-1.4188-0.70938-3.2244v-9.4154q0-0.83836 0.54816-1.3865 0.54815-0.5804 1.3865-0.5804 0.83835 0 1.3865 0.5804 0.54815 0.54815 0.54815 1.3865v8.2546q0 2.0959 0.90284 2.9665 0.93509 0.83835 2.5796 0.83835 1.1286 0 1.9024-0.41917 0.77386-0.45143 1.193-1.2898 0.41918-0.8706 0.41918-2.0959v-8.2546q0-0.83836 0.54815-1.3865 0.54815-0.5804 1.3865-0.5804z"/>
    </g>
   </g>
  </g>
 </g>
</svg>
