<?xml version="1.0" encoding="UTF-8" standalone="no"?>
<svg
   xmlns:dc="http://purl.org/dc/elements/1.1/"
   xmlns:cc="http://creativecommons.org/ns#"
   xmlns:rdf="http://www.w3.org/1999/02/22-rdf-syntax-ns#"
   xmlns:svg="http://www.w3.org/2000/svg"
   xmlns="http://www.w3.org/2000/svg"
   xmlns:xlink="http://www.w3.org/1999/xlink"
   xmlns:sodipodi="http://sodipodi.sourceforge.net/DTD/sodipodi-0.dtd"
   xmlns:inkscape="http://www.inkscape.org/namespaces/inkscape"
   width="457.50555mm"
   height="111.08865mm"
   viewBox="0 0 457.50555 111.08865"
   version="1.1"
   id="svg844"
   sodipodi:docname="Logo_Black_Name.svg"
   inkscape:version="1.0.2 (e86c870879, 2021-01-15, custom)">
  <defs
     id="defs838">
    <linearGradient
       inkscape:collect="always"
       id="linearGradient2097">
      <stop
         style="stop-color:#000000;stop-opacity:0.38431373"
         offset="0"
         id="stop2093" />
      <stop
         style="stop-color:#000000;stop-opacity:0"
         offset="1"
         id="stop2095" />
    </linearGradient>
    <linearGradient
       inkscape:collect="always"
       id="linearGradient2060">
      <stop
         style="stop-color:#246923;stop-opacity:0.38431373"
         offset="0"
         id="stop2056" />
      <stop
         style="stop-color:#246923;stop-opacity:0"
         offset="1"
         id="stop2058" />
    </linearGradient>
    <linearGradient
       inkscape:collect="always"
       xlink:href="#linearGradient2060"
       id="linearGradient2062"
       x1="72.160889"
       y1="158.62302"
       x2="87.207817"
       y2="146.42152"
       gradientUnits="userSpaceOnUse" />
    <linearGradient
       inkscape:collect="always"
       xlink:href="#linearGradient2097"
       id="linearGradient2087"
       gradientUnits="userSpaceOnUse"
       x1="72.160889"
       y1="158.62302"
       x2="87.207817"
       y2="146.42152"
       gradientTransform="matrix(0.90927429,0,0,0.90927429,9.609756,11.397174)" />
    <linearGradient
       inkscape:collect="always"
       xlink:href="#linearGradient2060"
       id="linearGradient953"
       gradientUnits="userSpaceOnUse"
       gradientTransform="matrix(0.90927429,0,0,0.90927429,9.609756,11.397174)"
       x1="72.160889"
       y1="158.62302"
       x2="87.207817"
       y2="146.42152" />
  </defs>
  <sodipodi:namedview
     id="base"
     pagecolor="#ffffff"
     bordercolor="#666666"
     borderopacity="1.0"
     inkscape:pageopacity="0.0"
     inkscape:pageshadow="2"
     inkscape:zoom="1.4"
     inkscape:cx="301.35219"
     inkscape:cy="293.97384"
     inkscape:document-units="mm"
     inkscape:current-layer="g2103"
     inkscape:document-rotation="0"
     showgrid="false"
     fit-margin-top="0"
     fit-margin-left="0"
     fit-margin-right="0"
     fit-margin-bottom="0"
     inkscape:window-width="1842"
     inkscape:window-height="1057"
     inkscape:window-x="-8"
     inkscape:window-y="-8"
     inkscape:window-maximized="1" />
  <metadata
     id="metadata841">
    <rdf:RDF>
      <cc:Work
         rdf:about="">
        <dc:format>image/svg+xml</dc:format>
        <dc:type
           rdf:resource="http://purl.org/dc/dcmitype/StillImage" />
        <dc:title></dc:title>
      </cc:Work>
    </rdf:RDF>
  </metadata>
  <g
     inkscape:label="Vrstva 1"
     inkscape:groupmode="layer"
     id="layer1"
     transform="translate(-50.838204,-69.857108)">
    <g
       id="g1565"
       transform="matrix(1.0141335,0,0,0.99464939,-0.74335552,0.39356049)">
      <g
         id="g1467"
         transform="matrix(-0.22614915,0.13733499,-0.13733499,-0.22614915,85.618874,150.14178)" />
      <g
         id="g1469"
         transform="matrix(-0.22614915,0.13733499,-0.13733499,-0.22614915,85.618874,150.14178)" />
      <g
         id="g1471"
         transform="matrix(-0.22614915,0.13733499,-0.13733499,-0.22614915,85.618874,150.14178)" />
      <g
         id="g1473"
         transform="matrix(-0.22614915,0.13733499,-0.13733499,-0.22614915,85.618874,150.14178)" />
      <g
         id="g1475"
         transform="matrix(-0.22614915,0.13733499,-0.13733499,-0.22614915,85.618874,150.14178)" />
      <g
         id="g1477"
         transform="matrix(-0.22614915,0.13733499,-0.13733499,-0.22614915,85.618874,150.14178)" />
      <g
         id="g1479"
         transform="matrix(-0.22614915,0.13733499,-0.13733499,-0.22614915,85.618874,150.14178)" />
      <g
         id="g1481"
         transform="matrix(-0.22614915,0.13733499,-0.13733499,-0.22614915,85.618874,150.14178)" />
      <g
         id="g1483"
         transform="matrix(-0.22614915,0.13733499,-0.13733499,-0.22614915,85.618874,150.14178)" />
      <g
         id="g1485"
         transform="matrix(-0.22614915,0.13733499,-0.13733499,-0.22614915,85.618874,150.14178)" />
      <g
         id="g1487"
         transform="matrix(-0.22614915,0.13733499,-0.13733499,-0.22614915,85.618874,150.14178)" />
      <g
         id="g1489"
         transform="matrix(-0.22614915,0.13733499,-0.13733499,-0.22614915,85.618874,150.14178)" />
      <g
         id="g1491"
         transform="matrix(-0.22614915,0.13733499,-0.13733499,-0.22614915,85.618874,150.14178)" />
      <g
         id="g1493"
         transform="matrix(-0.22614915,0.13733499,-0.13733499,-0.22614915,85.618874,150.14178)" />
      <g
         id="g1495"
         transform="matrix(-0.22614915,0.13733499,-0.13733499,-0.22614915,85.618874,150.14178)" />
      <g
         id="g2103"
         transform="matrix(1.1,0,0,1.1,-10.564346,-12.568055)">
        <path
           style="fill:#59e287;fill-opacity:1;stroke-width:0.240579"
           d="m 130.59506,94.667546 c -0.24679,-0.227599 -1.03527,-0.987215 -1.75217,-1.688013 -1.42099,-1.389094 -4.03002,-3.536894 -5.01212,-4.126069 -0.72908,-0.437391 -1.37669,-0.372589 -2.14179,0.214314 -0.67207,0.515544 -0.72674,1.055462 -0.3202,3.162912 0.75869,3.93303 0.10987,10.5461 -1.34346,13.69325 -0.4289,0.92875 -1.8046,3.23407 -3.0571,5.12289 -1.25251,1.88883 -2.85984,4.557 -3.57182,5.92925 -0.712,1.37226 -1.32802,2.4854 -1.36892,2.47363 -3.70304,-5.22218 -0.1764,-0.46372 -4.37302,-5.94049 -6.96015,-7.50756 -13.414509,-11.69865 -18.783603,-12.19699 -2.74716,-0.25498 -5.390196,0.69085 -9.749824,3.48905 -0.838093,0.53793 -3.446373,1.90669 -5.796171,3.04169 -4.032084,1.94757 -4.285616,2.10155 -4.508129,2.73784 -0.272419,0.77901 -0.03942,1.77645 0.490936,2.10165 0.201588,0.12356 1.506693,0.61157 2.900296,1.08442 5.017968,1.70262 8.556476,3.66911 11.674957,6.48823 1.493754,1.35037 2.55065,2.60273 5.980203,7.08617 7.701679,9.23592 6.080697,11.25187 14.244485,19.75334 l 1.08879,1.10434 -0.55661,0.20928 c -0.30611,0.11516 -1.41612,0.793 -2.46667,1.5064 -2.315017,1.57205 -2.669716,2.12802 -1.89002,2.96211 0.4604,0.49249 0.75592,0.5218 2.52899,0.25061 2.21425,-0.33866 4.27737,-0.20933 5.13811,0.32212 1.10844,0.68435 2.09706,2.29055 2.59132,4.21008 0.53485,2.07729 1.70261,3.85832 3.03985,4.63653 0.71445,0.41577 0.81238,0.56327 1.0671,1.6071 0.86825,3.5584 -0.0829,6.23243 -2.65825,7.47319 -2.44296,1.17696 -2.38131,1.12658 -2.50236,2.04497 -0.21941,1.66455 1.15164,2.47511 3.01076,1.77996 3.35362,-1.25395 5.53715,-3.96162 6.00578,-7.44746 0.12805,-0.95243 0.11835,-2.34224 -0.0216,-3.08851 l -0.25438,-1.35683 0.93808,-0.24807 c 1.5239,-0.40308 2.98595,-1.8466 4.04143,-3.99031 0.92146,-1.8715 1.85178,-2.84322 2.69415,-2.81406 0.26002,0.009 1.03438,0.16727 1.7208,0.35164 0.68643,0.18437 1.81182,0.26484 2.50086,0.17881 1.04828,-0.13094 1.47379,-0.32814 2.60601,-1.20983 1.47777,-1.15033 3.13943,-3.47478 3.06092,-4.28187 -0.0888,-0.9137 -0.95003,-1.24445 -2.30307,-0.88366 -0.70504,0.18787 -1.808,0.33349 -2.45103,0.32353 -1.15714,-0.0179 -3.22031,-0.84679 -3.15563,-1.26772 0.0184,-0.11997 1.08826,-1.60015 2.37736,-3.2893 2.78058,-3.6434 4.28999,-6.06139 5.87504,-9.41148 4.69015,-9.91287 5.69291,-20.28153 2.77599,-28.70379 -1.26882,-3.6636 -2.08845,-5.14862 -5.08039,-9.204973 -1.53191,-2.076803 -2.98716,-3.962258 -3.23395,-4.189866 z m 0.68932,7.994794 c -0.95947,-0.0636 -2.65062,0.50155 -3.04739,1.01843 -0.0545,0.0709 -0.19326,-1.31058 -0.30838,-3.07009 -0.11513,-1.759508 -0.27206,-3.306155 -0.34876,-3.436972 -0.45303,-0.772818 1.57615,1.423831 3.06816,3.321382 l 1.76273,2.24193 z m 2.06545,4.28241 c 0.51097,2.38247 -2.46383,3.68626 -3.96013,1.73565 -1.383,-1.80292 0.65404,-4.27099 2.76659,-3.35195 0.7886,0.34306 0.97443,0.59472 1.19354,1.6163 z m 3.12293,6.33426 c 0.25454,1.43099 0.41606,2.59564 0.35891,2.58812 -0.0571,-0.008 -0.2628,-0.40579 -0.45694,-0.88505 -0.4,-0.98721 -1.87116,-2.37264 -2.90249,-2.73328 -0.61133,-0.21378 -0.60937,-0.21877 0.39013,-0.98959 0.55249,-0.42611 1.16593,-0.98479 1.36313,-1.24164 0.32179,-0.41903 0.3804,-0.40914 0.57157,0.096 0.1171,0.30982 0.42118,1.7341 0.67574,3.16509 z m -0.1659,11.62305 c -0.21961,1.07763 -0.53246,2.43371 -0.69516,3.01351 l -0.29589,1.05417 -0.22099,-1.11957 c -0.23611,-1.19606 -1.44313,-3.01816 -2.604,-3.93102 l -0.63052,-0.49581 0.93615,-0.24764 c 1.80262,-0.47682 3.68819,-2.3987 4.06288,-4.14119 0.0735,-0.34187 0.0692,0.39761 -0.01,1.6433 -0.0788,1.2457 -0.32309,3.14658 -0.5427,4.22422 z m -1.78561,-7.60087 c 0.24886,2.32225 -2.29096,4.24136 -4.56209,3.44715 -0.8991,-0.31441 -1.87304,-1.59562 -2.074,-2.72822 -0.20272,-1.14269 0.65522,-2.81604 1.72041,-3.35564 0.827,-0.41895 2.45983,-0.42404 3.16343,-0.01 0.81545,0.48001 1.65609,1.74978 1.75221,2.64662 z m -10.57192,-7.35597 c -0.61849,3.98774 -1.66853,7.01535 -4.56518,13.16297 -0.95184,2.02013 -2.09102,4.71507 -2.53148,5.98877 -1.3957,4.03592 -1.88452,10.13219 -1.17772,14.68775 0.17069,1.10009 0.0579,1.67552 -0.68211,3.48184 -1.08104,2.63859 -1.33186,2.61436 -2.22924,-0.21534 -3.26183,-10.28541 -0.7258,-22.0623 7.35508,-34.15595 2.41221,-3.61006 3.57047,-5.79538 4.05625,-7.65316 0.30729,-1.17522 0.30797,-1.17286 0.20343,0.71687 -0.0576,1.04279 -0.25076,2.83662 -0.42907,3.98626 z m 5.19732,2.19913 c -0.34786,0.10416 -0.96712,0.44617 -1.37617,0.75994 l -0.74372,0.57052 0.2243,-1.37222 0.22429,-1.3722 0.71172,0.4268 c 0.39145,0.23474 0.8899,0.49479 1.10767,0.57788 0.21778,0.0831 0.41586,0.16654 0.44017,0.18547 0.0245,0.0186 -0.24038,0.11964 -0.58824,0.22382 z m -2.36334,9.24007 c 0.45491,0.48979 1.00954,0.99453 1.23251,1.12167 0.36061,0.20566 0.29347,0.24484 -0.60772,0.35467 -1.40345,0.17109 -3.36252,1.46442 -4.28956,2.83188 -1.57813,2.32784 -1.46862,5.31017 0.27866,7.58796 l 0.98775,1.28766 -1.16707,0.15847 c -1.39189,0.18899 -3.11297,1.38492 -3.85483,2.67861 l -0.47679,0.83144 0.0558,-0.8875 c 0.2571,-4.09072 1.34982,-7.74164 3.92122,-13.1017 0.9245,-1.92713 1.84672,-3.95119 2.04938,-4.49793 0.20265,-0.54674 0.40873,-1.02496 0.45796,-1.06273 0.0492,-0.0378 0.20114,0.35335 0.33754,0.86917 0.16114,0.6093 0.53777,1.24975 1.07516,1.82832 z m 5.9257,7.42164 c 0.45936,2.48784 -1.67809,4.77253 -4.35201,4.6517 -5.04231,-0.22786 -5.05344,-7.70079 -0.0123,-8.22337 2.01615,-0.20898 3.95987,1.38173 4.36427,3.57167 z m -2.0898,10.56565 c -0.49634,0.79794 -0.93257,1.47394 -0.9694,1.50219 -0.0369,0.0283 -0.0938,-0.41224 -0.12688,-0.9788 -0.0801,-1.37675 -0.52532,-2.58923 -1.20955,-3.29408 l -0.56194,-0.57886 1.17247,-0.0676 c 1.48229,-0.0854 2.59416,-0.45966 3.59958,-1.21163 l 0.79008,-0.59093 -0.89595,1.8844 c -0.49279,1.03642 -1.30207,2.53728 -1.79839,3.33523 z m -3.6183,0.64951 c -0.032,2.63095 -3.08003,3.93977 -4.91687,2.11129 -1.80348,-1.79526 -0.76159,-4.72888 1.77614,-5.00103 1.06998,-0.11474 1.68284,0.19213 2.53633,1.26996 0.41517,0.52435 0.61134,1.05 0.6044,1.61978 z m -17.75788,-17.82707 0.95629,1.91476 -0.74796,2.52791 c -1.8044,6.09841 -2.17449,12.89185 -0.99902,18.33748 l 0.3443,1.59333 -0.60457,-0.52485 c -0.33248,-0.28867 -2.19899,-2.50818 -4.14775,-4.93229 -6.761773,-8.59408 -3.14018,-4.95944 -10.015557,-14.39201 -6.358034,-8.68404 -9.6997,-11.71198 -16.161055,-14.64377 -1.973554,-0.89549 -2.498779,-1.21915 -2.173472,-1.33936 1.088058,-0.40203 3.667459,-1.76222 5.141393,-2.71124 3.649029,-2.34944 5.905683,-3.28415 7.654998,-3.1707 4.133293,0.26803 10.973078,4.96971 17.018823,11.69874 3.73358,5.642 0.22106,0.29185 3.73393,5.64191 z m 15.98525,24.58981 -1.27307,1.65145 -1.37498,0.44307 -1.37496,0.44307 -0.60833,-2.86309 c -0.60177,-2.83221 -0.60137,-2.85655 0.0366,-2.25547 1.29995,1.22462 4.44312,1.69496 5.56674,0.83305 0.62884,-0.48238 0.32213,0.0691 -0.972,1.74791 z m 5.18904,7.31611 c -0.55157,0.27941 -1.23599,0.27752 -2.63698,-0.007 -2.33134,-0.47404 -3.19273,-0.33692 -4.58609,0.7299 -0.8638,0.66147 -1.26851,1.20121 -2.00074,2.66897 -1.15002,2.30522 -1.73435,2.94085 -2.90501,3.16005 -1.26052,0.23599 -1.94727,0.15792 -2.99333,-0.34033 -1.26395,-0.60205 -1.88468,-1.52074 -2.4125,-3.57052 -0.83989,-3.26172 -2.55997,-5.29322 -5.05358,-5.96855 l -1.31882,-0.35716 0.74199,-0.12823 c 1.58115,-0.27317 4.2233,0.41883 6.07566,1.59132 1.69554,1.07325 2.17601,0.86467 3.0248,-1.3131 0.36303,-0.93145 0.88945,-2.24793 1.16983,-2.9255 l 0.50976,-1.23194 0.35657,1.87583 c 0.1961,1.03173 0.51645,2.43432 0.71192,3.11688 0.35402,1.23623 0.35795,1.24136 1.02661,1.32936 0.47017,0.062 0.9271,-0.10793 1.52622,-0.56751 1.77458,-1.36126 3.65932,-1.35594 5.62088,0.0159 0.42904,0.30007 1.53882,0.67675 2.46619,0.83709 1.77938,0.30769 1.88297,0.47369 0.67678,1.08473 z"
           id="path1437"
           sodipodi:nodetypes="csssssssccsssscsscccsscsssssscssscssssssscscssscccscssccssssssscsscsssscsscsssscssssccsscssssssssscccsscssscsscsscsssscsssssscssscsscsccsssssccscccccscssccscccsssscscssssscsssscsscsssccssscs" />
        <path
           id="path1538"
           style="fill:url(#linearGradient953);fill-opacity:1.0;stroke:#59e287;stroke-width:3.15883;stroke-linecap:round;stroke-miterlimit:4;stroke-dasharray:none;stroke-opacity:1"
           d="m 77.332875,149.80266 a 7.3046782,7.3046782 0 0 1 3.604285,-9.65542 7.3046782,7.3046782 0 0 1 9.672157,3.55914 7.3046782,7.3046782 0 0 1 -3.513914,9.68868 7.3046782,7.3046782 0 0 1 -9.704989,-3.46862" />
        <path
           d="m 86.279149,144.79365 c 0.577351,0.57841 1.829413,1.10699 2.219552,0.45939 0.313027,-0.50694 -0.459338,-1.4909 -1.054448,-1.98879 -2.68941,-2.27408 -6.532212,-0.7664 -6.674393,-0.18581 -0.139826,0.57095 3.22339,-0.5732 5.509289,1.71521 z"
           id="path1461"
           style="fill:#59e287;fill-opacity:1;stroke-width:0.438227" />
        <path
           style="fill:none;stroke:#59e287;stroke-width:4.15468;stroke-linecap:butt;stroke-linejoin:miter;stroke-miterlimit:4;stroke-dasharray:none;stroke-opacity:1"
           d="M 75.097393,143.26826 C 46.671722,131.00764 62.096208,102.16679 62.096208,102.16679 72.461682,83.373805 93.910146,73.584714 114.89877,78.067675 c 20.98864,4.482961 36.56624,22.180445 38.3495,43.568275 1.78326,21.38784 -10.64849,41.42067 -30.60494,49.31751 -19.95643,7.89685 -42.729853,1.79485 -56.064384,-15.02211"
           id="path1526"
           sodipodi:nodetypes="ccsssc" />
        <g
           aria-label="Luštěniny"
           transform="scale(0.99034709,1.009747)"
           id="text951"
           style="font-size:63.864px;line-height:1.25;font-family:quicksand;-inkscape-font-specification:quicksand;letter-spacing:0px;word-spacing:0px;stroke-width:0.23949">
          <path
             d="m 208.7244,140.49704 q 1.66046,0 2.74615,1.08569 1.14955,1.02183 1.14955,2.68229 0,1.5966 -1.14955,2.68229 -1.08569,1.02182 -2.74615,1.02182 h -20.7558 q -1.66046,0 -2.81002,-1.08569 -1.08568,-1.14955 -1.08568,-2.81001 v -36.91339 q 0,-1.66047 1.14955,-2.74616 1.14955,-1.14955 2.93774,-1.14955 1.53274,0 2.68229,1.14955 1.21342,1.08569 1.21342,2.74616 v 34.42269 l -1.40501,-1.08569 z"
             style="font-style:normal;font-variant:normal;font-weight:bold;font-stretch:normal;font-size:63.864px;font-family:quicksand;-inkscape-font-specification:'quicksand Bold';stroke-width:0.23949;fill:#ffffff"
             id="path955" />
          <path
             d="m 244.67973,113.80189 q 1.66046,0 2.74615,1.14955 1.08569,1.08569 1.08569,2.74616 v 16.22145 q 0,6.76959 -3.76798,10.72915 -3.76797,3.95957 -10.85688,3.95957 -7.0889,0 -10.85688,-3.95957 -3.70411,-3.95956 -3.70411,-10.72915 V 117.6976 q 0,-1.66047 1.08569,-2.74616 1.08569,-1.14955 2.74615,-1.14955 1.66046,0 2.74615,1.14955 1.08569,1.08569 1.08569,2.74616 v 16.22145 q 0,3.89571 1.72433,5.81163 1.72433,1.85205 5.17298,1.85205 3.51252,0 5.23685,-1.85205 1.72433,-1.91592 1.72433,-5.81163 V 117.6976 q 0,-1.66047 1.08569,-2.74616 1.08568,-1.14955 2.74615,-1.14955 z"
             style="font-style:normal;font-variant:normal;font-weight:bold;font-stretch:normal;font-size:63.864px;font-family:quicksand;-inkscape-font-specification:'quicksand Bold';stroke-width:0.23949;fill:#ffffff"
             id="path957" />
          <path
             d="m 254.8341,142.66842 q -0.63864,-0.8941 -0.57478,-2.2991 0.0639,-1.40501 1.66046,-2.42684 1.02183,-0.63864 2.17138,-0.51091 1.14955,0.0639 2.23524,1.14955 1.85206,1.85206 3.8957,2.87388 2.04365,1.02183 5.10912,1.02183 0.95796,-0.0639 2.10752,-0.25546 1.14955,-0.25545 1.97978,-1.02182 0.8941,-0.83023 0.8941,-2.4907 0,-1.40501 -0.95796,-2.23524 -0.95796,-0.83023 -2.55456,-1.40501 -1.53274,-0.57477 -3.44866,-1.08568 -1.97978,-0.57478 -4.0873,-1.27728 -2.04364,-0.70251 -3.76797,-1.7882 -1.72433,-1.14955 -2.81002,-3.0016 -1.08569,-1.85206 -1.08569,-4.66208 0,-3.1932 1.7882,-5.42844 1.78819,-2.23524 4.5982,-3.44865 2.87388,-1.21342 6.00322,-1.21342 1.97978,0 4.15116,0.51091 2.17138,0.44705 4.15116,1.53274 1.97978,1.02182 3.32093,2.74615 0.7025,0.95796 0.83023,2.29911 0.12773,1.34114 -1.21342,2.42683 -0.95796,0.76637 -2.23524,0.7025 -1.27728,-0.12773 -2.10751,-0.89409 -1.08569,-1.40501 -2.93774,-2.23524 -1.78819,-0.83024 -4.15116,-0.83024 -0.95796,0 -2.10751,0.25546 -1.08569,0.19159 -1.91592,0.95796 -0.83024,0.7025 -0.83024,2.2991 0,1.46888 0.95796,2.36297 0.95796,0.83023 2.55456,1.40501 1.66047,0.51091 3.51252,1.02182 1.91592,0.51092 3.89571,1.21342 1.97978,0.7025 3.64025,1.85206 1.66046,1.14955 2.68228,3.0016 1.02183,1.7882 1.02183,4.59821 0,3.25707 -1.91592,5.55617 -1.91592,2.2991 -4.7898,3.51252 -2.87388,1.14955 -5.87549,1.14955 -3.76798,0 -7.53595,-1.27728 -3.76798,-1.34114 -6.25867,-4.66207 z m 11.94256,-33.01769 q -2.42683,0 -3.8957,-1.91592 l -2.81002,-3.51252 q -0.76636,-1.02182 -0.76636,-2.04365 0,-0.83023 0.63864,-1.34114 0.7025,-0.51091 1.97978,-0.51091 1.14955,0 2.87388,1.46887 l 4.15116,3.57638 -1.66046,-0.19159 3.8957,-3.38479 q 0.8941,-0.76637 1.5966,-1.08569 0.7025,-0.38318 1.91592,-0.38318 0.8941,0 1.46887,0.51091 0.63864,0.44705 0.63864,1.14955 0,0.44705 -0.25545,1.02183 -0.1916,0.51091 -0.76637,1.21341 l -2.81002,3.51252 q -1.46887,1.91592 -3.8957,1.91592 z"
             style="font-style:normal;font-variant:normal;font-weight:bold;font-stretch:normal;font-size:63.864px;font-family:quicksand;-inkscape-font-specification:'quicksand Bold';stroke-width:0.23949;fill:#ffffff"
             id="path959" />
          <path
             d="m 287.97941,114.44053 h 15.13577 q 1.53274,0 2.55456,1.02183 1.02182,1.02182 1.02182,2.55456 0,1.46887 -1.02182,2.49069 -1.02182,0.95796 -2.55456,0.95796 h -15.13577 q -1.53273,0 -2.55456,-1.02182 -1.02182,-1.02183 -1.02182,-2.55456 0,-1.46887 1.02182,-2.42683 1.02183,-1.02183 2.55456,-1.02183 z m 6.83345,-7.983 q 1.66046,0 2.68229,1.14955 1.08569,1.08569 1.08569,2.74616 v 28.41948 q 0,0.89409 0.31932,1.46887 0.38318,0.57477 0.95796,0.83023 0.63864,0.25546 1.34114,0.25546 0.76637,0 1.40501,-0.25546 0.63864,-0.31932 1.46887,-0.31932 0.8941,0 1.5966,0.83023 0.76637,0.83023 0.76637,2.29911 0,1.78819 -1.97979,2.93774 -1.91592,1.14955 -4.15116,1.14955 -1.34114,0 -3.0016,-0.19159 -1.5966,-0.25546 -3.06548,-1.08569 -1.405,-0.89409 -2.36296,-2.68229 -0.95796,-1.78819 -0.95796,-4.91752 v -28.7388 q 0,-1.66047 1.08568,-2.74616 1.14956,-1.14955 2.81002,-1.14955 z"
             style="font-style:normal;font-variant:normal;font-weight:bold;font-stretch:normal;font-size:63.864px;font-family:quicksand;-inkscape-font-specification:'quicksand Bold';stroke-width:0.23949;fill:#ffffff"
             id="path961" />
          <path
             d="m 329.17152,148.60777 q -5.42844,0 -9.45187,-2.23524 -3.95957,-2.2991 -6.13094,-6.19481 -2.10751,-3.8957 -2.10751,-8.81323 0,-5.74776 2.2991,-9.77119 2.36297,-4.0873 6.13094,-6.25867 3.76798,-2.17138 7.983,-2.17138 3.25707,0 6.13095,1.34115 2.93774,1.34114 5.17298,3.70411 2.23524,2.2991 3.51252,5.36457 1.34115,3.06548 1.34115,6.51413 -0.0639,1.53274 -1.21342,2.4907 -1.14955,0.95796 -2.68229,0.95796 h -24.39605 l -1.91592,-6.3864 h 23.43809 l -1.40501,1.27728 v -1.72433 q -0.12772,-1.85206 -1.34114,-3.32093 -1.14955,-1.46887 -2.93774,-2.2991 -1.72433,-0.8941 -3.70412,-0.8941 -1.91592,0 -3.57638,0.51091 -1.66046,0.51092 -2.87388,1.72433 -1.21342,1.21342 -1.91592,3.25707 -0.7025,2.04364 -0.7025,5.17298 0,3.44866 1.405,5.87549 1.46888,2.36297 3.70412,3.64025 2.2991,1.21341 4.85366,1.21341 2.36297,0 3.76798,-0.38318 1.405,-0.38319 2.23524,-0.8941 0.89409,-0.57477 1.5966,-0.95796 1.14955,-0.57477 2.17137,-0.57477 1.40501,0 2.29911,0.95796 0.95796,0.95796 0.95796,2.23524 0,1.72432 -1.7882,3.12933 -1.66046,1.40501 -4.66207,2.4907 -3.00161,1.02182 -6.19481,1.02182 z m -2.81001,-38.95704 q -2.42683,0 -3.89571,-1.91592 l -2.81001,-3.51252 q -0.76637,-1.02182 -0.76637,-2.04365 0,-0.83023 0.63864,-1.34114 0.7025,-0.51091 1.97978,-0.51091 1.14956,0 2.87388,1.46887 l 4.15116,3.57638 -1.66046,-0.19159 3.8957,-3.38479 q 0.8941,-0.76637 1.5966,-1.08569 0.70251,-0.38318 1.91592,-0.38318 0.8941,0 1.46888,0.51091 0.63864,0.44705 0.63864,1.14955 0,0.44705 -0.25546,1.02183 -0.19159,0.51091 -0.76637,1.21341 l -2.81001,3.51252 q -1.46888,1.91592 -3.89571,1.91592 z"
             style="font-style:normal;font-variant:normal;font-weight:bold;font-stretch:normal;font-size:63.864px;font-family:quicksand;-inkscape-font-specification:'quicksand Bold';stroke-width:0.23949;fill:#ffffff"
             id="path963" />
          <path
             d="m 368.70334,113.16325 q 4.72594,0 7.15277,1.97979 2.4907,1.97978 3.38479,5.30071 0.95796,3.25706 0.95796,7.28049 v 16.34919 q 0,1.66046 -1.08569,2.81001 -1.08568,1.08569 -2.74615,1.08569 -1.66046,0 -2.74615,-1.08569 -1.08569,-1.14955 -1.08569,-2.81001 v -16.34919 q 0,-2.10751 -0.57477,-3.76797 -0.51092,-1.72433 -1.91592,-2.74615 -1.40501,-1.02183 -4.02344,-1.02183 -2.55456,0 -4.34275,1.02183 -1.72433,1.02182 -2.68229,2.74615 -0.89409,1.66046 -0.89409,3.76797 v 16.34919 q 0,1.66046 -1.08569,2.81001 -1.08569,1.08569 -2.74615,1.08569 -1.66047,0 -2.74615,-1.08569 -1.08569,-1.14955 -1.08569,-2.81001 V 117.6976 q 0,-1.66047 1.08569,-2.74616 1.08568,-1.14955 2.74615,-1.14955 1.66046,0 2.74615,1.14955 1.08569,1.08569 1.08569,2.74616 v 2.74615 l -0.95796,-0.19159 q 0.57477,-1.08569 1.66046,-2.29911 1.08569,-1.27728 2.55456,-2.36297 1.46887,-1.08568 3.32093,-1.72432 1.85206,-0.70251 4.02343,-0.70251 z"
             style="font-style:normal;font-variant:normal;font-weight:bold;font-stretch:normal;font-size:63.864px;font-family:quicksand;-inkscape-font-specification:'quicksand Bold';stroke-width:0.23949;fill:#ffffff"
             id="path965" />
          <path
             d="m 395.71772,144.07343 q 0,1.66046 -1.08569,2.81001 -1.08568,1.08569 -2.74615,1.08569 -1.66046,0 -2.74615,-1.08569 -1.08569,-1.14955 -1.08569,-2.81001 V 117.6976 q 0,-1.66047 1.08569,-2.74616 1.08569,-1.14955 2.74615,-1.14955 1.66047,0 2.74615,1.14955 1.08569,1.08569 1.08569,2.74616 z m -3.8957,-34.4227 q -2.17138,0 -3.06547,-0.7025 -0.8941,-0.70251 -0.8941,-2.4907 v -1.21341 q 0,-1.85206 0.95796,-2.4907 1.02182,-0.7025 3.06547,-0.7025 2.23524,0 3.12934,0.7025 0.89409,0.7025 0.89409,2.4907 v 1.21341 q 0,1.85206 -0.95796,2.55456 -0.95796,0.63864 -3.12933,0.63864 z"
             style="font-style:normal;font-variant:normal;font-weight:bold;font-stretch:normal;font-size:63.864px;font-family:quicksand;-inkscape-font-specification:'quicksand Bold';stroke-width:0.23949;fill:#ffffff"
             id="path967" />
          <path
             d="m 421.83799,113.16325 q 4.72593,0 7.15276,1.97979 2.4907,1.97978 3.3848,5.30071 0.95796,3.25706 0.95796,7.28049 v 16.34919 q 0,1.66046 -1.08569,2.81001 -1.08569,1.08569 -2.74615,1.08569 -1.66047,0 -2.74616,-1.08569 -1.08568,-1.14955 -1.08568,-2.81001 v -16.34919 q 0,-2.10751 -0.57478,-3.76797 -0.51091,-1.72433 -1.91592,-2.74615 -1.40501,-1.02183 -4.02343,-1.02183 -2.55456,0 -4.34275,1.02183 -1.72433,1.02182 -2.68229,2.74615 -0.8941,1.66046 -0.8941,3.76797 v 16.34919 q 0,1.66046 -1.08569,2.81001 -1.08568,1.08569 -2.74615,1.08569 -1.66046,0 -2.74615,-1.08569 -1.08569,-1.14955 -1.08569,-2.81001 V 117.6976 q 0,-1.66047 1.08569,-2.74616 1.08569,-1.14955 2.74615,-1.14955 1.66047,0 2.74615,1.14955 1.08569,1.08569 1.08569,2.74616 v 2.74615 l -0.95796,-0.19159 q 0.57478,-1.08569 1.66047,-2.29911 1.08568,-1.27728 2.55456,-2.36297 1.46887,-1.08568 3.32092,-1.72432 1.85206,-0.70251 4.02344,-0.70251 z"
             style="font-style:normal;font-variant:normal;font-weight:bold;font-stretch:normal;font-size:63.864px;font-family:quicksand;-inkscape-font-specification:'quicksand Bold';stroke-width:0.23949;fill:#ffffff"
             id="path969" />
          <path
             d="m 466.67037,113.80189 q 1.66047,0 2.74616,1.14955 1.08568,1.08569 1.08568,2.74616 v 27.1422 q 0,5.87548 -2.23524,9.32414 -2.17137,3.51252 -5.87548,5.04526 -3.70412,1.53273 -8.30232,1.53273 -2.04365,0 -4.34276,-0.31932 -2.2991,-0.31932 -3.76797,-0.95796 -1.91592,-0.83023 -2.68229,-2.10751 -0.7025,-1.21342 -0.25546,-2.61842 0.57478,-1.85206 1.85206,-2.55456 1.27728,-0.63864 2.68229,-0.12773 1.02182,0.31932 2.68229,0.95796 1.66046,0.7025 3.83184,0.7025 2.93774,0 4.85366,-0.83023 1.97978,-0.76637 2.93774,-2.68229 1.02183,-1.85205 1.02183,-5.10912 v -4.27889 l 1.34114,1.53274 q -1.08569,2.10751 -2.74615,3.51252 -1.5966,1.34114 -3.83184,2.04365 -2.23524,0.7025 -5.10912,0.7025 -3.38479,0 -5.93935,-1.53273 -2.4907,-1.5966 -3.89571,-4.34276 -1.405,-2.81001 -1.405,-6.3864 V 117.6976 q 0,-1.66047 1.08568,-2.74616 1.08569,-1.14955 2.74616,-1.14955 1.66046,0 2.74615,1.14955 1.08569,1.08569 1.08569,2.74616 v 16.34918 q 0,4.15116 1.78819,5.87549 1.85205,1.66046 5.10912,1.66046 2.23524,0 3.76797,-0.83023 1.53274,-0.8941 2.36297,-2.55456 0.83023,-1.72433 0.83023,-4.15116 V 117.6976 q 0,-1.66047 1.08569,-2.74616 1.08569,-1.14955 2.74615,-1.14955 z"
             style="font-style:normal;font-variant:normal;font-weight:bold;font-stretch:normal;font-size:63.864px;font-family:quicksand;-inkscape-font-specification:'quicksand Bold';stroke-width:0.23949;fill:#ffffff"
             id="path971" />
        </g>
      </g>
    </g>
  </g>
</svg>
