<?xml version="1.0" encoding="UTF-8" standalone="no"?>
<svg
   xmlns:dc="http://purl.org/dc/elements/1.1/"
   xmlns:cc="http://creativecommons.org/ns#"
   xmlns:rdf="http://www.w3.org/1999/02/22-rdf-syntax-ns#"
   xmlns:svg="http://www.w3.org/2000/svg"
   xmlns="http://www.w3.org/2000/svg"
   xmlns:xlink="http://www.w3.org/1999/xlink"
   xmlns:sodipodi="http://sodipodi.sourceforge.net/DTD/sodipodi-0.dtd"
   xmlns:inkscape="http://www.inkscape.org/namespaces/inkscape"
   width="44.990089mm"
   height="44.969807mm"
   viewBox="0 0 44.990088 44.969805"
   version="1.1"
   id="svg844"
   sodipodi:docname="Logo.svg"
   inkscape:version="1.0.2 (e86c870879, 2021-01-15, custom)"
   inkscape:export-filename="C:\Users\juricka\source\repos\Lusteniny\src\images\logo\Logo_Name.png"
   inkscape:export-xdpi="141.14"
   inkscape:export-ydpi="141.14">
  <defs
     id="defs838">
    <linearGradient
       inkscape:collect="always"
       id="linearGradient2097">
      <stop
         style="stop-color:#000000;stop-opacity:0.38431373"
         offset="0"
         id="stop2093" />
      <stop
         style="stop-color:#000000;stop-opacity:0"
         offset="1"
         id="stop2095" />
    </linearGradient>
    <linearGradient
       inkscape:collect="always"
       id="linearGradient2060">
      <stop
         style="stop-color:#246923;stop-opacity:0.38431373"
         offset="0"
         id="stop2056" />
      <stop
         style="stop-color:#246923;stop-opacity:0"
         offset="1"
         id="stop2058" />
    </linearGradient>
    <linearGradient
       inkscape:collect="always"
       xlink:href="#linearGradient2060"
       id="linearGradient2062"
       x1="72.160889"
       y1="158.62302"
       x2="87.207817"
       y2="146.42152"
       gradientUnits="userSpaceOnUse" />
    <linearGradient
       inkscape:collect="always"
       xlink:href="#linearGradient2097"
       id="linearGradient2087"
       gradientUnits="userSpaceOnUse"
       x1="72.160889"
       y1="158.62302"
       x2="87.207817"
       y2="146.42152"
       gradientTransform="matrix(0.90927429,0,0,0.90927429,9.609756,11.397174)" />
    <clipPath
       clipPathUnits="userSpaceOnUse"
       id="clipPath1032">
      <use
         x="0"
         y="0"
         xlink:href="#g1028"
         id="use1034"
         transform="translate(50.313082,13.801783)"
         width="100%"
         height="100%" />
    </clipPath>
    <clipPath
       clipPathUnits="userSpaceOnUse"
       id="clipPath1059">
      <use
         x="0"
         y="0"
         xlink:href="#g1055"
         id="use1061"
         width="100%"
         height="100%" />
    </clipPath>
  </defs>
  <sodipodi:namedview
     id="base"
     pagecolor="#ffffff"
     bordercolor="#666666"
     borderopacity="1.0"
     inkscape:pageopacity="1"
     inkscape:pageshadow="2"
     inkscape:zoom="0.49497475"
     inkscape:cx="513.11143"
     inkscape:cy="234.59495"
     inkscape:document-units="mm"
     inkscape:current-layer="g2103"
     inkscape:document-rotation="0"
     showgrid="false"
     fit-margin-top="0"
     fit-margin-left="0"
     fit-margin-right="0"
     fit-margin-bottom="0"
     inkscape:window-width="1842"
     inkscape:window-height="1057"
     inkscape:window-x="-8"
     inkscape:window-y="-8"
     inkscape:window-maximized="1">
    <inkscape:grid
       type="xygrid"
       id="grid914"
       originx="-13.614259"
       originy="-40.871346" />
  </sodipodi:namedview>
  <metadata
     id="metadata841">
    <rdf:RDF>
      <cc:Work
         rdf:about="">
        <dc:format>image/svg+xml</dc:format>
        <dc:type
           rdf:resource="http://purl.org/dc/dcmitype/StillImage" />
        <dc:title></dc:title>
      </cc:Work>
    </rdf:RDF>
  </metadata>
  <g
     inkscape:label="Vrstva 1"
     inkscape:groupmode="layer"
     id="layer1"
     transform="translate(-64.452464,-110.72845)">
    <g
       id="g1565"
       transform="matrix(1.0141335,0,0,0.99464939,-0.74335552,0.39356049)">
      <g
         id="g1467"
         transform="matrix(-0.22614915,0.13733499,-0.13733499,-0.22614915,85.618874,150.14178)" />
      <g
         id="g1469"
         transform="matrix(-0.22614915,0.13733499,-0.13733499,-0.22614915,85.618874,150.14178)" />
      <g
         id="g1471"
         transform="matrix(-0.22614915,0.13733499,-0.13733499,-0.22614915,85.618874,150.14178)" />
      <g
         id="g1473"
         transform="matrix(-0.22614915,0.13733499,-0.13733499,-0.22614915,85.618874,150.14178)" />
      <g
         id="g1475"
         transform="matrix(-0.22614915,0.13733499,-0.13733499,-0.22614915,85.618874,150.14178)" />
      <g
         id="g1477"
         transform="matrix(-0.22614915,0.13733499,-0.13733499,-0.22614915,85.618874,150.14178)" />
      <g
         id="g1479"
         transform="matrix(-0.22614915,0.13733499,-0.13733499,-0.22614915,85.618874,150.14178)" />
      <g
         id="g1481"
         transform="matrix(-0.22614915,0.13733499,-0.13733499,-0.22614915,85.618874,150.14178)" />
      <g
         id="g1483"
         transform="matrix(-0.22614915,0.13733499,-0.13733499,-0.22614915,85.618874,150.14178)" />
      <g
         id="g1485"
         transform="matrix(-0.22614915,0.13733499,-0.13733499,-0.22614915,85.618874,150.14178)" />
      <g
         id="g1487"
         transform="matrix(-0.22614915,0.13733499,-0.13733499,-0.22614915,85.618874,150.14178)" />
      <g
         id="g1489"
         transform="matrix(-0.22614915,0.13733499,-0.13733499,-0.22614915,85.618874,150.14178)" />
      <g
         id="g1491"
         transform="matrix(-0.22614915,0.13733499,-0.13733499,-0.22614915,85.618874,150.14178)" />
      <g
         id="g1493"
         transform="matrix(-0.22614915,0.13733499,-0.13733499,-0.22614915,85.618874,150.14178)" />
      <g
         id="g1495"
         transform="matrix(-0.22614915,0.13733499,-0.13733499,-0.22614915,85.618874,150.14178)" />
      <g
         id="g2103"
         transform="matrix(1.1,0,0,1.1,-10.564346,-12.568055)">
        <g
           id="rect872"
           style="opacity:1">
          <rect
             style="fill:#ffffff;fill-rule:evenodd;stroke:#ffffff;stroke-width:0.95796;stroke-linecap:round;stroke-linejoin:round;stroke-miterlimit:12.4;stroke-opacity:0;paint-order:markers fill stroke"
             id="rect879"
             width="36.254375"
             height="36.964558"
             x="70.084724"
             y="114.33803"
             ry="4.8754663" />
          <path
             id="path1039"
             style="color:#000000;font-style:normal;font-variant:normal;font-weight:normal;font-stretch:normal;font-size:63.864px;line-height:1.25;font-family:quicksand;-inkscape-font-specification:quicksand;font-variant-ligatures:normal;font-variant-position:normal;font-variant-caps:normal;font-variant-numeric:normal;font-variant-alternates:normal;font-variant-east-asian:normal;font-feature-settings:normal;font-variation-settings:normal;text-indent:0;text-align:start;text-decoration:none;text-decoration-line:none;text-decoration-style:solid;text-decoration-color:#000000;letter-spacing:0px;word-spacing:0px;text-transform:none;writing-mode:lr-tb;direction:ltr;text-orientation:mixed;dominant-baseline:auto;baseline-shift:baseline;text-anchor:start;white-space:normal;shape-padding:0;shape-margin:0;inline-size:0;clip-rule:nonzero;display:inline;overflow:visible;visibility:visible;isolation:auto;mix-blend-mode:normal;color-interpolation:sRGB;color-interpolation-filters:linearRGB;solid-color:#000000;solid-opacity:1;vector-effect:none;fill:#059669;fill-opacity:1;fill-rule:evenodd;stroke:none;stroke-width:4;stroke-linecap:round;stroke-linejoin:round;stroke-miterlimit:12.4;stroke-dasharray:none;stroke-dashoffset:0;stroke-opacity:1;paint-order:markers fill stroke;color-rendering:auto;image-rendering:auto;shape-rendering:auto;text-rendering:auto;enable-background:accumulate;stop-color:#000000;stop-opacity:1"
             d="m 22.576172,1.9804688 c -11.388094,0 -20.5566403,8.9927972 -20.5566408,20.1621092 V 147.82031 c 0,11.16927 9.1685468,20.16016 20.5566408,20.16016 H 147.46289 c 11.38811,0 20.55664,-8.99089 20.55664,-20.16016 V 22.142578 c 0,-11.169312 -9.16853,-20.1621092 -20.55664,-20.1621092 z M 84.712891,14.982422 c 4.76954,0.03466 9.584526,0.542234 14.386718,1.548828 30.733351,6.442903 53.566781,31.896854 56.177731,62.632812 2.61099,30.735968 -15.60837,59.557018 -44.83007,70.906248 -29.221693,11.3492 -62.60044,2.5704 -82.125004,-21.59765 l 4.578125,-3.55274 c 14.478336,17.92168 37.203403,26.61291 59.546875,23.82422 0.47268,-0.23744 1.066915,-0.51756 1.884765,-0.9043 1.773557,-0.83866 2.977899,-2.1512 3.597657,-3.86132 0.619757,-1.71009 0.654993,-3.81952 0.05078,-6.25 -0.1782,-0.71664 -0.303344,-1.11042 -0.486328,-1.38086 -0.182985,-0.27049 -0.442211,-0.45224 -0.939453,-0.73633 -1.938594,-1.10729 -3.587283,-3.59364 -4.347657,-6.49219 -0.686488,-2.61673 -2.071584,-4.80511 -3.566406,-5.71094 -0.558449,-0.33847 -1.566679,-0.56957 -2.816406,-0.64648 -1.249728,-0.0769 -2.744646,-0.005 -4.289063,0.22656 -1.24775,0.18898 -1.972736,0.27825 -2.503906,0.22656 -0.53117,-0.0517 -0.858801,-0.27196 -1.193359,-0.62304 -0.28458,-0.29886 -0.478896,-0.58386 -0.544922,-0.89649 -0.06607,-0.31258 0.0095,-0.63305 0.222656,-0.96093 0.426296,-0.65577 1.375372,-1.38397 3.005859,-2.47071 0.740246,-0.49337 1.501907,-0.97905 2.132813,-1.35742 0.630905,-0.37833 1.112864,-0.64832 1.367187,-0.74219 l 0.542969,-0.20312 -1.349609,-1.33985 C 77.47184,108.75117 75.156018,105.1066 72.9375,101.35156 70.718986,97.596491 68.597623,93.737575 63.195312,87.378906 h -0.0078 v -0.0078 c -4.817105,-6.180936 -6.293429,-7.896133 -8.382812,-9.75 -4.362873,-3.871077 -9.302934,-6.565386 -16.337891,-8.908203 -0.980466,-0.326519 -1.937106,-0.65605 -2.677735,-0.927735 -0.370316,-0.135635 -0.68485,-0.257054 -0.929687,-0.355468 -0.244837,-0.09842 -0.404136,-0.167843 -0.501953,-0.226563 -0.4288,-0.258039 -0.713411,-0.760131 -0.847656,-1.324219 -0.134245,-0.564046 -0.121698,-1.197793 0.08203,-1.769531 0.08074,-0.226611 0.178048,-0.432025 0.361328,-0.636719 0.183263,-0.204694 0.447544,-0.410572 0.873047,-0.664062 0.851002,-0.50727 2.354908,-1.233296 5.1875,-2.576172 3.297336,-1.563243 6.975979,-3.45724 8.128906,-4.183594 6.136257,-3.865618 9.893119,-5.193934 13.800781,-4.83789 7.61735,0.693929 16.707829,6.506136 26.5,16.873046 v 0.0078 l 0.0078,0.0078 c 5.760893,7.379162 1.360835,1.572455 6.003906,8.011719 0.0156,-0.02316 0.02289,-0.03551 0.04102,-0.06445 0.102918,-0.168015 0.24617,-0.418487 0.419922,-0.726563 0.347468,-0.61627 0.818802,-1.469037 1.318359,-2.414062 1.00688,-1.904731 3.26013,-5.589265 5.023433,-8.199219 1.7561,-2.599285 3.69174,-5.780268 4.28125,-7.033203 2.012,-4.276329 2.93471,-13.415149 1.87891,-18.787109 -0.28633,-1.456885 -0.41723,-2.378112 -0.34766,-3.052735 0.0696,-0.674663 0.36449,-1.099359 0.85742,-1.470703 0.55332,-0.416749 1.08279,-0.658833 1.61329,-0.710937 v 0.002 c 0.5305,-0.05194 1.05561,0.08765 1.58984,0.402344 1.42188,0.837219 5.06624,3.792144 7.07422,5.71875 1.0065,0.965701 2.11228,2.00987 2.45312,2.318359 l 0.0742,0.07227 v 0.0078 c 0.11349,0.113347 0.25356,0.282271 0.49414,0.574219 0.27537,0.33421 0.63466,0.776557 1.04688,1.300781 0.82447,1.048406 1.87053,2.418828 2.94726,3.851563 4.20622,5.597123 5.3788,7.678903 7.16407,12.738281 4.11586,11.664134 2.70217,26.002334 -3.90235,39.703129 -2.23107,4.62823 -4.36702,7.97496 -8.27734,13.0039 -0.90474,1.16358 -1.73376,2.25774 -2.33789,3.07813 -0.30206,0.41017 -0.54575,0.75147 -0.7168,1 -0.0855,0.12447 -0.15266,0.22883 -0.19727,0.30078 -0.0224,0.036 -0.0391,0.0594 -0.0488,0.0801 -0.002,0.004 10e-4,0.005 0,0.008 5e-4,0.008 0.004,0.0434 0.0566,0.10547 0.0575,0.0678 0.15503,0.15287 0.28906,0.24219 0.26807,0.17827 0.66862,0.37101 1.11914,0.54882 0.90104,0.35526 2.02678,0.6419 2.80078,0.6543 0.87482,0.0133 2.42344,-0.18987 3.39258,-0.44336 0.97148,-0.25514 1.78002,-0.27165 2.38672,-0.043 0.6067,0.22852 0.99521,0.72692 1.0625,1.40625 0.0339,0.3419 -0.10386,0.76565 -0.3457,1.25977 -0.24183,0.49412 -0.59276,1.05561 -1.01172,1.63086 -0.83793,1.15046 -1.94851,2.35034 -3.00586,3.1582 -1.59718,1.22076 -2.26023,1.5223 -3.74805,1.70508 -1.00334,0.12323 -2.57702,0.013 -3.57422,-0.25 -0.47849,-0.12613 -0.98941,-0.24478 -1.42383,-0.33203 -0.43442,-0.0873 -0.80093,-0.1404 -0.95507,-0.14453 -0.52463,-0.0178 -1.10291,0.27094 -1.72071,0.90429 -0.61779,0.63336 -1.26772,1.60218 -1.91015,2.88282 -1.49684,2.98386 -3.56972,5.0157 -5.78125,5.58984 l -1.16993,0.29883 0.33008,1.71875 c 0.20327,1.06428 0.21615,2.97898 0.0332,4.31445 -0.17636,1.28752 -0.52997,2.49592 -1.03516,3.61524 1.88242,-0.54493 3.7534,-1.16741 5.60547,-1.88672 26.85062,-10.42836 43.56552,-36.86096 41.16601,-65.107426 -2.39946,-28.24651 -23.34487,-51.593628 -51.583979,-57.513672 -28.23519,-5.919217 -57.050649,6.994361 -71,31.806641 l -0.0098,0.0078 c -0.02749,0.05111 -5.087627,9.477476 -5.484375,20.716797 -0.397845,11.269839 3.323994,23.88806 22.349609,31.94336 l -2.314453,5.25782 C 20.513625,103.00803 15.09554,87.297681 15.548828,74.457031 c 0.453246,-12.84065 6.19336,-23.24414 6.19336,-23.24414 l 0.0078,-0.01758 0.0078,-0.01562 c 11.382757,-20.255582 31.914867,-33.247095 54.433594,-35.75586 2.814846,-0.313601 5.65976,-0.4622 8.521485,-0.441406 z m 31.828129,30.939453 c 0.0114,0.06451 0.021,0.118054 0.0332,0.201172 0.0389,0.267053 0.0785,0.627702 0.12305,1.058594 0.0891,0.861741 0.19049,2.007848 0.27148,3.222656 0.0807,1.211582 0.16984,2.28846 0.24805,3.052734 0.0391,0.382096 0.0766,0.691421 0.10742,0.888672 0.005,0.03556 0.0106,0.04332 0.0156,0.07227 0.37596,-0.356458 0.937,-0.684169 1.67969,-0.927735 0.84773,-0.277887 1.7904,-0.458424 2.50391,-0.412109 l 1.21094,0.08008 -2.24805,-2.802734 c -1.04461,-1.304005 -2.28064,-2.711276 -3.17188,-3.658203 -0.34418,-0.365555 -0.5665,-0.583516 -0.77343,-0.775391 z m 0.67578,8.558594 c 3.1e-4,0 -0.0146,0.0034 -0.0293,0.0078 7.9e-4,0.0033 0.003,0.0048 0.004,0.0078 0.009,-0.0045 0.0204,-0.0083 0.0254,-0.01367 z m -55.832034,1.949219 c -2.38829,-0.152053 -5.539367,1.112114 -10.65625,4.345703 -2.074989,1.311324 -5.648081,3.162243 -7.222657,3.738281 0.03681,0.04053 0.117513,0.12505 0.314453,0.24414 0.457391,0.276648 1.332349,0.699843 2.716797,1.316407 9.097259,4.051455 13.839552,8.25652 22.777344,20.238281 4.831723,6.506172 5.976347,8.519459 7.097656,10.371094 1.121314,1.851634 2.219012,3.551876 6.966797,9.474606 1.368149,1.67039 2.708588,3.26658 3.763672,4.49805 0.527545,0.61574 0.981043,1.14148 1.333984,1.53516 0.352942,0.39363 0.614119,0.66155 0.708985,0.74218 l 0.460937,0.39649 -0.371093,-1.71289 c -1.659028,-7.54366 -1.142449,-16.924242 1.40039,-25.359378 l 1.03711,-3.425781 -1.308594,-2.568359 c -0.01012,-0.01522 0.0019,9.16e-4 -0.0078,-0.01563 -2.437846,-3.644135 -2.449491,-3.664808 -2.488281,-3.714844 -0.03883,-0.0502 -0.146991,-0.193793 -2.734375,-4.03125 C 80.935209,67.87156 76.422271,63.940626 72.246107,61.123042 68.069942,58.305458 64.230416,56.610802 61.384779,56.429683 Z M 121.625,56.8125 c -1.01861,-0.06756 -1.93795,0.396511 -2.53906,1.111328 -0.8015,0.95313 -1.02404,2.330871 -0.0996,3.513672 1.00707,1.288705 2.4879,1.48804 3.64062,0.992188 1.15272,-0.495898 1.96655,-1.674043 1.62305,-3.246094 -0.15243,-0.697656 -0.29429,-1.115244 -0.51172,-1.404297 -0.21742,-0.28897 -0.52579,-0.478537 -1.07031,-0.710938 -0.35373,-0.151039 -0.70343,-0.23334 -1.04297,-0.255859 z m -9.93359,0.0293 c -0.69088,2.593289 -2.33216,5.620354 -5.72461,10.603515 -11.333492,16.647631 -14.872179,32.827195 -10.308597,46.951165 0.314511,0.9734 0.571615,1.70699 0.798828,2.1875 0.113628,0.24047 0.219279,0.4154 0.3125,0.5254 0.09322,0.10995 0.167453,0.15016 0.214844,0.15429 0.04735,0.005 0.100629,-0.017 0.197266,-0.10547 0.09664,-0.0886 0.217107,-0.24466 0.345703,-0.46093 0.257211,-0.43226 0.558713,-1.10433 0.9375,-2.01172 0.518559,-1.24239 0.821395,-2.05691 0.957031,-2.73633 0.135636,-0.67946 0.11835,-1.23183 0,-1.98047 -0.998262,-6.31517 -0.31965,-14.725664 1.654295,-20.328122 0.62414,-1.771452 2.22666,-5.488468 3.56641,-8.279297 4.067,-8.471815 5.53199,-12.616494 6.39844,-18.099609 0.24925,-1.577303 0.51924,-4.054443 0.5996,-5.482422 0.0233,-0.412862 0.036,-0.652169 0.0508,-0.9375 z m 15.80273,6.291015 c 0.0259,0.0041 0.0117,-0.0066 -0.0488,0.04883 -0.0605,0.05541 -0.15236,0.164388 -0.26367,0.30664 -0.30803,0.393757 -1.15852,1.142178 -1.94336,1.736328 -0.35099,0.265648 -0.61258,0.465539 -0.79101,0.615235 -0.16823,0.141011 -0.24639,0.240355 -0.26368,0.273437 0.005,0.0041 -0.004,0.0052 0.0156,0.01758 0.0694,0.04135 0.23083,0.104128 0.44531,0.177735 0.76449,0.26238 1.6495,0.868741 2.42969,1.589844 0.78018,0.721139 1.44838,1.548387 1.74609,2.269531 0.0934,0.226321 0.184,0.400908 0.27149,0.582031 -0.0143,-0.111651 -0.0221,-0.179231 -0.041,-0.314453 -0.0909,-0.643608 -0.23363,-1.544408 -0.41211,-2.529297 -0.002,-0.0083 -0.006,-0.01517 -0.008,-0.02344 v -0.0098 c -0.17677,-0.972938 -0.37539,-1.941335 -0.54492,-2.720703 -0.17156,-0.788714 -0.32543,-1.39475 -0.39453,-1.574219 -0.0662,-0.171612 -0.11337,-0.29944 -0.15625,-0.373047 -0.043,-0.07369 -0.0667,-0.0764 -0.041,-0.07227 z m -11.20898,1.501954 -0.27149,1.65039 -0.24609,1.478516 0.70703,-0.525391 c 0.55822,-0.420264 1.33272,-0.828642 1.86914,-1.009765 v -0.0332 l 0.11523,-0.04102 c 0.1816,-0.05334 0.32108,-0.100583 0.45313,-0.146485 -0.0835,-0.03308 -0.15778,-0.0663 -0.25391,-0.103515 -0.33538,-0.125629 -1.025,-0.48067 -1.58203,-0.808594 z m 5.15625,4.886718 v 0.002 c -0.82266,0.0024 -1.6659,0.150718 -2.20703,0.419921 -0.70173,0.34889 -1.36272,1.087299 -1.80274,1.929688 -0.44001,0.842389 -0.66011,1.784989 -0.52734,2.519531 0.13487,0.746079 0.53171,1.555796 1.05273,2.228516 0.52102,0.672678 1.16415,1.206518 1.74609,1.40625 3.07345,1.054898 6.52898,-1.506317 6.19336,-4.580078 -8.4e-4,-0.0083 -0.007,-0.01517 -0.008,-0.02344 -0.0681,-0.57244 -0.38518,-1.296421 -0.82422,-1.947266 -0.44434,-0.658738 -1.01027,-1.239811 -1.54883,-1.550781 -0.44467,-0.257625 -1.25155,-0.406654 -2.07421,-0.404297 z m -8.22657,6.140625 c -0.0308,0.06451 -0.0612,0.121731 -0.0996,0.208985 -0.11501,0.261926 -0.25307,0.619488 -0.39453,0.99414 -0.29553,0.782552 -1.58301,3.551568 -2.88281,6.210938 -3.6076,7.380899 -5.13246,12.39233 -5.49219,18.009765 l -0.0332,0.50976 0.30469,-0.52539 c 1.07594,-1.841568 3.51168,-3.508847 5.54297,-3.779291 l 1.34179,-0.177735 -1.20312,-1.550781 c -2.49597,-3.193601 -2.65124,-7.387089 -0.39453,-10.654297 1.33663,-1.935166 4.08802,-3.734422 6.14258,-3.980469 0.31557,-0.03763 0.55964,-0.06871 0.73242,-0.09766 0.0768,-0.01241 0.0838,-0.0208 0.13281,-0.0332 -0.0318,-0.01944 -0.0315,-0.02402 -0.0742,-0.04883 -0.18786,-0.105159 -0.45574,-0.321792 -0.77344,-0.605469 -0.3177,-0.28376 -0.67491,-0.627179 -0.99804,-0.96875 l -0.0488,-0.04883 v -0.0332 c -0.7325,-0.793924 -1.26991,-1.664988 -1.49805,-2.511719 -0.0946,-0.350916 -0.19886,-0.663091 -0.28125,-0.871094 -0.009,-0.0228 -0.015,-0.02787 -0.0234,-0.04687 z m 16.02539,0.644532 c -0.35307,1.092653 -0.95068,2.204204 -1.8789,3.132812 -1.0623,1.062714 -2.37325,1.907005 -3.67969,2.246094 l -0.98828,0.257812 0.61719,0.476563 c 1.67203,1.290483 3.37612,3.802283 3.72265,5.52539 l 0.17188,0.855469 0.22265,-0.783203 c 0.22528,-0.787969 0.66292,-2.662132 0.97071,-4.144531 0.30565,-1.472103 0.65757,-4.092051 0.76758,-5.798828 0.0505,-0.778706 0.0675,-1.354882 0.0742,-1.767578 z m -11.33203,8.197265 c -0.16983,-10e-4 -0.3389,0.006 -0.50976,0.02344 -3.45879,0.351908 -5.15245,3.027675 -5.14844,5.662109 0.002,1.317197 0.43524,2.613779 1.29297,3.601563 0.85773,0.987825 2.13399,1.669178 3.86328,1.746093 3.65636,0.162143 6.57032,-2.896378 5.94531,-6.21875 -0.51866,-2.756703 -2.8958,-4.799291 -5.44336,-4.814453 z m 6.01172,12.697266 -0.56836,0.412109 c -1.43881,1.056181 -3.04059,1.58403 -5.14648,1.703125 l -1.26953,0.06445 0.52734,0.541016 c 1.0032,1.014335 1.63179,2.724085 1.74609,4.652345 0.0229,0.38441 0.0508,0.72275 0.082,0.96094 0.0652,-0.0968 0.13264,-0.19321 0.22265,-0.33008 0.2461,-0.37432 0.57366,-0.8802 0.92188,-1.42969 0.69058,-1.08972 1.83282,-3.16632 2.52148,-4.58789 z m -12.30469,3.708985 c -0.16279,8e-4 -0.33451,0.01 -0.51757,0.0293 -1.72095,0.18113 -2.9183,1.23422 -3.39258,2.54493 -0.47429,1.3107 -0.21877,2.86791 1.0039,4.0625 1.24285,1.21435 2.87558,1.38165 4.2168,0.8164 1.34122,-0.56524 2.37498,-1.86109 2.39649,-3.61133 0.009,-0.74641 -0.24138,-1.42436 -0.80665,-2.125 -0.59214,-0.73392 -1.0955,-1.18975 -1.61523,-1.44531 -0.38979,-0.19105 -0.79678,-0.27391 -1.28516,-0.27148 z m -56.960933,0.93554 c 1.614788,-0.0468 3.215975,0.2172 4.712891,0.75782 h 0.002 c 2.993825,1.08124 5.573249,3.27088 7.015625,6.3164 2.884793,6.091 0.191833,13.38949 -6.001954,16.25 -5.765455,2.66272 -12.31191,0.23256 -15.605468,-4.95898 -0.391605,-0.18079 -0.728666,-0.48583 -0.955078,-0.84766 -0.0042,-0.008 -0.02117,-0.009 -0.02539,-0.0176 -0.01982,-0.0426 -0.04173,-0.0855 -0.05859,-0.1289 -0.01265,-0.024 -0.02837,-0.0475 -0.04102,-0.0723 -0.0084,-0.0153 0.0084,-0.0323 0,-0.0488 -0.134077,-0.39677 -0.149218,-0.82172 -0.04297,-1.22656 -1.931586,-5.82175 0.405149,-12.30578 6.201172,-14.91797 1.555181,-0.70094 3.18404,-1.05871 4.798828,-1.10547 z m 0.158203,4.33399 c -1.040642,0.0354 -2.093887,0.27065 -3.105469,0.72656 -4.046368,1.8236 -5.808506,6.45406 -3.96875,10.43555 0.01265,0.0294 0.02837,0.0609 0.04102,0.0898 0.0042,0.0124 0.01336,0.0286 0.01758,0.041 0.0042,0.004 0.005,0.005 0.0078,0.008 1.915227,3.94687 6.652812,5.60869 10.68164,3.74805 4.028913,-1.86069 5.746759,-6.51212 3.869141,-10.47657 -0.938788,-1.98218 -2.590168,-3.39969 -4.511719,-4.09375 l -0.002,-0.002 c -0.960776,-0.34693 -1.988655,-0.51197 -3.029297,-0.47656 z m 0.552734,1.07422 c 1.569044,0.0562 3.282297,0.51988 4.759766,1.74609 0.443215,0.36469 0.939537,0.89054 1.283203,1.43945 0.172402,0.27533 0.307134,0.55452 0.371094,0.83985 0.06396,0.28529 0.04781,0.58837 -0.115235,0.84765 -0.184544,0.29609 -0.488019,0.47738 -0.80664,0.53321 -0.320869,0.0566 -0.660397,0.0118 -0.996094,-0.082 -0.671381,-0.18751 -1.343894,-0.58188 -1.794922,-1.02539 -1.534218,-1.50745 -3.427063,-1.88997 -4.949218,-1.98632 -0.76108,-0.0496 -1.417839,-0.0208 -1.902344,-0.0332 -0.242244,-0.006 -0.434807,-0.0193 -0.619141,-0.0801 -0.09217,-0.0306 -0.199062,-0.0719 -0.279297,-0.17773 -0.08024,-0.10586 -0.09423,-0.26962 -0.06641,-0.38086 0.05941,-0.23777 0.219566,-0.36924 0.419922,-0.51562 0.20036,-0.14668 0.455239,-0.28388 0.767578,-0.41993 0.62467,-0.27205 1.466183,-0.52081 2.419922,-0.63867 0.476868,-0.0588 0.984798,-0.0851 1.507812,-0.0664 z m 50.675786,3.0625 c -0.001,0.16793 0.0458,0.50492 0.14843,1.0332 0.10423,0.53634 0.2672,1.26985 0.47852,2.24609 l 0.80664,3.77149 1.76172,-0.55664 1.8789,-0.59766 1.75391,-2.23828 c 0.85583,-1.08976 1.35073,-1.77696 1.58789,-2.17188 -0.86335,0.64142 -2.37877,0.76065 -3.92773,0.53321 -1.55534,-0.22847 -3.13705,-0.81252 -4.0918,-1.69532 -0.19112,-0.17653 -0.31878,-0.27211 -0.39648,-0.32421 z m -3.20313,3.82031 -0.50195,1.1875 c -0.39291,0.93192 -1.12918,2.74817 -1.63867,4.03125 -0.59947,1.50965 -1.066099,2.37905 -1.771489,2.67969 -0.352692,0.15011 -0.752336,0.13402 -1.193359,-0.008 -0.441023,-0.142 -0.938425,-0.4102 -1.539063,-0.7832 -2.566332,-1.59438 -6.273094,-2.53536 -8.416015,-2.17187 l -0.289063,0.0469 1.119141,0.30078 c 3.566859,0.94809 6.025253,3.81528 7.214844,8.34961 0.368288,1.40379 0.769029,2.40844 1.285156,3.1582 0.516131,0.74976 1.150184,1.25059 2.017578,1.65625 1.44981,0.67789 2.3463,0.78308 4.09961,0.46094 0.79824,-0.14672 1.36928,-0.41908 1.96094,-1.05078 0.59165,-0.6317 1.19452,-1.63795 2,-3.22266 1.0324,-2.03118 1.62889,-2.81683 2.85742,-3.74023 0.98931,-0.74347 1.81827,-1.17737 2.80859,-1.33203 0.99033,-0.15458 2.12677,-0.0295 3.77149,0.29883 1.95786,0.38912 2.87534,0.38557 3.59961,0.0254 0.047,-0.0236 0.0536,-0.036 0.0977,-0.0566 0.34963,-0.17815 0.63694,-0.33776 0.78321,-0.45313 0.0823,-0.0649 0.12686,-0.11972 0.13867,-0.14453 0.0121,-0.0248 0.0169,-0.003 0.01,-0.0156 -0.0141,-0.0223 -0.18483,-0.13559 -0.51172,-0.22657 -0.32687,-0.091 -0.80112,-0.18515 -1.42382,-0.29101 -1.32433,-0.22475 -2.87271,-0.72626 -3.53321,-1.17969 -1.35711,-0.93092 -2.67612,-1.39309 -3.95312,-1.39648 -1.277,-0.003 -2.52259,0.45188 -3.7461,1.37304 -0.85863,0.64622 -1.5493,0.90708 -2.26367,0.81446 -0.23502,-0.0302 -0.42256,-0.0518 -0.58593,-0.10352 -0.16342,-0.0517 -0.31001,-0.14343 -0.41993,-0.2832 -0.21978,-0.27934 -0.32745,-0.71401 -0.57617,-1.56641 -0.27802,-0.95284 -0.72736,-2.88635 -1.0039,-4.31445 z"
             transform="matrix(0.23717815,0,0,0.24182421,68.047647,112.27014)" />
          <path
             style="color:#000000;font-style:normal;font-variant:normal;font-weight:normal;font-stretch:normal;font-size:63.864px;line-height:1.25;font-family:quicksand;-inkscape-font-specification:quicksand;font-variant-ligatures:normal;font-variant-position:normal;font-variant-caps:normal;font-variant-numeric:normal;font-variant-alternates:normal;font-variant-east-asian:normal;font-feature-settings:normal;font-variation-settings:normal;text-indent:0;text-align:start;text-decoration:none;text-decoration-line:none;text-decoration-style:solid;text-decoration-color:#000000;letter-spacing:0px;word-spacing:0px;text-transform:none;writing-mode:lr-tb;direction:ltr;text-orientation:mixed;dominant-baseline:auto;baseline-shift:baseline;text-anchor:start;white-space:normal;shape-padding:0;shape-margin:0;inline-size:0;clip-rule:nonzero;display:inline;overflow:visible;visibility:visible;isolation:auto;mix-blend-mode:normal;color-interpolation:sRGB;color-interpolation-filters:linearRGB;solid-color:#000000;solid-opacity:1;vector-effect:none;fill:#059669;fill-opacity:1;fill-rule:evenodd;stroke:none;stroke-linecap:round;stroke-linejoin:round;stroke-miterlimit:12.4;stroke-dasharray:none;stroke-dashoffset:0;stroke-opacity:1;paint-order:markers fill stroke;color-rendering:auto;image-rendering:auto;shape-rendering:auto;text-rendering:auto;enable-background:accumulate;stop-color:#000000;stop-opacity:1"
             d="m 73.402344,112.26953 c -2.958078,0 -5.355469,2.39739 -5.355469,5.35547 v 30.39062 c 0,2.95808 2.397391,5.35547 5.355469,5.35547 h 29.621096 c 2.95808,0 5.35351,-2.39739 5.35351,-5.35547 V 117.625 c 0,-2.95808 -2.39543,-5.35547 -5.35351,-5.35547 z m 0,0.95899 h 29.621096 c 2.44394,0 4.39648,1.95254 4.39648,4.39648 v 30.39062 c 0,2.44393 -1.95254,4.39649 -4.39648,4.39649 H 73.402344 c -2.443937,0 -4.396485,-1.95256 -4.396485,-4.39649 V 117.625 c 0,-2.44394 1.952548,-4.39648 4.396485,-4.39648 z"
             id="path1041" />
        </g>
        <g
           id="g1057"
           clip-path="url(#clipPath1059)">
          <g
             inkscape:label="Clip"
             id="g1055">
            <g
               inkscape:label="Clip"
               id="g1028"
               transform="translate(-50.313082,-13.801783)">
              <g
                 id="g876"
                 transform="translate(5.34e-4,1.166e-4)">
                <g
                   id="path1461"
                   style="opacity:1"
                   transform="translate(50.432875,13.801783)" />
                <g
                   id="path1437"
                   style="opacity:1"
                   transform="translate(50.432875,13.801783)" />
              </g>
            </g>
          </g>
        </g>
      </g>
    </g>
  </g>
</svg>
