<svg width="1140" height="568" viewBox="0 0 1140 568" fill="none" xmlns="http://www.w3.org/2000/svg">
<g clip-path="url(#clip0_400_29177)">
<rect width="1140" height="568" rx="24" fill="#2A3342"/>
<g opacity="0.4">
<line x1="1464" y1="316.5" x2="-24" y2="316.5" stroke="#333F51"/>
<line x1="1464" y1="340.5" x2="-24" y2="340.5" stroke="#333F51"/>
<line x1="1464" y1="364.5" x2="-24" y2="364.5" stroke="#333F51"/>
<line x1="1464" y1="388.5" x2="-24" y2="388.5" stroke="#333F51"/>
<line x1="1464" y1="412.5" x2="-24" y2="412.5" stroke="#333F51"/>
<line x1="1464" y1="436.5" x2="-24" y2="436.5" stroke="#333F51"/>
<line x1="1464" y1="460.5" x2="-24" y2="460.5" stroke="#333F51"/>
<line x1="1464" y1="484.5" x2="-24" y2="484.5" stroke="#333F51"/>
<line x1="1464" y1="508.5" x2="-24" y2="508.5" stroke="#333F51"/>
<line x1="1464" y1="532.5" x2="-24" y2="532.5" stroke="#333F51"/>
<line x1="1464" y1="556.5" x2="-24" y2="556.5" stroke="#333F51"/>
<line x1="24.5" y1="292" x2="24.5" y2="1012" stroke="#333F51"/>
<line x1="24.5" y1="292" x2="24.5" y2="1012" stroke="#333F51"/>
<line x1="48.5" y1="292" x2="48.5" y2="1012" stroke="#333F51"/>
<line x1="72.5" y1="292" x2="72.5" y2="1012" stroke="#333F51"/>
<line x1="96.5" y1="292" x2="96.5" y2="1012" stroke="#333F51"/>
<line x1="120.5" y1="292" x2="120.5" y2="1012" stroke="#333F51"/>
<line x1="144.5" y1="292" x2="144.5" y2="1012" stroke="#333F51"/>
<line x1="168.5" y1="292" x2="168.5" y2="1012" stroke="#333F51"/>
<line x1="192.5" y1="292" x2="192.5" y2="1012" stroke="#333F51"/>
<line x1="216.5" y1="292" x2="216.5" y2="1012" stroke="#333F51"/>
<line x1="240.5" y1="292" x2="240.5" y2="1012" stroke="#333F51"/>
<line x1="264.5" y1="292" x2="264.5" y2="1012" stroke="#333F51"/>
<line x1="288.5" y1="292" x2="288.5" y2="1012" stroke="#333F51"/>
<line x1="312.5" y1="292" x2="312.5" y2="1012" stroke="#333F51"/>
<line x1="336.5" y1="292" x2="336.5" y2="1012" stroke="#333F51"/>
<line x1="360.5" y1="292" x2="360.5" y2="1012" stroke="#333F51"/>
<line x1="384.5" y1="292" x2="384.5" y2="1012" stroke="#333F51"/>
<line x1="408.5" y1="292" x2="408.5" y2="1012" stroke="#333F51"/>
<line x1="432.5" y1="292" x2="432.5" y2="1012" stroke="#333F51"/>
<line x1="456.5" y1="292" x2="456.5" y2="1012" stroke="#333F51"/>
<line x1="480.5" y1="292" x2="480.5" y2="1012" stroke="#333F51"/>
<line x1="504.5" y1="292" x2="504.5" y2="1012" stroke="#333F51"/>
<line x1="528.5" y1="292" x2="528.5" y2="1012" stroke="#333F51"/>
<line x1="552.5" y1="292" x2="552.5" y2="1012" stroke="#333F51"/>
<line x1="576.5" y1="292" x2="576.5" y2="1012" stroke="#333F51"/>
<line x1="600.5" y1="292" x2="600.5" y2="1012" stroke="#333F51"/>
<line x1="624.5" y1="292" x2="624.5" y2="1012" stroke="#333F51"/>
<line x1="648.5" y1="292" x2="648.5" y2="1012" stroke="#333F51"/>
<line x1="672.5" y1="292" x2="672.5" y2="1012" stroke="#333F51"/>
<line x1="696.5" y1="292" x2="696.5" y2="1012" stroke="#333F51"/>
<line x1="720.5" y1="292" x2="720.5" y2="1012" stroke="#333F51"/>
<line x1="744.5" y1="292" x2="744.5" y2="1012" stroke="#333F51"/>
<line x1="768.5" y1="292" x2="768.5" y2="1012" stroke="#333F51"/>
<line x1="792.5" y1="292" x2="792.5" y2="1012" stroke="#333F51"/>
<line x1="816.5" y1="292" x2="816.5" y2="1012" stroke="#333F51"/>
<line x1="840.5" y1="292" x2="840.5" y2="1012" stroke="#333F51"/>
<line x1="864.5" y1="292" x2="864.5" y2="1012" stroke="#333F51"/>
<line x1="888.5" y1="292" x2="888.5" y2="1012" stroke="#333F51"/>
<line x1="912.5" y1="292" x2="912.5" y2="1012" stroke="#333F51"/>
<line x1="936.5" y1="292" x2="936.5" y2="1012" stroke="#333F51"/>
<line x1="960.5" y1="292" x2="960.5" y2="1012" stroke="#333F51"/>
<line x1="984.5" y1="292" x2="984.5" y2="1012" stroke="#333F51"/>
<line x1="1008.5" y1="292" x2="1008.5" y2="1012" stroke="#333F51"/>
<line x1="1032.5" y1="292" x2="1032.5" y2="1012" stroke="#333F51"/>
<line x1="1056.5" y1="292" x2="1056.5" y2="1012" stroke="#333F51"/>
<line x1="1080.5" y1="292" x2="1080.5" y2="1012" stroke="#333F51"/>
<line x1="1104.5" y1="292" x2="1104.5" y2="1012" stroke="#333F51"/>
<line x1="1128.5" y1="292" x2="1128.5" y2="1012" stroke="#333F51"/>
<line x1="0.5" y1="-404" x2="0.499969" y2="316" stroke="#333F51"/>
<line x1="1464" y1="4.5" x2="-24" y2="4.5" stroke="#333F51"/>
<line x1="1464" y1="28.5" x2="-24" y2="28.5" stroke="#333F51"/>
<line x1="1464" y1="52.5" x2="-24" y2="52.5" stroke="#333F51"/>
<line x1="1464" y1="76.5" x2="-24" y2="76.5" stroke="#333F51"/>
<line x1="1464" y1="100.5" x2="-24" y2="100.5" stroke="#333F51"/>
<line x1="1464" y1="124.5" x2="-24" y2="124.5" stroke="#333F51"/>
<line x1="1464" y1="148.5" x2="-24" y2="148.5" stroke="#333F51"/>
<line x1="1464" y1="172.5" x2="-24" y2="172.5" stroke="#333F51"/>
<line x1="1464" y1="196.5" x2="-24" y2="196.5" stroke="#333F51"/>
<line x1="1464" y1="220.5" x2="-24" y2="220.5" stroke="#333F51"/>
<line x1="1464" y1="244.5" x2="-24" y2="244.5" stroke="#333F51"/>
<line x1="1464" y1="268.5" x2="-24" y2="268.5" stroke="#333F51"/>
<line x1="1464" y1="292.5" x2="-24" y2="292.5" stroke="#333F51"/>
<line x1="24.5" y1="-404" x2="24.5" y2="316" stroke="#333F51"/>
<line x1="24.5" y1="-404" x2="24.5" y2="316" stroke="#333F51"/>
<line x1="48.5" y1="-404" x2="48.5" y2="316" stroke="#333F51"/>
<line x1="72.5" y1="-404" x2="72.5" y2="316" stroke="#333F51"/>
<line x1="96.5" y1="-404" x2="96.5" y2="316" stroke="#333F51"/>
<line x1="120.5" y1="-404" x2="120.5" y2="316" stroke="#333F51"/>
<line x1="144.5" y1="-404" x2="144.5" y2="316" stroke="#333F51"/>
<line x1="168.5" y1="-404" x2="168.5" y2="316" stroke="#333F51"/>
<line x1="192.5" y1="-404" x2="192.5" y2="316" stroke="#333F51"/>
<line x1="216.5" y1="-404" x2="216.5" y2="316" stroke="#333F51"/>
<line x1="240.5" y1="-404" x2="240.5" y2="316" stroke="#333F51"/>
<line x1="264.5" y1="-404" x2="264.5" y2="316" stroke="#333F51"/>
<line x1="288.5" y1="-404" x2="288.5" y2="316" stroke="#333F51"/>
<line x1="312.5" y1="-404" x2="312.5" y2="316" stroke="#333F51"/>
<line x1="336.5" y1="-404" x2="336.5" y2="316" stroke="#333F51"/>
<line x1="360.5" y1="-404" x2="360.5" y2="316" stroke="#333F51"/>
<line x1="384.5" y1="-404" x2="384.5" y2="316" stroke="#333F51"/>
<line x1="408.5" y1="-404" x2="408.5" y2="316" stroke="#333F51"/>
<line x1="432.5" y1="-404" x2="432.5" y2="316" stroke="#333F51"/>
<line x1="456.5" y1="-404" x2="456.5" y2="316" stroke="#333F51"/>
<line x1="480.5" y1="-404" x2="480.5" y2="316" stroke="#333F51"/>
<line x1="504.5" y1="-404" x2="504.5" y2="316" stroke="#333F51"/>
<line x1="528.5" y1="-404" x2="528.5" y2="316" stroke="#333F51"/>
<line x1="552.5" y1="-404" x2="552.5" y2="316" stroke="#333F51"/>
<line x1="576.5" y1="-404" x2="576.5" y2="316" stroke="#333F51"/>
<line x1="600.5" y1="-404" x2="600.5" y2="316" stroke="#333F51"/>
<line x1="624.5" y1="-404" x2="624.5" y2="316" stroke="#333F51"/>
<line x1="648.5" y1="-404" x2="648.5" y2="316" stroke="#333F51"/>
<line x1="672.5" y1="-404" x2="672.5" y2="316" stroke="#333F51"/>
<line x1="696.5" y1="-404" x2="696.5" y2="316" stroke="#333F51"/>
<line x1="720.5" y1="-404" x2="720.5" y2="316" stroke="#333F51"/>
<line x1="744.5" y1="-404" x2="744.5" y2="316" stroke="#333F51"/>
<line x1="768.5" y1="-404" x2="768.5" y2="316" stroke="#333F51"/>
<line x1="792.5" y1="-404" x2="792.5" y2="316" stroke="#333F51"/>
<line x1="816.5" y1="-404" x2="816.5" y2="316" stroke="#333F51"/>
<line x1="840.5" y1="-404" x2="840.5" y2="316" stroke="#333F51"/>
<line x1="864.5" y1="-404" x2="864.5" y2="316" stroke="#333F51"/>
<line x1="888.5" y1="-404" x2="888.5" y2="316" stroke="#333F51"/>
<line x1="912.5" y1="-404" x2="912.5" y2="316" stroke="#333F51"/>
<line x1="936.5" y1="-404" x2="936.5" y2="316" stroke="#333F51"/>
<line x1="960.5" y1="-404" x2="960.5" y2="316" stroke="#333F51"/>
<line x1="984.5" y1="-404" x2="984.5" y2="316" stroke="#333F51"/>
<line x1="1008.5" y1="-404" x2="1008.5" y2="316" stroke="#333F51"/>
<line x1="1032.5" y1="-404" x2="1032.5" y2="316" stroke="#333F51"/>
<line x1="1056.5" y1="-404" x2="1056.5" y2="316" stroke="#333F51"/>
<line x1="1080.5" y1="-404" x2="1080.5" y2="316" stroke="#333F51"/>
<line x1="1104.5" y1="-404" x2="1104.5" y2="316" stroke="#333F51"/>
<line x1="1128.5" y1="-404" x2="1128.5" y2="316" stroke="#333F51"/>
</g>
<rect width="1140" height="568" fill="url(#paint0_radial_400_29177)"/>
</g>
<defs>
<radialGradient id="paint0_radial_400_29177" cx="0" cy="0" r="1" gradientUnits="userSpaceOnUse" gradientTransform="translate(570 284) rotate(90) scale(284 570)">
<stop stop-color="#2A3342" stop-opacity="0"/>
<stop offset="1" stop-color="#2A3342"/>
</radialGradient>
<clipPath id="clip0_400_29177">
<rect width="1140" height="568" rx="24" fill="white"/>
</clipPath>
</defs>
</svg>
