<?xml version="1.0" standalone="no"?>
<!DOCTYPE svg PUBLIC "-//W3C//DTD SVG 20010904//EN"
 "http://www.w3.org/TR/2001/REC-SVG-20010904/DTD/svg10.dtd">
<svg version="1.0" xmlns="http://www.w3.org/2000/svg"
 width="298.000000pt" height="298.000000pt" viewBox="0 0 298.000000 298.000000"
 preserveAspectRatio="xMidYMid meet">
<metadata>
Created by potrace 1.14, written by Peter Selinger 2001-2017
</metadata>
<g transform="translate(0.000000,298.000000) scale(0.100000,-0.100000)"
fill="#000000" stroke="none">
<path d="M1245 2954 c-651 -110 -1165 -655 -1231 -1306 l-7 -68 100 0 99 0 12
89 c63 474 408 886 870 1041 71 24 236 60 273 60 5 0 9 45 9 100 0 116 12 108
-125 84z"/>
<path d="M1630 2871 c0 -114 -13 -99 110 -121 148 -26 334 -105 480 -203 283
-191 496 -537 542 -878 l12 -89 99 0 100 0 -7 68 c-34 335 -181 638 -430 888
-247 247 -494 368 -868 429 l-38 6 0 -100z"/>
<path d="M1253 2420 c-92 -24 -160 -53 -258 -109 -108 -62 -262 -216 -329
-329 -57 -96 -113 -252 -122 -341 l-7 -62 98 3 98 3 18 77 c66 278 280 497
550 563 l69 17 0 99 c0 115 6 111 -117 79z"/>
<path d="M1632 2339 l3 -102 60 -17 c263 -72 462 -277 530 -544 l23 -91 96 -3
96 -3 0 33 c-1 87 -55 246 -129 373 -62 108 -217 262 -329 329 -79 47 -236
107 -315 121 l-38 6 3 -102z"/>
<path d="M1348 1927 c-187 -65 -304 -219 -316 -414 -15 -253 177 -465 435
-481 253 -15 465 177 481 435 11 197 -109 381 -296 454 -88 34 -217 37 -304 6z"/>
<path d="M26 1248 c50 -314 202 -600 442 -830 234 -224 521 -361 850 -403 l52
-7 0 101 c0 56 -4 101 -9 101 -37 0 -202 36 -273 60 -332 112 -601 348 -754
665 -56 116 -100 252 -110 341 l-7 54 -102 0 -102 0 13 -82z"/>
<path d="M556 1269 c20 -87 59 -181 113 -274 62 -108 217 -262 329 -329 85
-51 243 -110 325 -121 l47 -7 0 100 0 100 -66 16 c-257 65 -472 270 -540 515
l-17 61 -103 0 -102 0 14 -61z"/>
<path d="M2221 1284 c-16 -63 -62 -162 -102 -221 -100 -145 -244 -250 -409
-299 l-75 -22 -3 -101 -3 -102 38 7 c362 65 673 363 757 724 l14 60 -103 0
-103 0 -11 -46z"/>
<path d="M2756 1276 c-16 -142 -105 -361 -206 -512 -72 -106 -202 -238 -308
-314 -151 -108 -344 -192 -502 -220 -123 -22 -110 -7 -110 -121 l0 -100 38 6
c267 43 450 112 645 241 107 72 259 211 337 309 156 196 265 442 304 683 l13
82 -102 0 -102 0 -7 -54z"/>
</g>
</svg>
