<?xml version="1.0" encoding="UTF-8" standalone="no"?>
<svg
   xmlns:dc="http://purl.org/dc/elements/1.1/"
   xmlns:cc="http://creativecommons.org/ns#"
   xmlns:rdf="http://www.w3.org/1999/02/22-rdf-syntax-ns#"
   xmlns:svg="http://www.w3.org/2000/svg"
   xmlns="http://www.w3.org/2000/svg"
   xmlns:xlink="http://www.w3.org/1999/xlink"
   xmlns:sodipodi="http://sodipodi.sourceforge.net/DTD/sodipodi-0.dtd"
   xmlns:inkscape="http://www.inkscape.org/namespaces/inkscape"
   width="211.66641mm"
   height="51.625759mm"
   viewBox="0 0 211.66641 51.62576"
   version="1.1"
   id="svg844"
   sodipodi:docname="CNGroup.svg"
   inkscape:version="1.0.2 (e86c870879, 2021-01-15, custom)"
   inkscape:export-filename="C:\Users\juricka\source\repos\LusteninyBulma\assets\Logo_Invert.png"
   inkscape:export-xdpi="30"
   inkscape:export-ydpi="30">
  <defs
     id="defs838">
    <linearGradient
       inkscape:collect="always"
       id="linearGradient2060">
      <stop
         style="stop-color:#246923;stop-opacity:0.38431373"
         offset="0"
         id="stop2056" />
      <stop
         style="stop-color:#246923;stop-opacity:0"
         offset="1"
         id="stop2058" />
    </linearGradient>
    <linearGradient
       inkscape:collect="always"
       xlink:href="#linearGradient2060"
       id="linearGradient2062"
       x1="72.160889"
       y1="158.62302"
       x2="87.207817"
       y2="146.42152"
       gradientUnits="userSpaceOnUse" />
  </defs>
  <sodipodi:namedview
     id="base"
     pagecolor="#ffffff"
     bordercolor="#666666"
     borderopacity="1.0"
     inkscape:pageopacity="0.0"
     inkscape:pageshadow="2"
     inkscape:zoom="0.35"
     inkscape:cx="1050.4746"
     inkscape:cy="204.74443"
     inkscape:document-units="mm"
     inkscape:current-layer="g1565"
     inkscape:document-rotation="0"
     showgrid="false"
     fit-margin-top="0"
     fit-margin-left="0"
     fit-margin-right="0"
     fit-margin-bottom="0"
     inkscape:window-width="1842"
     inkscape:window-height="1057"
     inkscape:window-x="-8"
     inkscape:window-y="-8"
     inkscape:window-maximized="1" />
  <metadata
     id="metadata841">
    <rdf:RDF>
      <cc:Work
         rdf:about="">
        <dc:format>image/svg+xml</dc:format>
        <dc:type
           rdf:resource="http://purl.org/dc/dcmitype/StillImage" />
        <dc:title></dc:title>
      </cc:Work>
    </rdf:RDF>
  </metadata>
  <g
     inkscape:label="Vrstva 1"
     inkscape:groupmode="layer"
     id="layer1"
     transform="translate(-101.92172,-92.638841)">
    <g
       id="g1565"
       transform="matrix(1.0141335,0,0,0.99464939,-0.74335552,0.39356049)">
      <g
         id="g1467"
         transform="matrix(-0.22614915,0.13733499,-0.13733499,-0.22614915,85.618874,150.14178)" />
      <g
         id="g1469"
         transform="matrix(-0.22614915,0.13733499,-0.13733499,-0.22614915,85.618874,150.14178)" />
      <g
         id="g1471"
         transform="matrix(-0.22614915,0.13733499,-0.13733499,-0.22614915,85.618874,150.14178)" />
      <g
         id="g1473"
         transform="matrix(-0.22614915,0.13733499,-0.13733499,-0.22614915,85.618874,150.14178)" />
      <g
         id="g1475"
         transform="matrix(-0.22614915,0.13733499,-0.13733499,-0.22614915,85.618874,150.14178)" />
      <g
         id="g1477"
         transform="matrix(-0.22614915,0.13733499,-0.13733499,-0.22614915,85.618874,150.14178)" />
      <g
         id="g1479"
         transform="matrix(-0.22614915,0.13733499,-0.13733499,-0.22614915,85.618874,150.14178)" />
      <g
         id="g1481"
         transform="matrix(-0.22614915,0.13733499,-0.13733499,-0.22614915,85.618874,150.14178)" />
      <g
         id="g1483"
         transform="matrix(-0.22614915,0.13733499,-0.13733499,-0.22614915,85.618874,150.14178)" />
      <g
         id="g1485"
         transform="matrix(-0.22614915,0.13733499,-0.13733499,-0.22614915,85.618874,150.14178)" />
      <g
         id="g1487"
         transform="matrix(-0.22614915,0.13733499,-0.13733499,-0.22614915,85.618874,150.14178)" />
      <g
         id="g1489"
         transform="matrix(-0.22614915,0.13733499,-0.13733499,-0.22614915,85.618874,150.14178)" />
      <g
         id="g1491"
         transform="matrix(-0.22614915,0.13733499,-0.13733499,-0.22614915,85.618874,150.14178)" />
      <g
         id="g1493"
         transform="matrix(-0.22614915,0.13733499,-0.13733499,-0.22614915,85.618874,150.14178)" />
      <g
         id="g1495"
         transform="matrix(-0.22614915,0.13733499,-0.13733499,-0.22614915,85.618874,150.14178)" />
      <path
         style="fill:#ffffff;stroke-width:0.30362"
         d="m 103.77306,144.11013 c -1.21164,-0.64087 -1.37095,-0.83303 -1.08361,-1.30707 0.1944,-0.3207 0.45348,-0.27333 1.2654,0.23135 1.96512,1.22149 4.47886,0.56347 4.47886,-1.17243 0,-1.07643 -0.55926,-1.57976 -3.00687,-2.70617 -1.07496,-0.4947 -2.1228,-1.10833 -2.32854,-1.36361 -1.25715,-1.5599 -0.34564,-3.97543 1.71345,-4.54075 1.35774,-0.37276 3.29675,-0.006 3.90222,0.73759 0.48661,0.59781 -0.0981,0.91251 -0.89127,0.47969 -0.98579,-0.53791 -2.94357,-0.44587 -3.61075,0.16976 -0.73114,0.67463 -0.76312,2.03315 -0.063,2.67707 0.28941,0.26619 1.29861,0.7782 2.24267,1.1378 1.90842,0.72694 3.24487,2.0776 3.24487,3.27938 0,0.47099 -0.3999,1.18131 -1.02234,1.81594 -0.88247,0.89975 -1.22185,1.04211 -2.48067,1.04047 -0.80208,-7.9e-4 -1.86426,-0.21659 -2.36039,-0.47902 z m 10.82474,-0.0127 c -1.4099,-0.78598 -1.99561,-1.40191 -2.5917,-2.72546 -1.50782,-3.34787 0.28323,-7.13525 3.8289,-8.09668 5.92359,-1.60622 9.64404,6.47816 4.73733,10.29401 -0.90049,0.70028 -1.45348,0.86917 -3.08482,0.94212 -1.41017,0.0631 -2.24973,-0.0572 -2.88971,-0.41399 z m 4.9644,-1.11592 c 2.27857,-1.58116 2.93629,-3.81718 1.81654,-6.17558 -0.94971,-2.00029 -2.26469,-2.74592 -4.54596,-2.57768 -1.54136,0.11368 -1.93778,0.27747 -2.8476,1.17657 -2.42296,2.39443 -2.02104,5.87895 0.88664,7.68676 1.30841,0.8135 3.43123,0.76369 4.69038,-0.11007 z m 6.31137,-4.0722 v -5.68173 l 3.30877,0.0867 c 4.12494,0.10807 4.44411,0.665 0.45135,0.78758 l -2.85806,0.0877 v 2.28822 2.28823 h 2.55584 c 2.0714,0 2.55584,0.0872 2.55584,0.45987 0,0.3727 -0.48444,0.45987 -2.55584,0.45987 h -2.55584 v 2.45262 c 0,1.97571 -0.0877,2.45261 -0.45103,2.45261 -0.38469,0 -0.45103,-0.83568 -0.45103,-5.68172 z m 11.7268,0.46991 v -5.21181 h -1.65377 c -1.28435,0 -1.65379,-0.10484 -1.65379,-0.4693 0,-0.40008 0.53248,-0.45661 3.6093,-0.38323 2.14692,0.0512 3.61047,0.2103 3.61219,0.39266 0.001,0.16862 -0.67542,0.34828 -1.50449,0.39925 l -1.50738,0.0927 v 5.19579 c 0,4.4141 -0.0679,5.19579 -0.45103,5.19579 -0.38323,0 -0.45103,-0.78347 -0.45103,-5.21181 z m 7.27134,-0.34588 c -0.86978,-3.05672 -1.51439,-5.62602 -1.43247,-5.70955 0.50994,-0.51994 1.06481,0.66439 2.10883,4.50114 0.65211,2.39651 1.27551,4.16586 1.39025,3.94587 0.11442,-0.21936 0.71308,-2.19231 1.33038,-4.38434 0.6173,-2.19202 1.23076,-4.10378 1.36325,-4.24834 0.36252,-0.39557 0.71351,0.48445 1.96782,4.93369 0.62916,2.23174 1.19148,4.00922 1.24962,3.94994 0.0897,-0.0915 2.49153,-8.47529 2.49153,-8.69695 0,-0.0424 0.20296,-0.0771 0.45103,-0.0771 0.24807,0 0.44771,0.17245 0.44365,0.38323 -0.011,0.57279 -2.90631,10.66073 -3.1231,10.88178 -0.38609,0.39364 -0.76118,-0.49707 -1.9585,-4.65069 -0.67685,-2.34805 -1.26458,-4.30379 -1.30608,-4.34609 -0.0415,-0.0423 -0.67122,1.98229 -1.3994,4.49911 -0.72818,2.51682 -1.47504,4.57602 -1.65968,4.57602 -0.18464,0 -1.04735,-2.50095 -1.91713,-5.55769 z m 11.98941,5.17447 c 0.0289,-0.66 4.69208,-11.07871 5.00642,-11.18554 0.22402,-0.0761 3.59661,7.29936 5.11481,11.18554 0.0838,0.21457 -0.0714,0.38322 -0.35265,0.38322 -0.314,0 -0.74887,-0.57207 -1.15975,-1.52565 l -0.65738,-1.52567 -2.92335,-0.007 -2.92334,-0.007 -0.64676,1.53289 c -0.58454,1.38541 -1.4999,2.10719 -1.458,1.14965 z m 7.22119,-4.29208 c -0.14539,-0.37939 -0.56098,-1.3796 -0.92353,-2.22269 -0.36255,-0.84309 -0.79018,-1.8756 -0.9503,-2.29448 -0.27067,-0.70814 -0.36252,-0.59418 -1.30813,1.62304 -1.66743,3.90973 -1.76088,3.58393 1.02798,3.58393 2.38575,0 2.41476,-0.009 2.15398,-0.6898 z m 5.09021,-0.99638 v -5.67169 h 2.57078 c 3.08035,0 4.19297,0.47377 4.84409,2.06268 0.63452,1.54836 0.30974,2.89992 -0.97272,4.048 l -1.0564,0.94571 1.1003,2.00605 c 0.60515,1.10332 1.0229,2.08493 0.92833,2.18135 -0.40599,0.41395 -1.09249,-0.28781 -2.12739,-2.17461 l -1.10679,-2.0179 h -1.63907 -1.63906 v 2.14605 c 0,1.7032 -0.0931,2.14603 -0.45103,2.14603 -0.38467,0 -0.45104,-0.83456 -0.45104,-5.67168 z m 6.04639,-0.42482 c 0.56802,-0.71522 0.7348,-1.99629 0.38196,-2.93379 -0.31509,-0.83719 -1.79482,-1.39333 -3.70722,-1.39333 h -1.81906 v 2.63941 2.63942 l 2.28779,-0.1178 c 1.95698,-0.10075 2.37003,-0.22134 2.85653,-0.83391 z m 4.77836,0.42482 v -5.67169 h 3.30756 c 2.73959,0 3.30755,0.079 3.30755,0.45987 0,0.3765 -0.51785,0.45986 -2.85652,0.45986 h -2.85653 v 1.98035 1.98036 l 2.45647,0.089 c 1.63243,0.0592 2.4982,0.2176 2.58089,0.47227 0.0931,0.28666 -0.52584,0.38322 -2.45646,0.38322 h -2.5809 v 2.29933 2.29934 h 2.85653 c 2.33867,0 2.85652,0.0834 2.85652,0.45985 0,0.3809 -0.56796,0.45987 -3.30755,0.45987 h -3.30756 z m 14.13229,0 v -5.67169 h 2.41748 c 2.75155,0 4.20154,0.56712 5.513,2.15623 0.98859,1.19789 1.19768,2.03588 1.02812,4.12065 -0.26935,3.31159 -2.54399,5.04795 -6.62827,5.05975 l -2.33033,0.007 z m 5.91038,3.9571 c 1.30214,-0.99123 1.96225,-2.09809 2.12403,-3.56149 0.33322,-3.01424 -1.91432,-5.14755 -5.42315,-5.14755 h -1.70919 v 4.78654 4.78655 l 2.0952,-0.12071 c 1.50012,-0.0864 2.32751,-0.29755 2.91311,-0.74334 z m 6.11712,-3.9571 v -5.67169 h 3.4579 c 2.87323,0 3.4579,0.0778 3.4579,0.45987 0,0.37811 -0.53455,0.45986 -3.00687,0.45986 h -3.00687 v 1.99275 1.99275 h 2.55584 c 2.0714,0 2.55584,0.0872 2.55584,0.45988 0,0.3727 -0.48444,0.45986 -2.55584,0.45986 h -2.55584 v 2.29933 2.29934 h 3.00687 c 2.47232,0 3.00687,0.0817 3.00687,0.45985 0,0.38212 -0.58467,0.45987 -3.4579,0.45987 h -3.4579 z m 13.28659,5.1538 c -0.92733,-1.80601 -4.57122,-10.61644 -4.44434,-10.7458 0.46837,-0.47756 1.12461,0.61225 2.87025,4.76649 1.06709,2.53946 2.02812,4.56178 2.13562,4.49404 0.1075,-0.0677 1.05672,-2.14387 2.10938,-4.61363 1.70714,-4.00531 2.39352,-5.12606 2.85263,-4.65795 0.20726,0.21132 -4.58592,11.0902 -4.93918,11.21026 -0.16463,0.056 -0.42758,-0.14808 -0.58436,-0.45341 z m 7.76151,-5.15381 v -5.67168 h 3.45791 c 2.87323,0 3.45789,0.0778 3.45789,0.45987 0,0.37811 -0.53455,0.45986 -3.00686,0.45986 h -3.00688 v 1.98081 1.98082 l 2.55767,0.0886 c 1.44529,0.05 2.55835,0.22191 2.55925,0.39516 7.9e-4,0.16861 -1.11624,0.37555 -2.48249,0.45986 l -2.48409,0.15329 -0.0883,2.22269 -0.0883,2.22269 h 3.02006 c 2.48401,0 3.02003,0.0816 3.02003,0.45985 0,0.38212 -0.58466,0.45987 -3.45789,0.45987 h -3.45791 z m 9.62199,0 c 0,-4.83711 0.0664,-5.67168 0.45103,-5.67168 0.38323,0 0.45103,0.78348 0.45103,5.21181 v 5.21183 h 2.55584 c 2.0714,0 2.55584,0.0872 2.55584,0.45985 0,0.37811 -0.53455,0.45987 -3.00688,0.45987 h -3.00686 z m 9.28333,4.7933 c -3.06192,-1.97986 -3.48811,-6.25668 -0.88768,-8.90803 1.44646,-1.4748 3.53301,-2.0794 5.40377,-1.56578 1.50302,0.41265 3.28167,1.93825 3.83558,3.2899 0.4867,1.18768 0.52833,3.40077 0.0864,4.59334 -1.19257,3.21821 -5.44727,4.52445 -8.43809,2.59057 z m 5.33565,-0.53901 c 3.10003,-1.49987 3.36024,-6.24427 0.45295,-8.25851 -1.4538,-1.00723 -3.73664,-1.03257 -5.17996,-0.0575 -1.386,0.93636 -2.47546,3.20281 -2.21638,4.61086 0.62785,3.41231 3.91888,5.16846 6.94339,3.70513 z m 6.42912,-4.25429 v -5.67168 h 2.27009 c 1.44101,0 2.59223,0.16985 3.15212,0.46506 2.35229,1.24024 2.35229,5.1875 0,6.42774 -0.50324,0.26534 -1.66323,0.46506 -2.70109,0.46506 h -1.81906 v 1.99275 c 0,1.56695 -0.0964,1.99275 -0.45103,1.99275 -0.38466,0 -0.45103,-0.83456 -0.45103,-5.67168 z m 5.42829,-0.0333 c 0.33259,-0.3391 0.68189,-1.10151 0.77623,-1.69426 0.13687,-0.85993 0.0216,-1.25546 -0.57049,-1.95726 -0.64859,-0.76881 -0.99318,-0.89585 -2.73698,-1.00906 l -1.99499,-0.12952 v 2.83062 2.83062 l 1.96077,-0.12729 c 1.44777,-0.094 2.11897,-0.28861 2.56546,-0.74385 z m 3.24761,5.55787 c -0.0862,-0.0879 0.35797,-2.67754 0.98711,-5.75471 0.62914,-3.07717 1.1479,-5.62935 1.15281,-5.6715 0.005,-0.0422 0.133,-0.0767 0.28466,-0.0767 0.15165,0 0.97473,2.13839 1.82907,4.75195 0.85434,2.61358 1.59854,4.75196 1.65378,4.75196 0.0552,0 0.79944,-2.13838 1.65378,-4.75196 0.85434,-2.61356 1.66832,-4.75195 1.80882,-4.75195 0.14051,0 0.32385,0.24144 0.40742,0.53652 0.12403,0.43793 1.93716,9.63068 2.09766,10.63535 0.0254,0.1586 -0.16495,0.3361 -0.42287,0.39445 -0.37876,0.0857 -0.60605,-0.64785 -1.18178,-3.814 -0.39205,-2.15606 -0.79041,-4.15468 -0.88525,-4.44137 -0.10399,-0.31435 -0.76007,1.23717 -1.65291,3.90886 -0.81426,2.43658 -1.64201,4.43013 -1.83944,4.43013 -0.19742,0 -1.01903,-2.00065 -1.82579,-4.44591 -0.80676,-2.44526 -1.51315,-4.30427 -1.56974,-4.13116 -0.0566,0.17311 -0.4626,2.12941 -0.90225,4.34732 -0.71515,3.60789 -1.09846,4.589 -1.59508,4.08267 z m 14.7777,-5.5246 v -5.69176 l 3.30878,0.0867 c 4.12493,0.10807 4.4441,0.665 0.45135,0.78758 l -2.85807,0.0877 v 1.96924 1.96926 l 2.45648,0.089 c 1.63244,0.0592 2.4982,0.2176 2.58089,0.47227 0.0931,0.28666 -0.52584,0.38322 -2.45646,0.38322 h -2.58091 v 2.28823 2.28823 l 2.93171,0.0877 c 4.094,0.12253 3.77516,0.67928 -0.45103,0.78757 l -3.38274,0.0867 z m 9.38984,-0.0514 c 0.0498,-3.4829 0.19951,-5.75586 0.3825,-5.80692 0.16537,-0.0461 1.9244,2.09355 3.90893,4.75485 l 3.60825,4.83875 0.0828,-4.70351 c 0.0687,-3.90233 0.15834,-4.7035 0.52621,-4.7035 0.37476,0 0.4434,0.87798 0.4434,5.67168 0,4.68172 -0.0742,5.67168 -0.42485,5.67168 -0.23366,0 -2.02651,-2.14798 -3.98411,-4.7733 l -3.55925,-4.77328 -0.0828,4.77328 c -0.0693,3.99624 -0.15607,4.7733 -0.53284,4.7733 -0.38643,0 -0.43847,-0.80877 -0.36823,-5.72303 z m 14.36445,0.51122 v -5.21182 h -1.65378 c -1.28434,0 -1.65377,-0.10483 -1.65377,-0.4693 0,-0.40007 0.53246,-0.4566 3.60929,-0.38322 2.14692,0.0512 3.61047,0.2103 3.61219,0.39266 10e-4,0.16862 -0.67542,0.34828 -1.50448,0.39924 l -1.50739,0.0927 v 5.19579 c 0,4.4141 -0.0679,5.19579 -0.45103,5.19579 -0.38323,0 -0.45103,-0.78347 -0.45103,-5.21181 z M 112.76415,122.69421 c -5.20821,-1.20948 -9.45258,-5.21294 -10.98689,-10.36329 -0.52681,-1.76835 -0.61263,-2.67811 -0.49881,-5.28745 0.12375,-2.83691 0.24682,-3.38636 1.23247,-5.50252 1.54514,-3.31736 3.82494,-5.672195 7.08765,-7.320928 l 2.54739,-1.287262 h 3.9321 c 3.65915,0 4.05438,0.0584 5.69354,0.84129 2.05328,0.980675 4.70335,2.889991 4.70335,3.388654 0,0.455273 -2.43289,2.974626 -2.87254,2.974626 -0.188,0 -0.57291,-0.260355 -0.85536,-0.578565 -0.28244,-0.318208 -1.35205,-0.973517 -2.37692,-1.456242 -1.59536,-0.751431 -2.23104,-0.876525 -4.41924,-0.869647 -2.33216,0.0073 -2.72426,0.100416 -4.48028,1.063622 -3.63555,1.994172 -5.57853,5.588392 -5.38698,9.965132 0.23986,5.48051 3.83117,9.52334 9.01113,10.14407 2.26232,0.2711 4.28551,-0.26109 6.74703,-1.77478 l 2.00342,-1.23199 1.34658,1.37296 c 1.619,1.6507 1.52065,2.05717 -0.88897,3.67416 -3.36597,2.25876 -7.78526,3.1198 -11.53867,2.24816 z m 31.69034,-10.24408 -8.80858,-10.68051 -0.15034,10.29728 -0.15035,10.29728 -1.92709,0.0925 c -1.33825,0.0643 -2.00296,-0.0294 -2.17538,-0.30658 -0.28275,-0.45451 -0.35463,-28.14271 -0.075,-28.885729 0.11342,-0.301373 0.54407,-0.484941 1.13766,-0.484941 0.88083,0 1.63296,0.799576 9.665,10.27469 l 8.70984,10.27468 0.15034,-10.04475 0.15035,-10.044753 1.75431,-0.09271 c 1.03469,-0.05469 1.92893,0.05503 2.17998,0.267472 0.35597,0.301211 0.42567,2.703298 0.42567,14.670471 0,10.72145 -0.0905,14.40253 -0.36083,14.67817 -1.04682,1.06732 -1.53316,0.59082 -10.5256,-10.31261 z m 37.16978,10.24561 c -8.78624,-2.04531 -13.81481,-11.38763 -10.80741,-20.0785 0.95129,-2.749049 3.52821,-5.966741 6.1339,-7.659172 3.38702,-2.199899 8.42158,-2.83781 12.41131,-1.572592 2.07832,0.659075 5.492,2.772104 5.79984,3.59003 0.13103,0.348159 -0.21335,0.931377 -1.08414,1.836029 -0.70189,0.729186 -1.37874,1.325795 -1.5041,1.325795 -0.12537,0 -1.04451,-0.53812 -2.04255,-1.195818 -0.99803,-0.657698 -2.50684,-1.365131 -3.3529,-1.572074 -4.46128,-1.091209 -9.32324,1.389158 -11.34608,5.788302 -0.6861,1.49209 -0.79621,2.1343 -0.79621,4.64402 0,2.49721 0.11123,3.15291 0.78009,4.59866 0.42903,0.9274 1.3762,2.29398 2.1048,3.03686 0.7286,0.74287 2.06893,1.70859 2.97851,2.14604 1.42246,0.68411 2.0323,0.79081 4.35996,0.76279 1.88331,-0.0226 3.16334,-0.21172 4.20963,-0.62171 l 1.50343,-0.58914 0.0881,-2.201 0.0881,-2.201 -2.34324,-0.0898 -2.34324,-0.0898 v -1.99275 -1.99275 h 4.35997 4.35996 v 5.82497 5.82497 l -1.65378,0.82327 c -3.47203,1.72843 -8.55253,2.43448 -11.90392,1.65432 z m 56.70632,0.1389 c -9.19663,-1.73826 -14.66471,-11.05893 -11.6824,-19.91337 1.56158,-4.636288 5.96448,-8.747458 10.51326,-9.81666 1.87599,-0.440958 5.56246,-0.390436 7.3728,0.101042 4.12591,1.120123 7.734,4.239295 9.64181,8.335298 0.98455,2.1138 1.10879,2.66734 1.23184,5.48835 0.19739,4.52507 -0.37872,5.99447 -2.3729,6.05228 -0.69277,0.0201 -1.16349,-0.19756 -1.63431,-0.75564 -0.60543,-0.71764 -0.64938,-1.02594 -0.52037,-3.65039 0.18851,-3.83478 -0.5071,-5.81264 -2.90369,-8.25617 -5.91815,-6.03408 -15.95696,-2.755685 -17.49231,5.7125 -0.83278,4.59317 1.59897,9.16577 5.99445,11.27178 1.89004,0.90558 2.18266,0.95607 5.22515,0.90166 3.00671,-0.0538 3.2539,-0.0126 3.68343,0.61259 0.85615,1.24628 0.53769,2.77138 -0.71683,3.43282 -1.0297,0.54292 -4.59002,0.81466 -6.33993,0.48391 z m 31.37823,-0.004 c -2.80576,-0.6078 -5.49203,-2.47226 -6.96727,-4.83576 -1.75646,-2.81403 -1.87633,-3.80651 -1.78849,-14.80826 l 0.0794,-9.947081 h 2.10481 2.10481 l 0.15116,10.117051 c 0.12638,8.45872 0.23138,10.29724 0.64055,11.21632 2.27557,5.11137 9.63188,5.33473 12.03189,0.36531 0.68846,-1.42551 0.71133,-1.73438 0.85766,-11.58163 l 0.15036,-10.117261 h 2.10481 2.10481 v 10.730201 10.73022 l -0.78942,1.68617 c -1.20112,2.56556 -2.7089,4.12879 -5.16539,5.35534 -2.37349,1.18511 -5.26733,1.59876 -7.61969,1.08917 z m -67.92435,-0.6964 c -0.0793,-0.21077 -0.10883,-6.79835 -0.0657,-14.63906 l 0.0784,-14.255851 h 7.21649 7.21649 l 1.54053,0.828577 c 6.36535,3.423625 6.59396,12.224534 0.41106,15.824904 l -1.43501,0.83562 2.83298,5.34925 c 1.55814,2.94209 2.79354,5.56013 2.74533,5.81787 -0.0678,0.36232 -0.61103,0.48886 -2.39479,0.5578 l -2.30713,0.0892 -2.80128,-5.68313 -2.8013,-5.68314 -2.93171,-0.001 -2.93169,-0.001 v 5.18674 c 0,2.85271 -0.0821,5.40497 -0.18252,5.67168 -0.23321,0.61966 -3.96131,0.71016 -4.19007,0.10172 z M 215.7821,106.4988 c 1.7074,-1.1848 2.2521,-2.20437 2.2521,-4.21544 0,-2.10039 -0.6025,-3.142712 -2.43377,-4.210395 -1.0574,-0.616497 -1.5866,-0.685258 -5.30893,-0.689799 l -4.13444,-0.005 v 4.905234 4.90524 h 4.31549 c 3.98035,0 4.39271,-0.0536 5.30955,-0.6898 z m 74.78015,15.82684 c -0.30338,-0.30932 -0.25564,-28.389418 0.0491,-28.879486 0.19972,-0.321174 1.53782,-0.385422 6.385,-0.306578 5.47716,0.08909 6.27853,0.168722 7.50071,0.7453 2.02541,0.955517 3.45248,2.382625 4.48095,4.481099 1.71513,3.499525 1.13311,7.524825 -1.51521,10.479285 -2.21374,2.46962 -3.71579,3.02559 -8.61179,3.18759 l -3.977,0.13159 -0.0823,5.09987 -0.0823,5.09987 -1.9672,0.0892 c -1.08197,0.0491 -2.06296,-0.008 -2.17998,-0.12774 z m 12.43963,-15.52756 c 2.30113,-1.58111 3.11612,-4.663 1.81043,-6.84617 -1.09679,-1.833868 -2.38405,-2.34014 -6.37634,-2.507783 l -3.5762,-0.150171 v 5.100614 5.10061 h 3.56379 c 3.20891,0 3.66481,-0.0694 4.57832,-0.6971 z m -55.02748,11.53925 c -0.7128,-0.92393 -0.75909,-1.31189 -0.28351,-2.37613 1.00646,-2.25222 4.17062,-1.3638 4.17062,1.17101 0,1.93038 -2.6853,2.7629 -3.88711,1.20512 z"
         id="path918" />
    </g>
  </g>
</svg>
