<?xml version="1.0" encoding="UTF-8" standalone="no"?>
<svg
   xmlns:dc="http://purl.org/dc/elements/1.1/"
   xmlns:cc="http://creativecommons.org/ns#"
   xmlns:rdf="http://www.w3.org/1999/02/22-rdf-syntax-ns#"
   xmlns:svg="http://www.w3.org/2000/svg"
   xmlns="http://www.w3.org/2000/svg"
   xmlns:xlink="http://www.w3.org/1999/xlink"
   xmlns:sodipodi="http://sodipodi.sourceforge.net/DTD/sodipodi-0.dtd"
   xmlns:inkscape="http://www.inkscape.org/namespaces/inkscape"
   width="131.88477mm"
   height="51.89222mm"
   viewBox="0 0 131.88476 51.89222"
   version="1.1"
   id="svg844"
   sodipodi:docname="ZivyZlin.svg"
   inkscape:version="1.0.2 (e86c870879, 2021-01-15, custom)"
   inkscape:export-filename="C:\Users\juricka\source\repos\LusteninyBulma\assets\Logo_Invert.png"
   inkscape:export-xdpi="30"
   inkscape:export-ydpi="30">
  <defs
     id="defs838">
    <linearGradient
       inkscape:collect="always"
       id="linearGradient2060">
      <stop
         style="stop-color:#246923;stop-opacity:0.38431373"
         offset="0"
         id="stop2056" />
      <stop
         style="stop-color:#246923;stop-opacity:0"
         offset="1"
         id="stop2058" />
    </linearGradient>
    <linearGradient
       inkscape:collect="always"
       xlink:href="#linearGradient2060"
       id="linearGradient2062"
       x1="72.160889"
       y1="158.62302"
       x2="87.207817"
       y2="146.42152"
       gradientUnits="userSpaceOnUse" />
  </defs>
  <sodipodi:namedview
     id="base"
     pagecolor="#ffffff"
     bordercolor="#666666"
     borderopacity="1.0"
     inkscape:pageopacity="0.0"
     inkscape:pageshadow="2"
     inkscape:zoom="1.4"
     inkscape:cx="347.38609"
     inkscape:cy="79.39568"
     inkscape:document-units="mm"
     inkscape:current-layer="g1565"
     inkscape:document-rotation="0"
     showgrid="false"
     fit-margin-top="0"
     fit-margin-left="0"
     fit-margin-right="0"
     fit-margin-bottom="0"
     inkscape:window-width="1842"
     inkscape:window-height="1057"
     inkscape:window-x="-8"
     inkscape:window-y="-8"
     inkscape:window-maximized="1" />
  <metadata
     id="metadata841">
    <rdf:RDF>
      <cc:Work
         rdf:about="">
        <dc:format>image/svg+xml</dc:format>
        <dc:type
           rdf:resource="http://purl.org/dc/dcmitype/StillImage" />
        <dc:title></dc:title>
      </cc:Work>
    </rdf:RDF>
  </metadata>
  <g
     inkscape:label="Vrstva 1"
     inkscape:groupmode="layer"
     id="layer1"
     transform="translate(-107.20529,-95.351645)">
    <g
       id="g1565"
       transform="matrix(1.0141335,0,0,0.99464939,-0.74335552,0.39356049)">
      <g
         id="g1467"
         transform="matrix(-0.22614915,0.13733499,-0.13733499,-0.22614915,85.618874,150.14178)" />
      <g
         id="g1469"
         transform="matrix(-0.22614915,0.13733499,-0.13733499,-0.22614915,85.618874,150.14178)" />
      <g
         id="g1471"
         transform="matrix(-0.22614915,0.13733499,-0.13733499,-0.22614915,85.618874,150.14178)" />
      <g
         id="g1473"
         transform="matrix(-0.22614915,0.13733499,-0.13733499,-0.22614915,85.618874,150.14178)" />
      <g
         id="g1475"
         transform="matrix(-0.22614915,0.13733499,-0.13733499,-0.22614915,85.618874,150.14178)" />
      <g
         id="g1477"
         transform="matrix(-0.22614915,0.13733499,-0.13733499,-0.22614915,85.618874,150.14178)" />
      <g
         id="g1479"
         transform="matrix(-0.22614915,0.13733499,-0.13733499,-0.22614915,85.618874,150.14178)" />
      <g
         id="g1481"
         transform="matrix(-0.22614915,0.13733499,-0.13733499,-0.22614915,85.618874,150.14178)" />
      <g
         id="g1483"
         transform="matrix(-0.22614915,0.13733499,-0.13733499,-0.22614915,85.618874,150.14178)" />
      <g
         id="g1485"
         transform="matrix(-0.22614915,0.13733499,-0.13733499,-0.22614915,85.618874,150.14178)" />
      <g
         id="g1487"
         transform="matrix(-0.22614915,0.13733499,-0.13733499,-0.22614915,85.618874,150.14178)" />
      <g
         id="g1489"
         transform="matrix(-0.22614915,0.13733499,-0.13733499,-0.22614915,85.618874,150.14178)" />
      <g
         id="g1491"
         transform="matrix(-0.22614915,0.13733499,-0.13733499,-0.22614915,85.618874,150.14178)" />
      <g
         id="g1493"
         transform="matrix(-0.22614915,0.13733499,-0.13733499,-0.22614915,85.618874,150.14178)" />
      <g
         id="g1495"
         transform="matrix(-0.22614915,0.13733499,-0.13733499,-0.22614915,85.618874,150.14178)" />
      <path
         style="fill:#ffffff;stroke-width:0.263439"
         d="m 136.00799,147.23575 c -2.13107,-0.43749 -4.12217,-1.23705 -6.13106,-2.46203 -1.76608,-1.07692 -17.874,-17.17968 -19.84595,-19.83959 -2.46705,-3.32775 -3.58676,-6.78764 -3.58676,-11.0831 0,-3.34337 0.48616,-5.41852 1.93646,-8.2658 1.83426,-3.60106 4.45142,-6.232979 7.92966,-7.974379 2.89367,-1.44874 4.71219,-1.87927 7.95733,-1.88389 5.17273,-0.007 9.02344,1.6729 13.33288,5.817829 l 1.79141,1.72304 1.89533,-1.78994 c 4.48014,-4.230989 8.03879,-5.790729 13.24431,-5.804909 3.13788,-0.009 5.15913,0.45279 7.95733,1.8162 3.69582,1.80078 7.31908,5.786769 8.73301,9.607289 0.59938,1.61959 1.44891,5.37308 1.25973,5.56596 -0.059,0.0601 -1.15741,-0.35036 -2.44101,-0.91216 -3.99752,-1.74963 -5.41509,-2.02522 -10.29114,-2.00066 -3.88628,0.0196 -4.52769,0.0909 -6.59762,0.73331 -4.1875,1.29967 -7.21632,3.10218 -10.32387,6.14392 -2.39091,2.34028 -3.91961,4.49659 -5.26857,7.43158 -1.49388,3.25029 -2.08862,5.82504 -2.25056,9.74311 -0.16725,4.04628 0.4048,7.31536 1.87132,10.69402 1.23565,2.84677 1.31972,3.14414 0.88014,3.11333 -0.1961,-0.0138 -1.11967,-0.18166 -2.05237,-0.37313 z m 34.23542,-0.016 c -0.70057,-0.50031 -0.76113,-1.59053 -0.13996,-2.5193 0.24194,-0.36173 2.27801,-2.99191 4.5246,-5.84483 l 4.08472,-5.18713 -3.63583,0.0808 c -4.4721,0.0994 -4.89158,-0.0746 -4.89158,-2.0288 0,-0.69889 0.14088,-1.41435 0.31308,-1.58991 0.22727,-0.23173 2.15259,-0.31921 7.02555,-0.31921 5.92893,0 6.76346,0.052 7.14923,0.4453 0.9267,0.94486 0.37342,1.97146 -4.1799,7.75571 l -4.32825,5.49833 4.11956,0.0678 c 3.82682,0.063 4.15201,0.10759 4.57613,0.62798 0.62033,0.76115 0.58724,2.23008 -0.0652,2.89533 -0.4948,0.50449 -0.86965,0.53201 -7.24703,0.53201 -5.66462,0 -6.81669,-0.0653 -7.30509,-0.41409 z m 20.29701,-0.18443 c -0.78212,-0.40741 -1.3204,-0.93824 -1.68588,-1.66254 -0.51048,-1.01165 -0.54055,-1.57003 -0.61083,-11.34391 -0.0847,-11.77772 -0.20971,-11.13365 2.16109,-11.13365 2.33151,0 2.21761,-0.52392 2.21761,10.20106 0,8.04558 0.0572,9.44835 0.40614,9.95625 0.22338,0.32516 0.61081,0.5912 0.86096,0.5912 0.76754,0 1.08097,0.57847 1.08097,1.99505 0,0.74615 -0.14089,1.50028 -0.31308,1.67585 -0.52918,0.53955 -2.84686,0.38231 -4.11698,-0.27931 z m 7.56081,0.0665 c -0.49803,-0.50779 -0.52179,-0.88669 -0.52179,-8.32002 0,-9.1944 -0.0577,-8.97041 2.31067,-8.97041 0.82413,0 1.63929,0.14364 1.81148,0.31921 0.23015,0.23466 0.31308,2.52202 0.31308,8.63585 0,9.43142 0.13997,8.86738 -2.20047,8.86738 -0.84332,0 -1.34356,-0.15536 -1.71297,-0.53201 z m 8.66762,0.11792 c -0.57755,-0.41246 -0.57985,-0.44603 -0.57985,-8.49321 0,-9.27431 -0.0888,-8.91514 2.20431,-8.91514 1.55406,0 1.92101,0.28154 2.13594,1.6388 l 0.14067,0.88826 1.14254,-1.1176 c 3.03625,-2.96998 8.27167,-2.41703 10.09793,1.06651 0.55324,1.05528 0.58902,1.47183 0.66687,7.76207 0.0811,6.55457 0.0744,6.65347 -0.48547,7.11568 -0.70374,0.58102 -2.53222,0.61846 -3.30351,0.0676 -0.54099,-0.38634 -0.56469,-0.61401 -0.64507,-6.19724 -0.0947,-6.58126 -0.22036,-7.06144 -1.9329,-7.38901 -1.89021,-0.36155 -3.86324,0.70739 -4.87415,2.6407 -0.52102,0.99641 -0.58668,1.56427 -0.6661,5.76049 -0.10221,5.40004 -0.17269,5.58614 -2.11538,5.58614 -0.66926,0 -1.46405,-0.18429 -1.78583,-0.41409 z m -59.14047,-3.77551 c -3.69134,-5.13848 -3.54241,-12.59227 0.35745,-17.89034 2.07876,-2.82404 4.8673,-4.70484 8.30444,-5.60113 4.38478,-1.14341 8.53978,-0.32682 12.53061,2.46267 l 1.11403,0.77868 -0.46179,0.84808 c -0.57316,1.05261 -17.49191,18.50488 -19.15081,19.7547 -0.66494,0.50098 -1.33887,0.91087 -1.49761,0.91087 -0.15875,0 -0.69709,-0.56859 -1.19632,-1.26353 z M 198.79695,127.506 c -0.35522,-0.36218 -0.15177,-1.20078 0.63702,-2.62583 0.96253,-1.73892 1.34381,-1.98495 3.07616,-1.98495 1.83928,0 2.11426,0.57004 1.05873,2.19482 -1.37429,2.11544 -1.99574,2.5933 -3.37256,2.5933 -0.67398,0 -1.30369,-0.0798 -1.39935,-0.17734 z m 22.76968,-0.32626 c -1.94862,-0.64562 -2.28864,-1.48749 -1.28122,-3.17224 0.52141,-0.87198 0.54531,-0.88054 1.95567,-0.70087 1.8338,0.2336 2.55597,-0.22013 3.42272,-2.15046 l 0.64119,-1.42798 -3.42376,-8.15043 c -1.88307,-4.48274 -3.35969,-8.32067 -3.28139,-8.52873 0.30844,-0.81952 2.2716,-1.14265 3.74986,-0.61723 0.75528,0.26845 0.91753,0.60272 2.77834,5.72406 1.08692,2.99144 1.98342,5.64624 1.99221,5.89956 0.009,0.25332 0.86587,-2.07196 1.90463,-5.16731 1.03875,-3.09534 2.04129,-5.81541 2.22785,-6.04461 0.75438,-0.92679 3.69884,-0.85393 4.20164,0.10396 0.216,0.41151 -0.47052,2.43908 -3.50196,10.34256 -2.07384,5.4069 -3.94435,10.16901 -4.15668,10.58248 -0.48956,0.95332 -1.88289,2.29623 -2.95184,2.84502 -0.99722,0.51196 -3.35734,0.767 -4.27726,0.46222 z m -43.88051,-7.2453 c -0.62562,-0.24035 -0.71746,-0.41841 -0.71746,-1.39091 0,-1.04493 0.27738,-1.46718 4.39776,-6.6945 l 4.39777,-5.57923 -4.00077,-0.0732 c -4.53954,-0.0831 -4.63538,-0.13137 -4.48316,-2.25828 0.12273,-1.7149 0.4078,-1.78376 7.38483,-1.78376 6.83049,0 7.25743,0.0935 7.38351,1.61728 0.0856,1.03481 -0.43724,1.79958 -6.16354,9.01515 l -2.63879,3.32508 4.2315,0.0704 c 4.78312,0.0795 4.88375,0.12231 4.88375,2.07596 0,1.83281 -0.0156,1.8368 -7.40984,1.89774 -4.01758,0.0331 -6.82536,-0.0526 -7.26556,-0.22167 z m 18.64,0.12427 c -0.33681,-0.073 -0.7144,-0.43423 -0.85884,-0.82158 -0.40236,-1.07903 -0.19386,-16.17654 0.22936,-16.60757 0.44353,-0.45171 3.32247,-0.45142 3.7656,3.7e-4 0.43119,0.43964 0.49131,16.62102 0.0634,17.05734 -0.31866,0.3249 -2.33469,0.55894 -3.1995,0.37143 z m 12.55601,0.005 c -0.31244,-0.0694 -0.68315,-0.26858 -0.8238,-0.44267 -0.51596,-0.63865 -5.79691,-15.76584 -5.72578,-16.40142 0.0579,-0.51765 0.28192,-0.70645 1.05917,-0.89272 1.14999,-0.27559 2.61952,-0.0537 3.03641,0.45844 0.32777,0.40268 3.93521,11.18265 3.93521,11.75943 0,1.16574 0.58756,-0.26277 2.21761,-5.39156 1.00445,-3.16039 1.97484,-5.96276 2.15641,-6.22747 0.39468,-0.57538 2.2155,-0.88743 3.32241,-0.5694 0.57768,0.16599 0.80385,0.40705 0.86349,0.92038 0.10304,0.88679 -5.05198,15.58271 -5.71097,16.28082 -0.36868,0.39057 -0.89493,0.53307 -2.12602,0.57568 -0.89984,0.0311 -1.8917,-1.3e-4 -2.20414,-0.0695 z M 181.9532,99.553181 c -1.04305,-1.0671 -2.15206,-3.11578 -1.96119,-3.62292 0.12024,-0.31949 0.50078,-0.43368 1.44517,-0.43368 1.22281,0 1.32011,0.0552 2.10947,1.19703 0.45515,0.65836 0.89384,1.19703 0.97489,1.19703 0.081,0 0.47015,-0.5449 0.86469,-1.21087 l 0.71733,-1.21087 1.36793,0.0803 c 1.20341,0.0707 1.37822,0.15436 1.45348,0.6958 0.0932,0.67034 -1.57966,3.37886 -2.34468,3.796299 -0.24528,0.13385 -1.22584,0.24335 -2.17902,0.24335 -1.54332,0 -1.81132,-0.0801 -2.44807,-0.731509 z m 45.10008,0.1854 c -0.23827,-0.45393 -0.11958,-0.83733 0.70319,-2.27137 1.07716,-1.87745 1.37765,-2.04907 3.36304,-1.9207 1.68016,0.10863 1.76908,0.59136 0.46464,2.52245 -1.25812,1.86252 -1.75827,2.215739 -3.13741,2.215739 -0.84932,0 -1.1735,-0.12705 -1.39346,-0.546119 z m -31.41577,-0.84311 c -0.22337,-0.32516 -0.40614,-0.95689 -0.40614,-1.40384 0,-0.44696 0.18277,-1.07869 0.40614,-1.40385 0.33953,-0.49425 0.64973,-0.59054 1.89149,-0.58713 0.81695,0.002 1.64102,0.10469 1.83127,0.22767 0.57115,0.3692 0.69944,2.31597 0.20349,3.08772 -0.38034,0.59184 -0.61245,0.67064 -1.97554,0.67064 -1.30036,0 -1.60879,-0.0935 -1.95071,-0.59121 z"
         id="path934" />
    </g>
  </g>
</svg>
